<?xml version="1.0" standalone="yes"?>
<svg xmlns="http://www.w3.org/2000/svg" version="1.1" viewBox="0 0 256 256">
  <rect x="0" y="0" width="256" height="256" style="fill:#FFFFFF;shape-rendering:crispEdges;"/>
  <path x="0" y="0" style="fill:#333;shape-rendering:crispEdges;" d="M7.31,7.31 V14.63 H14.63 V7.31 H7.31 Z M14.63,7.31 V14.63 H21.94 V7.31 H14.63 Z M21.94,7.31 V14.63 H29.26 V7.31 H21.94 Z M29.26,7.31 V14.63 H36.57 V7.31 H29.26 Z M36.57,7.31 V14.63 H43.89 V7.31 H36.57 Z M43.89,7.31 V14.63 H51.20 V7.31 H43.89 Z M51.20,7.31 V14.63 H58.51 V7.31 H51.20 Z M65.83,7.31 V14.63 H73.14 V7.31 H65.83 Z M87.77,7.31 V14.63 H95.09 V7.31 H87.77 Z M95.09,7.31 V14.63 H102.40 V7.31 H95.09 Z M131.66,7.31 V14.63 H138.97 V7.31 H131.66 Z M146.29,7.31 V14.63 H153.60 V7.31 H146.29 Z M168.23,7.31 V14.63 H175.54 V7.31 H168.23 Z M182.86,7.31 V14.63 H190.17 V7.31 H182.86 Z M197.49,7.31 V14.63 H204.80 V7.31 H197.49 Z M204.80,7.31 V14.63 H212.11 V7.31 H204.80 Z M212.11,7.31 V14.63 H219.43 V7.31 H212.11 Z M219.43,7.31 V14.63 H226.74 V7.31 H219.43 Z M226.74,7.31 V14.63 H234.06 V7.31 H226.74 Z M234.06,7.31 V14.63 H241.37 V7.31 H234.06 Z M241.37,7.31 V14.63 H248.69 V7.31 H241.37 Z M7.31,14.63 V21.94 H14.63 V14.63 H7.31 Z M51.20,14.63 V21.94 H58.51 V14.63 H51.20 Z M73.14,14.63 V21.94 H80.46 V14.63 H73.14 Z M80.46,14.63 V21.94 H87.77 V14.63 H80.46 Z M102.40,14.63 V21.94 H109.71 V14.63 H102.40 Z M124.34,14.63 V21.94 H131.66 V14.63 H124.34 Z M131.66,14.63 V21.94 H138.97 V14.63 H131.66 Z M146.29,14.63 V21.94 H153.60 V14.63 H146.29 Z M175.54,14.63 V21.94 H182.86 V14.63 H175.54 Z M197.49,14.63 V21.94 H204.80 V14.63 H197.49 Z M241.37,14.63 V21.94 H248.69 V14.63 H241.37 Z M7.31,21.94 V29.26 H14.63 V21.94 H7.31 Z M21.94,21.94 V29.26 H29.26 V21.94 H21.94 Z M29.26,21.94 V29.26 H36.57 V21.94 H29.26 Z M36.57,21.94 V29.26 H43.89 V21.94 H36.57 Z M51.20,21.94 V29.26 H58.51 V21.94 H51.20 Z M65.83,21.94 V29.26 H73.14 V21.94 H65.83 Z M73.14,21.94 V29.26 H80.46 V21.94 H73.14 Z M87.77,21.94 V29.26 H95.09 V21.94 H87.77 Z M117.03,21.94 V29.26 H124.34 V21.94 H117.03 Z M131.66,21.94 V29.26 H138.97 V21.94 H131.66 Z M138.97,21.94 V29.26 H146.29 V21.94 H138.97 Z M146.29,21.94 V29.26 H153.60 V21.94 H146.29 Z M153.60,21.94 V29.26 H160.91 V21.94 H153.60 Z M182.86,21.94 V29.26 H190.17 V21.94 H182.86 Z M197.49,21.94 V29.26 H204.80 V21.94 H197.49 Z M212.11,21.94 V29.26 H219.43 V21.94 H212.11 Z M219.43,21.94 V29.26 H226.74 V21.94 H219.43 Z M226.74,21.94 V29.26 H234.06 V21.94 H226.74 Z M241.37,21.94 V29.26 H248.69 V21.94 H241.37 Z M7.31,29.26 V36.57 H14.63 V29.26 H7.31 Z M21.94,29.26 V36.57 H29.26 V29.26 H21.94 Z M29.26,29.26 V36.57 H36.57 V29.26 H29.26 Z M36.57,29.26 V36.57 H43.89 V29.26 H36.57 Z M51.20,29.26 V36.57 H58.51 V29.26 H51.20 Z M73.14,29.26 V36.57 H80.46 V29.26 H73.14 Z M95.09,29.26 V36.57 H102.40 V29.26 H95.09 Z M124.34,29.26 V36.57 H131.66 V29.26 H124.34 Z M138.97,29.26 V36.57 H146.29 V29.26 H138.97 Z M146.29,29.26 V36.57 H153.60 V29.26 H146.29 Z M160.91,29.26 V36.57 H168.23 V29.26 H160.91 Z M182.86,29.26 V36.57 H190.17 V29.26 H182.86 Z M197.49,29.26 V36.57 H204.80 V29.26 H197.49 Z M212.11,29.26 V36.57 H219.43 V29.26 H212.11 Z M219.43,29.26 V36.57 H226.74 V29.26 H219.43 Z M226.74,29.26 V36.57 H234.06 V29.26 H226.74 Z M241.37,29.26 V36.57 H248.69 V29.26 H241.37 Z M7.31,36.57 V43.89 H14.63 V36.57 H7.31 Z M21.94,36.57 V43.89 H29.26 V36.57 H21.94 Z M29.26,36.57 V43.89 H36.57 V36.57 H29.26 Z M36.57,36.57 V43.89 H43.89 V36.57 H36.57 Z M51.20,36.57 V43.89 H58.51 V36.57 H51.20 Z M65.83,36.57 V43.89 H73.14 V36.57 H65.83 Z M73.14,36.57 V43.89 H80.46 V36.57 H73.14 Z M80.46,36.57 V43.89 H87.77 V36.57 H80.46 Z M95.09,36.57 V43.89 H102.40 V36.57 H95.09 Z M102.40,36.57 V43.89 H109.71 V36.57 H102.40 Z M109.71,36.57 V43.89 H117.03 V36.57 H109.71 Z M138.97,36.57 V43.89 H146.29 V36.57 H138.97 Z M146.29,36.57 V43.89 H153.60 V36.57 H146.29 Z M160.91,36.57 V43.89 H168.23 V36.57 H160.91 Z M168.23,36.57 V43.89 H175.54 V36.57 H168.23 Z M175.54,36.57 V43.89 H182.86 V36.57 H175.54 Z M197.49,36.57 V43.89 H204.80 V36.57 H197.49 Z M212.11,36.57 V43.89 H219.43 V36.57 H212.11 Z M219.43,36.57 V43.89 H226.74 V36.57 H219.43 Z M226.74,36.57 V43.89 H234.06 V36.57 H226.74 Z M241.37,36.57 V43.89 H248.69 V36.57 H241.37 Z M7.31,43.89 V51.20 H14.63 V43.89 H7.31 Z M51.20,43.89 V51.20 H58.51 V43.89 H51.20 Z M87.77,43.89 V51.20 H95.09 V43.89 H87.77 Z M95.09,43.89 V51.20 H102.40 V43.89 H95.09 Z M109.71,43.89 V51.20 H117.03 V43.89 H109.71 Z M117.03,43.89 V51.20 H124.34 V43.89 H117.03 Z M124.34,43.89 V51.20 H131.66 V43.89 H124.34 Z M131.66,43.89 V51.20 H138.97 V43.89 H131.66 Z M153.60,43.89 V51.20 H160.91 V43.89 H153.60 Z M175.54,43.89 V51.20 H182.86 V43.89 H175.54 Z M182.86,43.89 V51.20 H190.17 V43.89 H182.86 Z M197.49,43.89 V51.20 H204.80 V43.89 H197.49 Z M241.37,43.89 V51.20 H248.69 V43.89 H241.37 Z M7.31,51.20 V58.51 H14.63 V51.20 H7.31 Z M14.63,51.20 V58.51 H21.94 V51.20 H14.63 Z M21.94,51.20 V58.51 H29.26 V51.20 H21.94 Z M29.26,51.20 V58.51 H36.57 V51.20 H29.26 Z M36.57,51.20 V58.51 H43.89 V51.20 H36.57 Z M43.89,51.20 V58.51 H51.20 V51.20 H43.89 Z M51.20,51.20 V58.51 H58.51 V51.20 H51.20 Z M65.83,51.20 V58.51 H73.14 V51.20 H65.83 Z M80.46,51.20 V58.51 H87.77 V51.20 H80.46 Z M95.09,51.20 V58.51 H102.40 V51.20 H95.09 Z M109.71,51.20 V58.51 H117.03 V51.20 H109.71 Z M124.34,51.20 V58.51 H131.66 V51.20 H124.34 Z M138.97,51.20 V58.51 H146.29 V51.20 H138.97 Z M153.60,51.20 V58.51 H160.91 V51.20 H153.60 Z M168.23,51.20 V58.51 H175.54 V51.20 H168.23 Z M182.86,51.20 V58.51 H190.17 V51.20 H182.86 Z M197.49,51.20 V58.51 H204.80 V51.20 H197.49 Z M204.80,51.20 V58.51 H212.11 V51.20 H204.80 Z M212.11,51.20 V58.51 H219.43 V51.20 H212.11 Z M219.43,51.20 V58.51 H226.74 V51.20 H219.43 Z M226.74,51.20 V58.51 H234.06 V51.20 H226.74 Z M234.06,51.20 V58.51 H241.37 V51.20 H234.06 Z M241.37,51.20 V58.51 H248.69 V51.20 H241.37 Z M80.46,58.51 V65.83 H87.77 V58.51 H80.46 Z M87.77,58.51 V65.83 H95.09 V58.51 H87.77 Z M95.09,58.51 V65.83 H102.40 V58.51 H95.09 Z M109.71,58.51 V65.83 H117.03 V58.51 H109.71 Z M131.66,58.51 V65.83 H138.97 V58.51 H131.66 Z M146.29,58.51 V65.83 H153.60 V58.51 H146.29 Z M153.60,58.51 V65.83 H160.91 V58.51 H153.60 Z M175.54,58.51 V65.83 H182.86 V58.51 H175.54 Z M14.63,65.83 V73.14 H21.94 V65.83 H14.63 Z M36.57,65.83 V73.14 H43.89 V65.83 H36.57 Z M51.20,65.83 V73.14 H58.51 V65.83 H51.20 Z M73.14,65.83 V73.14 H80.46 V65.83 H73.14 Z M87.77,65.83 V73.14 H95.09 V65.83 H87.77 Z M124.34,65.83 V73.14 H131.66 V65.83 H124.34 Z M131.66,65.83 V73.14 H138.97 V65.83 H131.66 Z M138.97,65.83 V73.14 H146.29 V65.83 H138.97 Z M160.91,65.83 V73.14 H168.23 V65.83 H160.91 Z M168.23,65.83 V73.14 H175.54 V65.83 H168.23 Z M182.86,65.83 V73.14 H190.17 V65.83 H182.86 Z M190.17,65.83 V73.14 H197.49 V65.83 H190.17 Z M212.11,65.83 V73.14 H219.43 V65.83 H212.11 Z M226.74,65.83 V73.14 H234.06 V65.83 H226.74 Z M241.37,65.83 V73.14 H248.69 V65.83 H241.37 Z M36.57,73.14 V80.46 H43.89 V73.14 H36.57 Z M58.51,73.14 V80.46 H65.83 V73.14 H58.51 Z M65.83,73.14 V80.46 H73.14 V73.14 H65.83 Z M80.46,73.14 V80.46 H87.77 V73.14 H80.46 Z M109.71,73.14 V80.46 H117.03 V73.14 H109.71 Z M124.34,73.14 V80.46 H131.66 V73.14 H124.34 Z M160.91,73.14 V80.46 H168.23 V73.14 H160.91 Z M182.86,73.14 V80.46 H190.17 V73.14 H182.86 Z M197.49,73.14 V80.46 H204.80 V73.14 H197.49 Z M204.80,73.14 V80.46 H212.11 V73.14 H204.80 Z M212.11,73.14 V80.46 H219.43 V73.14 H212.11 Z M241.37,73.14 V80.46 H248.69 V73.14 H241.37 Z M14.63,80.46 V87.77 H21.94 V80.46 H14.63 Z M51.20,80.46 V87.77 H58.51 V80.46 H51.20 Z M73.14,80.46 V87.77 H80.46 V80.46 H73.14 Z M87.77,80.46 V87.77 H95.09 V80.46 H87.77 Z M95.09,80.46 V87.77 H102.40 V80.46 H95.09 Z M102.40,80.46 V87.77 H109.71 V80.46 H102.40 Z M131.66,80.46 V87.77 H138.97 V80.46 H131.66 Z M138.97,80.46 V87.77 H146.29 V80.46 H138.97 Z M153.60,80.46 V87.77 H160.91 V80.46 H153.60 Z M175.54,80.46 V87.77 H182.86 V80.46 H175.54 Z M182.86,80.46 V87.77 H190.17 V80.46 H182.86 Z M204.80,80.46 V87.77 H212.11 V80.46 H204.80 Z M212.11,80.46 V87.77 H219.43 V80.46 H212.11 Z M219.43,80.46 V87.77 H226.74 V80.46 H219.43 Z M226.74,80.46 V87.77 H234.06 V80.46 H226.74 Z M241.37,80.46 V87.77 H248.69 V80.46 H241.37 Z M14.63,87.77 V95.09 H21.94 V87.77 H14.63 Z M36.57,87.77 V95.09 H43.89 V87.77 H36.57 Z M43.89,87.77 V95.09 H51.20 V87.77 H43.89 Z M58.51,87.77 V95.09 H65.83 V87.77 H58.51 Z M65.83,87.77 V95.09 H73.14 V87.77 H65.83 Z M80.46,87.77 V95.09 H87.77 V87.77 H80.46 Z M87.77,87.77 V95.09 H95.09 V87.77 H87.77 Z M95.09,87.77 V95.09 H102.40 V87.77 H95.09 Z M102.40,87.77 V95.09 H109.71 V87.77 H102.40 Z M109.71,87.77 V95.09 H117.03 V87.77 H109.71 Z M131.66,87.77 V95.09 H138.97 V87.77 H131.66 Z M138.97,87.77 V95.09 H146.29 V87.77 H138.97 Z M153.60,87.77 V95.09 H160.91 V87.77 H153.60 Z M190.17,87.77 V95.09 H197.49 V87.77 H190.17 Z M212.11,87.77 V95.09 H219.43 V87.77 H212.11 Z M226.74,87.77 V95.09 H234.06 V87.77 H226.74 Z M21.94,95.09 V102.40 H29.26 V95.09 H21.94 Z M29.26,95.09 V102.40 H36.57 V95.09 H29.26 Z M36.57,95.09 V102.40 H43.89 V95.09 H36.57 Z M51.20,95.09 V102.40 H58.51 V95.09 H51.20 Z M65.83,95.09 V102.40 H73.14 V95.09 H65.83 Z M80.46,95.09 V102.40 H87.77 V95.09 H80.46 Z M87.77,95.09 V102.40 H95.09 V95.09 H87.77 Z M131.66,95.09 V102.40 H138.97 V95.09 H131.66 Z M146.29,95.09 V102.40 H153.60 V95.09 H146.29 Z M153.60,95.09 V102.40 H160.91 V95.09 H153.60 Z M160.91,95.09 V102.40 H168.23 V95.09 H160.91 Z M204.80,95.09 V102.40 H212.11 V95.09 H204.80 Z M219.43,95.09 V102.40 H226.74 V95.09 H219.43 Z M226.74,95.09 V102.40 H234.06 V95.09 H226.74 Z M234.06,95.09 V102.40 H241.37 V95.09 H234.06 Z M241.37,95.09 V102.40 H248.69 V95.09 H241.37 Z M14.63,102.40 V109.71 H21.94 V102.40 H14.63 Z M29.26,102.40 V109.71 H36.57 V102.40 H29.26 Z M36.57,102.40 V109.71 H43.89 V102.40 H36.57 Z M58.51,102.40 V109.71 H65.83 V102.40 H58.51 Z M65.83,102.40 V109.71 H73.14 V102.40 H65.83 Z M80.46,102.40 V109.71 H87.77 V102.40 H80.46 Z M102.40,102.40 V109.71 H109.71 V102.40 H102.40 Z M117.03,102.40 V109.71 H124.34 V102.40 H117.03 Z M131.66,102.40 V109.71 H138.97 V102.40 H131.66 Z M138.97,102.40 V109.71 H146.29 V102.40 H138.97 Z M153.60,102.40 V109.71 H160.91 V102.40 H153.60 Z M175.54,102.40 V109.71 H182.86 V102.40 H175.54 Z M197.49,102.40 V109.71 H204.80 V102.40 H197.49 Z M219.43,102.40 V109.71 H226.74 V102.40 H219.43 Z M226.74,102.40 V109.71 H234.06 V102.40 H226.74 Z M234.06,102.40 V109.71 H241.37 V102.40 H234.06 Z M241.37,102.40 V109.71 H248.69 V102.40 H241.37 Z M7.31,109.71 V117.03 H14.63 V109.71 H7.31 Z M43.89,109.71 V117.03 H51.20 V109.71 H43.89 Z M51.20,109.71 V117.03 H58.51 V109.71 H51.20 Z M109.71,109.71 V117.03 H117.03 V109.71 H109.71 Z M124.34,109.71 V117.03 H131.66 V109.71 H124.34 Z M153.60,109.71 V117.03 H160.91 V109.71 H153.60 Z M168.23,109.71 V117.03 H175.54 V109.71 H168.23 Z M182.86,109.71 V117.03 H190.17 V109.71 H182.86 Z M204.80,109.71 V117.03 H212.11 V109.71 H204.80 Z M234.06,109.71 V117.03 H241.37 V109.71 H234.06 Z M7.31,117.03 V124.34 H14.63 V117.03 H7.31 Z M14.63,117.03 V124.34 H21.94 V117.03 H14.63 Z M21.94,117.03 V124.34 H29.26 V117.03 H21.94 Z M29.26,117.03 V124.34 H36.57 V117.03 H29.26 Z M65.83,117.03 V124.34 H73.14 V117.03 H65.83 Z M87.77,117.03 V124.34 H95.09 V117.03 H87.77 Z M102.40,117.03 V124.34 H109.71 V117.03 H102.40 Z M117.03,117.03 V124.34 H124.34 V117.03 H117.03 Z M146.29,117.03 V124.34 H153.60 V117.03 H146.29 Z M153.60,117.03 V124.34 H160.91 V117.03 H153.60 Z M160.91,117.03 V124.34 H168.23 V117.03 H160.91 Z M168.23,117.03 V124.34 H175.54 V117.03 H168.23 Z M182.86,117.03 V124.34 H190.17 V117.03 H182.86 Z M212.11,117.03 V124.34 H219.43 V117.03 H212.11 Z M219.43,117.03 V124.34 H226.74 V117.03 H219.43 Z M234.06,117.03 V124.34 H241.37 V117.03 H234.06 Z M7.31,124.34 V131.66 H14.63 V124.34 H7.31 Z M21.94,124.34 V131.66 H29.26 V124.34 H21.94 Z M51.20,124.34 V131.66 H58.51 V124.34 H51.20 Z M58.51,124.34 V131.66 H65.83 V124.34 H58.51 Z M65.83,124.34 V131.66 H73.14 V124.34 H65.83 Z M73.14,124.34 V131.66 H80.46 V124.34 H73.14 Z M124.34,124.34 V131.66 H131.66 V124.34 H124.34 Z M131.66,124.34 V131.66 H138.97 V124.34 H131.66 Z M138.97,124.34 V131.66 H146.29 V124.34 H138.97 Z M146.29,124.34 V131.66 H153.60 V124.34 H146.29 Z M153.60,124.34 V131.66 H160.91 V124.34 H153.60 Z M160.91,124.34 V131.66 H168.23 V124.34 H160.91 Z M168.23,124.34 V131.66 H175.54 V124.34 H168.23 Z M175.54,124.34 V131.66 H182.86 V124.34 H175.54 Z M182.86,124.34 V131.66 H190.17 V124.34 H182.86 Z M190.17,124.34 V131.66 H197.49 V124.34 H190.17 Z M241.37,124.34 V131.66 H248.69 V124.34 H241.37 Z M14.63,131.66 V138.97 H21.94 V131.66 H14.63 Z M29.26,131.66 V138.97 H36.57 V131.66 H29.26 Z M36.57,131.66 V138.97 H43.89 V131.66 H36.57 Z M58.51,131.66 V138.97 H65.83 V131.66 H58.51 Z M65.83,131.66 V138.97 H73.14 V131.66 H65.83 Z M80.46,131.66 V138.97 H87.77 V131.66 H80.46 Z M117.03,131.66 V138.97 H124.34 V131.66 H117.03 Z M124.34,131.66 V138.97 H131.66 V131.66 H124.34 Z M131.66,131.66 V138.97 H138.97 V131.66 H131.66 Z M146.29,131.66 V138.97 H153.60 V131.66 H146.29 Z M160.91,131.66 V138.97 H168.23 V131.66 H160.91 Z M175.54,131.66 V138.97 H182.86 V131.66 H175.54 Z M182.86,131.66 V138.97 H190.17 V131.66 H182.86 Z M197.49,131.66 V138.97 H204.80 V131.66 H197.49 Z M219.43,131.66 V138.97 H226.74 V131.66 H219.43 Z M226.74,131.66 V138.97 H234.06 V131.66 H226.74 Z M234.06,131.66 V138.97 H241.37 V131.66 H234.06 Z M241.37,131.66 V138.97 H248.69 V131.66 H241.37 Z M7.31,138.97 V146.29 H14.63 V138.97 H7.31 Z M43.89,138.97 V146.29 H51.20 V138.97 H43.89 Z M51.20,138.97 V146.29 H58.51 V138.97 H51.20 Z M109.71,138.97 V146.29 H117.03 V138.97 H109.71 Z M138.97,138.97 V146.29 H146.29 V138.97 H138.97 Z M146.29,138.97 V146.29 H153.60 V138.97 H146.29 Z M153.60,138.97 V146.29 H160.91 V138.97 H153.60 Z M160.91,138.97 V146.29 H168.23 V138.97 H160.91 Z M168.23,138.97 V146.29 H175.54 V138.97 H168.23 Z M175.54,138.97 V146.29 H182.86 V138.97 H175.54 Z M226.74,138.97 V146.29 H234.06 V138.97 H226.74 Z M234.06,138.97 V146.29 H241.37 V138.97 H234.06 Z M7.31,146.29 V153.60 H14.63 V146.29 H7.31 Z M14.63,146.29 V153.60 H21.94 V146.29 H14.63 Z M65.83,146.29 V153.60 H73.14 V146.29 H65.83 Z M95.09,146.29 V153.60 H102.40 V146.29 H95.09 Z M102.40,146.29 V153.60 H109.71 V146.29 H102.40 Z M117.03,146.29 V153.60 H124.34 V146.29 H117.03 Z M153.60,146.29 V153.60 H160.91 V146.29 H153.60 Z M182.86,146.29 V153.60 H190.17 V146.29 H182.86 Z M204.80,146.29 V153.60 H212.11 V146.29 H204.80 Z M212.11,146.29 V153.60 H219.43 V146.29 H212.11 Z M241.37,146.29 V153.60 H248.69 V146.29 H241.37 Z M7.31,153.60 V160.91 H14.63 V153.60 H7.31 Z M14.63,153.60 V160.91 H21.94 V153.60 H14.63 Z M21.94,153.60 V160.91 H29.26 V153.60 H21.94 Z M51.20,153.60 V160.91 H58.51 V153.60 H51.20 Z M58.51,153.60 V160.91 H65.83 V153.60 H58.51 Z M65.83,153.60 V160.91 H73.14 V153.60 H65.83 Z M73.14,153.60 V160.91 H80.46 V153.60 H73.14 Z M95.09,153.60 V160.91 H102.40 V153.60 H95.09 Z M117.03,153.60 V160.91 H124.34 V153.60 H117.03 Z M124.34,153.60 V160.91 H131.66 V153.60 H124.34 Z M131.66,153.60 V160.91 H138.97 V153.60 H131.66 Z M138.97,153.60 V160.91 H146.29 V153.60 H138.97 Z M146.29,153.60 V160.91 H153.60 V153.60 H146.29 Z M153.60,153.60 V160.91 H160.91 V153.60 H153.60 Z M160.91,153.60 V160.91 H168.23 V153.60 H160.91 Z M168.23,153.60 V160.91 H175.54 V153.60 H168.23 Z M175.54,153.60 V160.91 H182.86 V153.60 H175.54 Z M182.86,153.60 V160.91 H190.17 V153.60 H182.86 Z M190.17,153.60 V160.91 H197.49 V153.60 H190.17 Z M212.11,153.60 V160.91 H219.43 V153.60 H212.11 Z M219.43,153.60 V160.91 H226.74 V153.60 H219.43 Z M234.06,153.60 V160.91 H241.37 V153.60 H234.06 Z M241.37,153.60 V160.91 H248.69 V153.60 H241.37 Z M7.31,160.91 V168.23 H14.63 V160.91 H7.31 Z M36.57,160.91 V168.23 H43.89 V160.91 H36.57 Z M43.89,160.91 V168.23 H51.20 V160.91 H43.89 Z M58.51,160.91 V168.23 H65.83 V160.91 H58.51 Z M65.83,160.91 V168.23 H73.14 V160.91 H65.83 Z M87.77,160.91 V168.23 H95.09 V160.91 H87.77 Z M95.09,160.91 V168.23 H102.40 V160.91 H95.09 Z M102.40,160.91 V168.23 H109.71 V160.91 H102.40 Z M117.03,160.91 V168.23 H124.34 V160.91 H117.03 Z M124.34,160.91 V168.23 H131.66 V160.91 H124.34 Z M131.66,160.91 V168.23 H138.97 V160.91 H131.66 Z M146.29,160.91 V168.23 H153.60 V160.91 H146.29 Z M153.60,160.91 V168.23 H160.91 V160.91 H153.60 Z M175.54,160.91 V168.23 H182.86 V160.91 H175.54 Z M182.86,160.91 V168.23 H190.17 V160.91 H182.86 Z M197.49,160.91 V168.23 H204.80 V160.91 H197.49 Z M204.80,160.91 V168.23 H212.11 V160.91 H204.80 Z M212.11,160.91 V168.23 H219.43 V160.91 H212.11 Z M219.43,160.91 V168.23 H226.74 V160.91 H219.43 Z M226.74,160.91 V168.23 H234.06 V160.91 H226.74 Z M234.06,160.91 V168.23 H241.37 V160.91 H234.06 Z M241.37,160.91 V168.23 H248.69 V160.91 H241.37 Z M7.31,168.23 V175.54 H14.63 V168.23 H7.31 Z M14.63,168.23 V175.54 H21.94 V168.23 H14.63 Z M29.26,168.23 V175.54 H36.57 V168.23 H29.26 Z M36.57,168.23 V175.54 H43.89 V168.23 H36.57 Z M51.20,168.23 V175.54 H58.51 V168.23 H51.20 Z M87.77,168.23 V175.54 H95.09 V168.23 H87.77 Z M117.03,168.23 V175.54 H124.34 V168.23 H117.03 Z M138.97,168.23 V175.54 H146.29 V168.23 H138.97 Z M146.29,168.23 V175.54 H153.60 V168.23 H146.29 Z M190.17,168.23 V175.54 H197.49 V168.23 H190.17 Z M197.49,168.23 V175.54 H204.80 V168.23 H197.49 Z M204.80,168.23 V175.54 H212.11 V168.23 H204.80 Z M226.74,168.23 V175.54 H234.06 V168.23 H226.74 Z M234.06,168.23 V175.54 H241.37 V168.23 H234.06 Z M7.31,175.54 V182.86 H14.63 V175.54 H7.31 Z M14.63,175.54 V182.86 H21.94 V175.54 H14.63 Z M21.94,175.54 V182.86 H29.26 V175.54 H21.94 Z M36.57,175.54 V182.86 H43.89 V175.54 H36.57 Z M43.89,175.54 V182.86 H51.20 V175.54 H43.89 Z M58.51,175.54 V182.86 H65.83 V175.54 H58.51 Z M65.83,175.54 V182.86 H73.14 V175.54 H65.83 Z M87.77,175.54 V182.86 H95.09 V175.54 H87.77 Z M95.09,175.54 V182.86 H102.40 V175.54 H95.09 Z M117.03,175.54 V182.86 H124.34 V175.54 H117.03 Z M124.34,175.54 V182.86 H131.66 V175.54 H124.34 Z M153.60,175.54 V182.86 H160.91 V175.54 H153.60 Z M175.54,175.54 V182.86 H182.86 V175.54 H175.54 Z M190.17,175.54 V182.86 H197.49 V175.54 H190.17 Z M197.49,175.54 V182.86 H204.80 V175.54 H197.49 Z M234.06,175.54 V182.86 H241.37 V175.54 H234.06 Z M241.37,175.54 V182.86 H248.69 V175.54 H241.37 Z M43.89,182.86 V190.17 H51.20 V182.86 H43.89 Z M51.20,182.86 V190.17 H58.51 V182.86 H51.20 Z M65.83,182.86 V190.17 H73.14 V182.86 H65.83 Z M95.09,182.86 V190.17 H102.40 V182.86 H95.09 Z M102.40,182.86 V190.17 H109.71 V182.86 H102.40 Z M109.71,182.86 V190.17 H117.03 V182.86 H109.71 Z M124.34,182.86 V190.17 H131.66 V182.86 H124.34 Z M131.66,182.86 V190.17 H138.97 V182.86 H131.66 Z M153.60,182.86 V190.17 H160.91 V182.86 H153.60 Z M160.91,182.86 V190.17 H168.23 V182.86 H160.91 Z M182.86,182.86 V190.17 H190.17 V182.86 H182.86 Z M190.17,182.86 V190.17 H197.49 V182.86 H190.17 Z M197.49,182.86 V190.17 H204.80 V182.86 H197.49 Z M204.80,182.86 V190.17 H212.11 V182.86 H204.80 Z M212.11,182.86 V190.17 H219.43 V182.86 H212.11 Z M234.06,182.86 V190.17 H241.37 V182.86 H234.06 Z M241.37,182.86 V190.17 H248.69 V182.86 H241.37 Z M73.14,190.17 V197.49 H80.46 V190.17 H73.14 Z M95.09,190.17 V197.49 H102.40 V190.17 H95.09 Z M109.71,190.17 V197.49 H117.03 V190.17 H109.71 Z M124.34,190.17 V197.49 H131.66 V190.17 H124.34 Z M138.97,190.17 V197.49 H146.29 V190.17 H138.97 Z M153.60,190.17 V197.49 H160.91 V190.17 H153.60 Z M160.91,190.17 V197.49 H168.23 V190.17 H160.91 Z M168.23,190.17 V197.49 H175.54 V190.17 H168.23 Z M182.86,190.17 V197.49 H190.17 V190.17 H182.86 Z M212.11,190.17 V197.49 H219.43 V190.17 H212.11 Z M234.06,190.17 V197.49 H241.37 V190.17 H234.06 Z M7.31,197.49 V204.80 H14.63 V197.49 H7.31 Z M14.63,197.49 V204.80 H21.94 V197.49 H14.63 Z M21.94,197.49 V204.80 H29.26 V197.49 H21.94 Z M29.26,197.49 V204.80 H36.57 V197.49 H29.26 Z M36.57,197.49 V204.80 H43.89 V197.49 H36.57 Z M43.89,197.49 V204.80 H51.20 V197.49 H43.89 Z M51.20,197.49 V204.80 H58.51 V197.49 H51.20 Z M73.14,197.49 V204.80 H80.46 V197.49 H73.14 Z M80.46,197.49 V204.80 H87.77 V197.49 H80.46 Z M95.09,197.49 V204.80 H102.40 V197.49 H95.09 Z M102.40,197.49 V204.80 H109.71 V197.49 H102.40 Z M117.03,197.49 V204.80 H124.34 V197.49 H117.03 Z M124.34,197.49 V204.80 H131.66 V197.49 H124.34 Z M131.66,197.49 V204.80 H138.97 V197.49 H131.66 Z M138.97,197.49 V204.80 H146.29 V197.49 H138.97 Z M153.60,197.49 V204.80 H160.91 V197.49 H153.60 Z M160.91,197.49 V204.80 H168.23 V197.49 H160.91 Z M168.23,197.49 V204.80 H175.54 V197.49 H168.23 Z M175.54,197.49 V204.80 H182.86 V197.49 H175.54 Z M182.86,197.49 V204.80 H190.17 V197.49 H182.86 Z M197.49,197.49 V204.80 H204.80 V197.49 H197.49 Z M212.11,197.49 V204.80 H219.43 V197.49 H212.11 Z M234.06,197.49 V204.80 H241.37 V197.49 H234.06 Z M241.37,197.49 V204.80 H248.69 V197.49 H241.37 Z M7.31,204.80 V212.11 H14.63 V204.80 H7.31 Z M51.20,204.80 V212.11 H58.51 V204.80 H51.20 Z M73.14,204.80 V212.11 H80.46 V204.80 H73.14 Z M80.46,204.80 V212.11 H87.77 V204.80 H80.46 Z M131.66,204.80 V212.11 H138.97 V204.80 H131.66 Z M146.29,204.80 V212.11 H153.60 V204.80 H146.29 Z M168.23,204.80 V212.11 H175.54 V204.80 H168.23 Z M182.86,204.80 V212.11 H190.17 V204.80 H182.86 Z M212.11,204.80 V212.11 H219.43 V204.80 H212.11 Z M7.31,212.11 V219.43 H14.63 V212.11 H7.31 Z M21.94,212.11 V219.43 H29.26 V212.11 H21.94 Z M29.26,212.11 V219.43 H36.57 V212.11 H29.26 Z M36.57,212.11 V219.43 H43.89 V212.11 H36.57 Z M51.20,212.11 V219.43 H58.51 V212.11 H51.20 Z M65.83,212.11 V219.43 H73.14 V212.11 H65.83 Z M87.77,212.11 V219.43 H95.09 V212.11 H87.77 Z M117.03,212.11 V219.43 H124.34 V212.11 H117.03 Z M146.29,212.11 V219.43 H153.60 V212.11 H146.29 Z M175.54,212.11 V219.43 H182.86 V212.11 H175.54 Z M182.86,212.11 V219.43 H190.17 V212.11 H182.86 Z M190.17,212.11 V219.43 H197.49 V212.11 H190.17 Z M197.49,212.11 V219.43 H204.80 V212.11 H197.49 Z M204.80,212.11 V219.43 H212.11 V212.11 H204.80 Z M212.11,212.11 V219.43 H219.43 V212.11 H212.11 Z M219.43,212.11 V219.43 H226.74 V212.11 H219.43 Z M226.74,212.11 V219.43 H234.06 V212.11 H226.74 Z M234.06,212.11 V219.43 H241.37 V212.11 H234.06 Z M241.37,212.11 V219.43 H248.69 V212.11 H241.37 Z M7.31,219.43 V226.74 H14.63 V219.43 H7.31 Z M21.94,219.43 V226.74 H29.26 V219.43 H21.94 Z M29.26,219.43 V226.74 H36.57 V219.43 H29.26 Z M36.57,219.43 V226.74 H43.89 V219.43 H36.57 Z M51.20,219.43 V226.74 H58.51 V219.43 H51.20 Z M95.09,219.43 V226.74 H102.40 V219.43 H95.09 Z M102.40,219.43 V226.74 H109.71 V219.43 H102.40 Z M109.71,219.43 V226.74 H117.03 V219.43 H109.71 Z M124.34,219.43 V226.74 H131.66 V219.43 H124.34 Z M153.60,219.43 V226.74 H160.91 V219.43 H153.60 Z M160.91,219.43 V226.74 H168.23 V219.43 H160.91 Z M168.23,219.43 V226.74 H175.54 V219.43 H168.23 Z M190.17,219.43 V226.74 H197.49 V219.43 H190.17 Z M212.11,219.43 V226.74 H219.43 V219.43 H212.11 Z M226.74,219.43 V226.74 H234.06 V219.43 H226.74 Z M241.37,219.43 V226.74 H248.69 V219.43 H241.37 Z M7.31,226.74 V234.06 H14.63 V226.74 H7.31 Z M21.94,226.74 V234.06 H29.26 V226.74 H21.94 Z M29.26,226.74 V234.06 H36.57 V226.74 H29.26 Z M36.57,226.74 V234.06 H43.89 V226.74 H36.57 Z M51.20,226.74 V234.06 H58.51 V226.74 H51.20 Z M80.46,226.74 V234.06 H87.77 V226.74 H80.46 Z M102.40,226.74 V234.06 H109.71 V226.74 H102.40 Z M109.71,226.74 V234.06 H117.03 V226.74 H109.71 Z M138.97,226.74 V234.06 H146.29 V226.74 H138.97 Z M197.49,226.74 V234.06 H204.80 V226.74 H197.49 Z M219.43,226.74 V234.06 H226.74 V226.74 H219.43 Z M241.37,226.74 V234.06 H248.69 V226.74 H241.37 Z M7.31,234.06 V241.37 H14.63 V234.06 H7.31 Z M51.20,234.06 V241.37 H58.51 V234.06 H51.20 Z M65.83,234.06 V241.37 H73.14 V234.06 H65.83 Z M73.14,234.06 V241.37 H80.46 V234.06 H73.14 Z M80.46,234.06 V241.37 H87.77 V234.06 H80.46 Z M95.09,234.06 V241.37 H102.40 V234.06 H95.09 Z M109.71,234.06 V241.37 H117.03 V234.06 H109.71 Z M117.03,234.06 V241.37 H124.34 V234.06 H117.03 Z M131.66,234.06 V241.37 H138.97 V234.06 H131.66 Z M160.91,234.06 V241.37 H168.23 V234.06 H160.91 Z M168.23,234.06 V241.37 H175.54 V234.06 H168.23 Z M190.17,234.06 V241.37 H197.49 V234.06 H190.17 Z M197.49,234.06 V241.37 H204.80 V234.06 H197.49 Z M204.80,234.06 V241.37 H212.11 V234.06 H204.80 Z M212.11,234.06 V241.37 H219.43 V234.06 H212.11 Z M234.06,234.06 V241.37 H241.37 V234.06 H234.06 Z M241.37,234.06 V241.37 H248.69 V234.06 H241.37 Z M7.31,241.37 V248.69 H14.63 V241.37 H7.31 Z M14.63,241.37 V248.69 H21.94 V241.37 H14.63 Z M21.94,241.37 V248.69 H29.26 V241.37 H21.94 Z M29.26,241.37 V248.69 H36.57 V241.37 H29.26 Z M36.57,241.37 V248.69 H43.89 V241.37 H36.57 Z M43.89,241.37 V248.69 H51.20 V241.37 H43.89 Z M51.20,241.37 V248.69 H58.51 V241.37 H51.20 Z M80.46,241.37 V248.69 H87.77 V241.37 H80.46 Z M87.77,241.37 V248.69 H95.09 V241.37 H87.77 Z M102.40,241.37 V248.69 H109.71 V241.37 H102.40 Z M109.71,241.37 V248.69 H117.03 V241.37 H109.71 Z M131.66,241.37 V248.69 H138.97 V241.37 H131.66 Z M138.97,241.37 V248.69 H146.29 V241.37 H138.97 Z M160.91,241.37 V248.69 H168.23 V241.37 H160.91 Z M168.23,241.37 V248.69 H175.54 V241.37 H168.23 Z M175.54,241.37 V248.69 H182.86 V241.37 H175.54 Z M182.86,241.37 V248.69 H190.17 V241.37 H182.86 Z M190.17,241.37 V248.69 H197.49 V241.37 H190.17 Z M197.49,241.37 V248.69 H204.80 V241.37 H197.49 Z M204.80,241.37 V248.69 H212.11 V241.37 H204.80 Z M212.11,241.37 V248.69 H219.43 V241.37 H212.11 Z M219.43,241.37 V248.69 H226.74 V241.37 H219.43 Z M226.74,241.37 V248.69 H234.06 V241.37 H226.74 Z M241.37,241.37 V248.69 H248.69 V241.37 H241.37 Z " /></svg>