<?xml version="1.0" standalone="yes"?>
<svg xmlns="http://www.w3.org/2000/svg" version="1.1" viewBox="0 0 256 256">
  <rect x="0" y="0" width="256" height="256" style="fill:#FFFFFF;shape-rendering:crispEdges;"/>
  <path x="0" y="0" style="fill:#333;shape-rendering:crispEdges;" d="M6.56,6.56 V13.13 H13.13 V6.56 H6.56 Z M13.13,6.56 V13.13 H19.69 V6.56 H13.13 Z M19.69,6.56 V13.13 H26.26 V6.56 H19.69 Z M26.26,6.56 V13.13 H32.82 V6.56 H26.26 Z M32.82,6.56 V13.13 H39.38 V6.56 H32.82 Z M39.38,6.56 V13.13 H45.95 V6.56 H39.38 Z M45.95,6.56 V13.13 H52.51 V6.56 H45.95 Z M59.08,6.56 V13.13 H65.64 V6.56 H59.08 Z M65.64,6.56 V13.13 H72.21 V6.56 H65.64 Z M72.21,6.56 V13.13 H78.77 V6.56 H72.21 Z M85.33,6.56 V13.13 H91.90 V6.56 H85.33 Z M111.59,6.56 V13.13 H118.15 V6.56 H111.59 Z M118.15,6.56 V13.13 H124.72 V6.56 H118.15 Z M131.28,6.56 V13.13 H137.85 V6.56 H131.28 Z M137.85,6.56 V13.13 H144.41 V6.56 H137.85 Z M157.54,6.56 V13.13 H164.10 V6.56 H157.54 Z M170.67,6.56 V13.13 H177.23 V6.56 H170.67 Z M177.23,6.56 V13.13 H183.79 V6.56 H177.23 Z M183.79,6.56 V13.13 H190.36 V6.56 H183.79 Z M190.36,6.56 V13.13 H196.92 V6.56 H190.36 Z M203.49,6.56 V13.13 H210.05 V6.56 H203.49 Z M210.05,6.56 V13.13 H216.62 V6.56 H210.05 Z M216.62,6.56 V13.13 H223.18 V6.56 H216.62 Z M223.18,6.56 V13.13 H229.74 V6.56 H223.18 Z M229.74,6.56 V13.13 H236.31 V6.56 H229.74 Z M236.31,6.56 V13.13 H242.87 V6.56 H236.31 Z M242.87,6.56 V13.13 H249.44 V6.56 H242.87 Z M6.56,13.13 V19.69 H13.13 V13.13 H6.56 Z M45.95,13.13 V19.69 H52.51 V13.13 H45.95 Z M72.21,13.13 V19.69 H78.77 V13.13 H72.21 Z M91.90,13.13 V19.69 H98.46 V13.13 H91.90 Z M105.03,13.13 V19.69 H111.59 V13.13 H105.03 Z M124.72,13.13 V19.69 H131.28 V13.13 H124.72 Z M131.28,13.13 V19.69 H137.85 V13.13 H131.28 Z M144.41,13.13 V19.69 H150.97 V13.13 H144.41 Z M157.54,13.13 V19.69 H164.10 V13.13 H157.54 Z M203.49,13.13 V19.69 H210.05 V13.13 H203.49 Z M242.87,13.13 V19.69 H249.44 V13.13 H242.87 Z M6.56,19.69 V26.26 H13.13 V19.69 H6.56 Z M19.69,19.69 V26.26 H26.26 V19.69 H19.69 Z M26.26,19.69 V26.26 H32.82 V19.69 H26.26 Z M32.82,19.69 V26.26 H39.38 V19.69 H32.82 Z M45.95,19.69 V26.26 H52.51 V19.69 H45.95 Z M59.08,19.69 V26.26 H65.64 V19.69 H59.08 Z M85.33,19.69 V26.26 H91.90 V19.69 H85.33 Z M98.46,19.69 V26.26 H105.03 V19.69 H98.46 Z M105.03,19.69 V26.26 H111.59 V19.69 H105.03 Z M124.72,19.69 V26.26 H131.28 V19.69 H124.72 Z M131.28,19.69 V26.26 H137.85 V19.69 H131.28 Z M144.41,19.69 V26.26 H150.97 V19.69 H144.41 Z M150.97,19.69 V26.26 H157.54 V19.69 H150.97 Z M157.54,19.69 V26.26 H164.10 V19.69 H157.54 Z M177.23,19.69 V26.26 H183.79 V19.69 H177.23 Z M183.79,19.69 V26.26 H190.36 V19.69 H183.79 Z M203.49,19.69 V26.26 H210.05 V19.69 H203.49 Z M216.62,19.69 V26.26 H223.18 V19.69 H216.62 Z M223.18,19.69 V26.26 H229.74 V19.69 H223.18 Z M229.74,19.69 V26.26 H236.31 V19.69 H229.74 Z M242.87,19.69 V26.26 H249.44 V19.69 H242.87 Z M6.56,26.26 V32.82 H13.13 V26.26 H6.56 Z M19.69,26.26 V32.82 H26.26 V26.26 H19.69 Z M26.26,26.26 V32.82 H32.82 V26.26 H26.26 Z M32.82,26.26 V32.82 H39.38 V26.26 H32.82 Z M45.95,26.26 V32.82 H52.51 V26.26 H45.95 Z M59.08,26.26 V32.82 H65.64 V26.26 H59.08 Z M65.64,26.26 V32.82 H72.21 V26.26 H65.64 Z M78.77,26.26 V32.82 H85.33 V26.26 H78.77 Z M98.46,26.26 V32.82 H105.03 V26.26 H98.46 Z M118.15,26.26 V32.82 H124.72 V26.26 H118.15 Z M131.28,26.26 V32.82 H137.85 V26.26 H131.28 Z M137.85,26.26 V32.82 H144.41 V26.26 H137.85 Z M144.41,26.26 V32.82 H150.97 V26.26 H144.41 Z M150.97,26.26 V32.82 H157.54 V26.26 H150.97 Z M157.54,26.26 V32.82 H164.10 V26.26 H157.54 Z M170.67,26.26 V32.82 H177.23 V26.26 H170.67 Z M183.79,26.26 V32.82 H190.36 V26.26 H183.79 Z M190.36,26.26 V32.82 H196.92 V26.26 H190.36 Z M203.49,26.26 V32.82 H210.05 V26.26 H203.49 Z M216.62,26.26 V32.82 H223.18 V26.26 H216.62 Z M223.18,26.26 V32.82 H229.74 V26.26 H223.18 Z M229.74,26.26 V32.82 H236.31 V26.26 H229.74 Z M242.87,26.26 V32.82 H249.44 V26.26 H242.87 Z M6.56,32.82 V39.38 H13.13 V32.82 H6.56 Z M19.69,32.82 V39.38 H26.26 V32.82 H19.69 Z M26.26,32.82 V39.38 H32.82 V32.82 H26.26 Z M32.82,32.82 V39.38 H39.38 V32.82 H32.82 Z M45.95,32.82 V39.38 H52.51 V32.82 H45.95 Z M59.08,32.82 V39.38 H65.64 V32.82 H59.08 Z M65.64,32.82 V39.38 H72.21 V32.82 H65.64 Z M72.21,32.82 V39.38 H78.77 V32.82 H72.21 Z M85.33,32.82 V39.38 H91.90 V32.82 H85.33 Z M91.90,32.82 V39.38 H98.46 V32.82 H91.90 Z M98.46,32.82 V39.38 H105.03 V32.82 H98.46 Z M111.59,32.82 V39.38 H118.15 V32.82 H111.59 Z M118.15,32.82 V39.38 H124.72 V32.82 H118.15 Z M144.41,32.82 V39.38 H150.97 V32.82 H144.41 Z M164.10,32.82 V39.38 H170.67 V32.82 H164.10 Z M177.23,32.82 V39.38 H183.79 V32.82 H177.23 Z M183.79,32.82 V39.38 H190.36 V32.82 H183.79 Z M190.36,32.82 V39.38 H196.92 V32.82 H190.36 Z M203.49,32.82 V39.38 H210.05 V32.82 H203.49 Z M216.62,32.82 V39.38 H223.18 V32.82 H216.62 Z M223.18,32.82 V39.38 H229.74 V32.82 H223.18 Z M229.74,32.82 V39.38 H236.31 V32.82 H229.74 Z M242.87,32.82 V39.38 H249.44 V32.82 H242.87 Z M6.56,39.38 V45.95 H13.13 V39.38 H6.56 Z M45.95,39.38 V45.95 H52.51 V39.38 H45.95 Z M59.08,39.38 V45.95 H65.64 V39.38 H59.08 Z M72.21,39.38 V45.95 H78.77 V39.38 H72.21 Z M78.77,39.38 V45.95 H85.33 V39.38 H78.77 Z M85.33,39.38 V45.95 H91.90 V39.38 H85.33 Z M91.90,39.38 V45.95 H98.46 V39.38 H91.90 Z M98.46,39.38 V45.95 H105.03 V39.38 H98.46 Z M111.59,39.38 V45.95 H118.15 V39.38 H111.59 Z M118.15,39.38 V45.95 H124.72 V39.38 H118.15 Z M137.85,39.38 V45.95 H144.41 V39.38 H137.85 Z M144.41,39.38 V45.95 H150.97 V39.38 H144.41 Z M150.97,39.38 V45.95 H157.54 V39.38 H150.97 Z M170.67,39.38 V45.95 H177.23 V39.38 H170.67 Z M177.23,39.38 V45.95 H183.79 V39.38 H177.23 Z M203.49,39.38 V45.95 H210.05 V39.38 H203.49 Z M242.87,39.38 V45.95 H249.44 V39.38 H242.87 Z M6.56,45.95 V52.51 H13.13 V45.95 H6.56 Z M13.13,45.95 V52.51 H19.69 V45.95 H13.13 Z M19.69,45.95 V52.51 H26.26 V45.95 H19.69 Z M26.26,45.95 V52.51 H32.82 V45.95 H26.26 Z M32.82,45.95 V52.51 H39.38 V45.95 H32.82 Z M39.38,45.95 V52.51 H45.95 V45.95 H39.38 Z M45.95,45.95 V52.51 H52.51 V45.95 H45.95 Z M59.08,45.95 V52.51 H65.64 V45.95 H59.08 Z M72.21,45.95 V52.51 H78.77 V45.95 H72.21 Z M85.33,45.95 V52.51 H91.90 V45.95 H85.33 Z M98.46,45.95 V52.51 H105.03 V45.95 H98.46 Z M111.59,45.95 V52.51 H118.15 V45.95 H111.59 Z M124.72,45.95 V52.51 H131.28 V45.95 H124.72 Z M137.85,45.95 V52.51 H144.41 V45.95 H137.85 Z M150.97,45.95 V52.51 H157.54 V45.95 H150.97 Z M164.10,45.95 V52.51 H170.67 V45.95 H164.10 Z M177.23,45.95 V52.51 H183.79 V45.95 H177.23 Z M190.36,45.95 V52.51 H196.92 V45.95 H190.36 Z M203.49,45.95 V52.51 H210.05 V45.95 H203.49 Z M210.05,45.95 V52.51 H216.62 V45.95 H210.05 Z M216.62,45.95 V52.51 H223.18 V45.95 H216.62 Z M223.18,45.95 V52.51 H229.74 V45.95 H223.18 Z M229.74,45.95 V52.51 H236.31 V45.95 H229.74 Z M236.31,45.95 V52.51 H242.87 V45.95 H236.31 Z M242.87,45.95 V52.51 H249.44 V45.95 H242.87 Z M65.64,52.51 V59.08 H72.21 V52.51 H65.64 Z M85.33,52.51 V59.08 H91.90 V52.51 H85.33 Z M91.90,52.51 V59.08 H98.46 V52.51 H91.90 Z M105.03,52.51 V59.08 H111.59 V52.51 H105.03 Z M111.59,52.51 V59.08 H118.15 V52.51 H111.59 Z M118.15,52.51 V59.08 H124.72 V52.51 H118.15 Z M124.72,52.51 V59.08 H131.28 V52.51 H124.72 Z M137.85,52.51 V59.08 H144.41 V52.51 H137.85 Z M144.41,52.51 V59.08 H150.97 V52.51 H144.41 Z M150.97,52.51 V59.08 H157.54 V52.51 H150.97 Z M164.10,52.51 V59.08 H170.67 V52.51 H164.10 Z M177.23,52.51 V59.08 H183.79 V52.51 H177.23 Z M183.79,52.51 V59.08 H190.36 V52.51 H183.79 Z M190.36,52.51 V59.08 H196.92 V52.51 H190.36 Z M19.69,59.08 V65.64 H26.26 V59.08 H19.69 Z M26.26,59.08 V65.64 H32.82 V59.08 H26.26 Z M32.82,59.08 V65.64 H39.38 V59.08 H32.82 Z M39.38,59.08 V65.64 H45.95 V59.08 H39.38 Z M45.95,59.08 V65.64 H52.51 V59.08 H45.95 Z M52.51,59.08 V65.64 H59.08 V59.08 H52.51 Z M65.64,59.08 V65.64 H72.21 V59.08 H65.64 Z M72.21,59.08 V65.64 H78.77 V59.08 H72.21 Z M85.33,59.08 V65.64 H91.90 V59.08 H85.33 Z M98.46,59.08 V65.64 H105.03 V59.08 H98.46 Z M105.03,59.08 V65.64 H111.59 V59.08 H105.03 Z M111.59,59.08 V65.64 H118.15 V59.08 H111.59 Z M118.15,59.08 V65.64 H124.72 V59.08 H118.15 Z M131.28,59.08 V65.64 H137.85 V59.08 H131.28 Z M137.85,59.08 V65.64 H144.41 V59.08 H137.85 Z M157.54,59.08 V65.64 H164.10 V59.08 H157.54 Z M164.10,59.08 V65.64 H170.67 V59.08 H164.10 Z M177.23,59.08 V65.64 H183.79 V59.08 H177.23 Z M183.79,59.08 V65.64 H190.36 V59.08 H183.79 Z M196.92,59.08 V65.64 H203.49 V59.08 H196.92 Z M210.05,59.08 V65.64 H216.62 V59.08 H210.05 Z M216.62,59.08 V65.64 H223.18 V59.08 H216.62 Z M223.18,59.08 V65.64 H229.74 V59.08 H223.18 Z M229.74,59.08 V65.64 H236.31 V59.08 H229.74 Z M242.87,59.08 V65.64 H249.44 V59.08 H242.87 Z M6.56,65.64 V72.21 H13.13 V65.64 H6.56 Z M19.69,65.64 V72.21 H26.26 V65.64 H19.69 Z M26.26,65.64 V72.21 H32.82 V65.64 H26.26 Z M32.82,65.64 V72.21 H39.38 V65.64 H32.82 Z M39.38,65.64 V72.21 H45.95 V65.64 H39.38 Z M78.77,65.64 V72.21 H85.33 V65.64 H78.77 Z M85.33,65.64 V72.21 H91.90 V65.64 H85.33 Z M91.90,65.64 V72.21 H98.46 V65.64 H91.90 Z M98.46,65.64 V72.21 H105.03 V65.64 H98.46 Z M111.59,65.64 V72.21 H118.15 V65.64 H111.59 Z M118.15,65.64 V72.21 H124.72 V65.64 H118.15 Z M124.72,65.64 V72.21 H131.28 V65.64 H124.72 Z M131.28,65.64 V72.21 H137.85 V65.64 H131.28 Z M137.85,65.64 V72.21 H144.41 V65.64 H137.85 Z M150.97,65.64 V72.21 H157.54 V65.64 H150.97 Z M177.23,65.64 V72.21 H183.79 V65.64 H177.23 Z M190.36,65.64 V72.21 H196.92 V65.64 H190.36 Z M210.05,65.64 V72.21 H216.62 V65.64 H210.05 Z M216.62,65.64 V72.21 H223.18 V65.64 H216.62 Z M229.74,65.64 V72.21 H236.31 V65.64 H229.74 Z M236.31,65.64 V72.21 H242.87 V65.64 H236.31 Z M242.87,65.64 V72.21 H249.44 V65.64 H242.87 Z M13.13,72.21 V78.77 H19.69 V72.21 H13.13 Z M19.69,72.21 V78.77 H26.26 V72.21 H19.69 Z M26.26,72.21 V78.77 H32.82 V72.21 H26.26 Z M45.95,72.21 V78.77 H52.51 V72.21 H45.95 Z M52.51,72.21 V78.77 H59.08 V72.21 H52.51 Z M65.64,72.21 V78.77 H72.21 V72.21 H65.64 Z M72.21,72.21 V78.77 H78.77 V72.21 H72.21 Z M85.33,72.21 V78.77 H91.90 V72.21 H85.33 Z M105.03,72.21 V78.77 H111.59 V72.21 H105.03 Z M111.59,72.21 V78.77 H118.15 V72.21 H111.59 Z M118.15,72.21 V78.77 H124.72 V72.21 H118.15 Z M131.28,72.21 V78.77 H137.85 V72.21 H131.28 Z M137.85,72.21 V78.77 H144.41 V72.21 H137.85 Z M177.23,72.21 V78.77 H183.79 V72.21 H177.23 Z M183.79,72.21 V78.77 H190.36 V72.21 H183.79 Z M203.49,72.21 V78.77 H210.05 V72.21 H203.49 Z M210.05,72.21 V78.77 H216.62 V72.21 H210.05 Z M229.74,72.21 V78.77 H236.31 V72.21 H229.74 Z M6.56,78.77 V85.33 H13.13 V78.77 H6.56 Z M59.08,78.77 V85.33 H65.64 V78.77 H59.08 Z M72.21,78.77 V85.33 H78.77 V78.77 H72.21 Z M85.33,78.77 V85.33 H91.90 V78.77 H85.33 Z M91.90,78.77 V85.33 H98.46 V78.77 H91.90 Z M118.15,78.77 V85.33 H124.72 V78.77 H118.15 Z M131.28,78.77 V85.33 H137.85 V78.77 H131.28 Z M137.85,78.77 V85.33 H144.41 V78.77 H137.85 Z M157.54,78.77 V85.33 H164.10 V78.77 H157.54 Z M170.67,78.77 V85.33 H177.23 V78.77 H170.67 Z M190.36,78.77 V85.33 H196.92 V78.77 H190.36 Z M210.05,78.77 V85.33 H216.62 V78.77 H210.05 Z M216.62,78.77 V85.33 H223.18 V78.77 H216.62 Z M229.74,78.77 V85.33 H236.31 V78.77 H229.74 Z M236.31,78.77 V85.33 H242.87 V78.77 H236.31 Z M6.56,85.33 V91.90 H13.13 V85.33 H6.56 Z M13.13,85.33 V91.90 H19.69 V85.33 H13.13 Z M19.69,85.33 V91.90 H26.26 V85.33 H19.69 Z M32.82,85.33 V91.90 H39.38 V85.33 H32.82 Z M45.95,85.33 V91.90 H52.51 V85.33 H45.95 Z M78.77,85.33 V91.90 H85.33 V85.33 H78.77 Z M85.33,85.33 V91.90 H91.90 V85.33 H85.33 Z M91.90,85.33 V91.90 H98.46 V85.33 H91.90 Z M144.41,85.33 V91.90 H150.97 V85.33 H144.41 Z M177.23,85.33 V91.90 H183.79 V85.33 H177.23 Z M183.79,85.33 V91.90 H190.36 V85.33 H183.79 Z M190.36,85.33 V91.90 H196.92 V85.33 H190.36 Z M196.92,85.33 V91.90 H203.49 V85.33 H196.92 Z M203.49,85.33 V91.90 H210.05 V85.33 H203.49 Z M223.18,85.33 V91.90 H229.74 V85.33 H223.18 Z M26.26,91.90 V98.46 H32.82 V91.90 H26.26 Z M39.38,91.90 V98.46 H45.95 V91.90 H39.38 Z M78.77,91.90 V98.46 H85.33 V91.90 H78.77 Z M85.33,91.90 V98.46 H91.90 V91.90 H85.33 Z M91.90,91.90 V98.46 H98.46 V91.90 H91.90 Z M111.59,91.90 V98.46 H118.15 V91.90 H111.59 Z M124.72,91.90 V98.46 H131.28 V91.90 H124.72 Z M131.28,91.90 V98.46 H137.85 V91.90 H131.28 Z M137.85,91.90 V98.46 H144.41 V91.90 H137.85 Z M144.41,91.90 V98.46 H150.97 V91.90 H144.41 Z M150.97,91.90 V98.46 H157.54 V91.90 H150.97 Z M157.54,91.90 V98.46 H164.10 V91.90 H157.54 Z M164.10,91.90 V98.46 H170.67 V91.90 H164.10 Z M170.67,91.90 V98.46 H177.23 V91.90 H170.67 Z M177.23,91.90 V98.46 H183.79 V91.90 H177.23 Z M196.92,91.90 V98.46 H203.49 V91.90 H196.92 Z M229.74,91.90 V98.46 H236.31 V91.90 H229.74 Z M6.56,98.46 V105.03 H13.13 V98.46 H6.56 Z M45.95,98.46 V105.03 H52.51 V98.46 H45.95 Z M72.21,98.46 V105.03 H78.77 V98.46 H72.21 Z M98.46,98.46 V105.03 H105.03 V98.46 H98.46 Z M118.15,98.46 V105.03 H124.72 V98.46 H118.15 Z M124.72,98.46 V105.03 H131.28 V98.46 H124.72 Z M131.28,98.46 V105.03 H137.85 V98.46 H131.28 Z M150.97,98.46 V105.03 H157.54 V98.46 H150.97 Z M157.54,98.46 V105.03 H164.10 V98.46 H157.54 Z M170.67,98.46 V105.03 H177.23 V98.46 H170.67 Z M177.23,98.46 V105.03 H183.79 V98.46 H177.23 Z M183.79,98.46 V105.03 H190.36 V98.46 H183.79 Z M196.92,98.46 V105.03 H203.49 V98.46 H196.92 Z M236.31,98.46 V105.03 H242.87 V98.46 H236.31 Z M242.87,98.46 V105.03 H249.44 V98.46 H242.87 Z M13.13,105.03 V111.59 H19.69 V105.03 H13.13 Z M32.82,105.03 V111.59 H39.38 V105.03 H32.82 Z M39.38,105.03 V111.59 H45.95 V105.03 H39.38 Z M59.08,105.03 V111.59 H65.64 V105.03 H59.08 Z M65.64,105.03 V111.59 H72.21 V105.03 H65.64 Z M72.21,105.03 V111.59 H78.77 V105.03 H72.21 Z M78.77,105.03 V111.59 H85.33 V105.03 H78.77 Z M85.33,105.03 V111.59 H91.90 V105.03 H85.33 Z M98.46,105.03 V111.59 H105.03 V105.03 H98.46 Z M111.59,105.03 V111.59 H118.15 V105.03 H111.59 Z M118.15,105.03 V111.59 H124.72 V105.03 H118.15 Z M150.97,105.03 V111.59 H157.54 V105.03 H150.97 Z M164.10,105.03 V111.59 H170.67 V105.03 H164.10 Z M170.67,105.03 V111.59 H177.23 V105.03 H170.67 Z M177.23,105.03 V111.59 H183.79 V105.03 H177.23 Z M183.79,105.03 V111.59 H190.36 V105.03 H183.79 Z M190.36,105.03 V111.59 H196.92 V105.03 H190.36 Z M196.92,105.03 V111.59 H203.49 V105.03 H196.92 Z M203.49,105.03 V111.59 H210.05 V105.03 H203.49 Z M210.05,105.03 V111.59 H216.62 V105.03 H210.05 Z M216.62,105.03 V111.59 H223.18 V105.03 H216.62 Z M223.18,105.03 V111.59 H229.74 V105.03 H223.18 Z M6.56,111.59 V118.15 H13.13 V111.59 H6.56 Z M19.69,111.59 V118.15 H26.26 V111.59 H19.69 Z M32.82,111.59 V118.15 H39.38 V111.59 H32.82 Z M45.95,111.59 V118.15 H52.51 V111.59 H45.95 Z M52.51,111.59 V118.15 H59.08 V111.59 H52.51 Z M59.08,111.59 V118.15 H65.64 V111.59 H59.08 Z M72.21,111.59 V118.15 H78.77 V111.59 H72.21 Z M98.46,111.59 V118.15 H105.03 V111.59 H98.46 Z M118.15,111.59 V118.15 H124.72 V111.59 H118.15 Z M131.28,111.59 V118.15 H137.85 V111.59 H131.28 Z M137.85,111.59 V118.15 H144.41 V111.59 H137.85 Z M150.97,111.59 V118.15 H157.54 V111.59 H150.97 Z M164.10,111.59 V118.15 H170.67 V111.59 H164.10 Z M177.23,111.59 V118.15 H183.79 V111.59 H177.23 Z M196.92,111.59 V118.15 H203.49 V111.59 H196.92 Z M203.49,111.59 V118.15 H210.05 V111.59 H203.49 Z M210.05,111.59 V118.15 H216.62 V111.59 H210.05 Z M223.18,111.59 V118.15 H229.74 V111.59 H223.18 Z M236.31,111.59 V118.15 H242.87 V111.59 H236.31 Z M26.26,118.15 V124.72 H32.82 V118.15 H26.26 Z M32.82,118.15 V124.72 H39.38 V118.15 H32.82 Z M39.38,118.15 V124.72 H45.95 V118.15 H39.38 Z M52.51,118.15 V124.72 H59.08 V118.15 H52.51 Z M85.33,118.15 V124.72 H91.90 V118.15 H85.33 Z M124.72,118.15 V124.72 H131.28 V118.15 H124.72 Z M137.85,118.15 V124.72 H144.41 V118.15 H137.85 Z M144.41,118.15 V124.72 H150.97 V118.15 H144.41 Z M150.97,118.15 V124.72 H157.54 V118.15 H150.97 Z M157.54,118.15 V124.72 H164.10 V118.15 H157.54 Z M170.67,118.15 V124.72 H177.23 V118.15 H170.67 Z M177.23,118.15 V124.72 H183.79 V118.15 H177.23 Z M190.36,118.15 V124.72 H196.92 V118.15 H190.36 Z M223.18,118.15 V124.72 H229.74 V118.15 H223.18 Z M242.87,118.15 V124.72 H249.44 V118.15 H242.87 Z M19.69,124.72 V131.28 H26.26 V124.72 H19.69 Z M32.82,124.72 V131.28 H39.38 V124.72 H32.82 Z M45.95,124.72 V131.28 H52.51 V124.72 H45.95 Z M52.51,124.72 V131.28 H59.08 V124.72 H52.51 Z M65.64,124.72 V131.28 H72.21 V124.72 H65.64 Z M72.21,124.72 V131.28 H78.77 V124.72 H72.21 Z M98.46,124.72 V131.28 H105.03 V124.72 H98.46 Z M111.59,124.72 V131.28 H118.15 V124.72 H111.59 Z M124.72,124.72 V131.28 H131.28 V124.72 H124.72 Z M144.41,124.72 V131.28 H150.97 V124.72 H144.41 Z M157.54,124.72 V131.28 H164.10 V124.72 H157.54 Z M170.67,124.72 V131.28 H177.23 V124.72 H170.67 Z M196.92,124.72 V131.28 H203.49 V124.72 H196.92 Z M203.49,124.72 V131.28 H210.05 V124.72 H203.49 Z M216.62,124.72 V131.28 H223.18 V124.72 H216.62 Z M229.74,124.72 V131.28 H236.31 V124.72 H229.74 Z M236.31,124.72 V131.28 H242.87 V124.72 H236.31 Z M242.87,124.72 V131.28 H249.44 V124.72 H242.87 Z M52.51,131.28 V137.85 H59.08 V131.28 H52.51 Z M59.08,131.28 V137.85 H65.64 V131.28 H59.08 Z M72.21,131.28 V137.85 H78.77 V131.28 H72.21 Z M78.77,131.28 V137.85 H85.33 V131.28 H78.77 Z M85.33,131.28 V137.85 H91.90 V131.28 H85.33 Z M91.90,131.28 V137.85 H98.46 V131.28 H91.90 Z M111.59,131.28 V137.85 H118.15 V131.28 H111.59 Z M144.41,131.28 V137.85 H150.97 V131.28 H144.41 Z M157.54,131.28 V137.85 H164.10 V131.28 H157.54 Z M177.23,131.28 V137.85 H183.79 V131.28 H177.23 Z M183.79,131.28 V137.85 H190.36 V131.28 H183.79 Z M190.36,131.28 V137.85 H196.92 V131.28 H190.36 Z M196.92,131.28 V137.85 H203.49 V131.28 H196.92 Z M210.05,131.28 V137.85 H216.62 V131.28 H210.05 Z M216.62,131.28 V137.85 H223.18 V131.28 H216.62 Z M13.13,137.85 V144.41 H19.69 V137.85 H13.13 Z M26.26,137.85 V144.41 H32.82 V137.85 H26.26 Z M32.82,137.85 V144.41 H39.38 V137.85 H32.82 Z M39.38,137.85 V144.41 H45.95 V137.85 H39.38 Z M45.95,137.85 V144.41 H52.51 V137.85 H45.95 Z M52.51,137.85 V144.41 H59.08 V137.85 H52.51 Z M65.64,137.85 V144.41 H72.21 V137.85 H65.64 Z M78.77,137.85 V144.41 H85.33 V137.85 H78.77 Z M98.46,137.85 V144.41 H105.03 V137.85 H98.46 Z M111.59,137.85 V144.41 H118.15 V137.85 H111.59 Z M124.72,137.85 V144.41 H131.28 V137.85 H124.72 Z M144.41,137.85 V144.41 H150.97 V137.85 H144.41 Z M157.54,137.85 V144.41 H164.10 V137.85 H157.54 Z M170.67,137.85 V144.41 H177.23 V137.85 H170.67 Z M183.79,137.85 V144.41 H190.36 V137.85 H183.79 Z M196.92,137.85 V144.41 H203.49 V137.85 H196.92 Z M210.05,137.85 V144.41 H216.62 V137.85 H210.05 Z M216.62,137.85 V144.41 H223.18 V137.85 H216.62 Z M229.74,137.85 V144.41 H236.31 V137.85 H229.74 Z M6.56,144.41 V150.97 H13.13 V144.41 H6.56 Z M19.69,144.41 V150.97 H26.26 V144.41 H19.69 Z M32.82,144.41 V150.97 H39.38 V144.41 H32.82 Z M39.38,144.41 V150.97 H45.95 V144.41 H39.38 Z M52.51,144.41 V150.97 H59.08 V144.41 H52.51 Z M59.08,144.41 V150.97 H65.64 V144.41 H59.08 Z M78.77,144.41 V150.97 H85.33 V144.41 H78.77 Z M111.59,144.41 V150.97 H118.15 V144.41 H111.59 Z M124.72,144.41 V150.97 H131.28 V144.41 H124.72 Z M131.28,144.41 V150.97 H137.85 V144.41 H131.28 Z M144.41,144.41 V150.97 H150.97 V144.41 H144.41 Z M150.97,144.41 V150.97 H157.54 V144.41 H150.97 Z M157.54,144.41 V150.97 H164.10 V144.41 H157.54 Z M164.10,144.41 V150.97 H170.67 V144.41 H164.10 Z M170.67,144.41 V150.97 H177.23 V144.41 H170.67 Z M177.23,144.41 V150.97 H183.79 V144.41 H177.23 Z M183.79,144.41 V150.97 H190.36 V144.41 H183.79 Z M216.62,144.41 V150.97 H223.18 V144.41 H216.62 Z M223.18,144.41 V150.97 H229.74 V144.41 H223.18 Z M236.31,144.41 V150.97 H242.87 V144.41 H236.31 Z M19.69,150.97 V157.54 H26.26 V150.97 H19.69 Z M26.26,150.97 V157.54 H32.82 V150.97 H26.26 Z M45.95,150.97 V157.54 H52.51 V150.97 H45.95 Z M52.51,150.97 V157.54 H59.08 V150.97 H52.51 Z M65.64,150.97 V157.54 H72.21 V150.97 H65.64 Z M78.77,150.97 V157.54 H85.33 V150.97 H78.77 Z M85.33,150.97 V157.54 H91.90 V150.97 H85.33 Z M98.46,150.97 V157.54 H105.03 V150.97 H98.46 Z M111.59,150.97 V157.54 H118.15 V150.97 H111.59 Z M124.72,150.97 V157.54 H131.28 V150.97 H124.72 Z M137.85,150.97 V157.54 H144.41 V150.97 H137.85 Z M157.54,150.97 V157.54 H164.10 V150.97 H157.54 Z M170.67,150.97 V157.54 H177.23 V150.97 H170.67 Z M183.79,150.97 V157.54 H190.36 V150.97 H183.79 Z M190.36,150.97 V157.54 H196.92 V150.97 H190.36 Z M203.49,150.97 V157.54 H210.05 V150.97 H203.49 Z M216.62,150.97 V157.54 H223.18 V150.97 H216.62 Z M13.13,157.54 V164.10 H19.69 V157.54 H13.13 Z M19.69,157.54 V164.10 H26.26 V157.54 H19.69 Z M26.26,157.54 V164.10 H32.82 V157.54 H26.26 Z M32.82,157.54 V164.10 H39.38 V157.54 H32.82 Z M91.90,157.54 V164.10 H98.46 V157.54 H91.90 Z M111.59,157.54 V164.10 H118.15 V157.54 H111.59 Z M124.72,157.54 V164.10 H131.28 V157.54 H124.72 Z M131.28,157.54 V164.10 H137.85 V157.54 H131.28 Z M137.85,157.54 V164.10 H144.41 V157.54 H137.85 Z M144.41,157.54 V164.10 H150.97 V157.54 H144.41 Z M157.54,157.54 V164.10 H164.10 V157.54 H157.54 Z M164.10,157.54 V164.10 H170.67 V157.54 H164.10 Z M196.92,157.54 V164.10 H203.49 V157.54 H196.92 Z M216.62,157.54 V164.10 H223.18 V157.54 H216.62 Z M229.74,157.54 V164.10 H236.31 V157.54 H229.74 Z M236.31,157.54 V164.10 H242.87 V157.54 H236.31 Z M242.87,157.54 V164.10 H249.44 V157.54 H242.87 Z M13.13,164.10 V170.67 H19.69 V164.10 H13.13 Z M26.26,164.10 V170.67 H32.82 V164.10 H26.26 Z M45.95,164.10 V170.67 H52.51 V164.10 H45.95 Z M52.51,164.10 V170.67 H59.08 V164.10 H52.51 Z M65.64,164.10 V170.67 H72.21 V164.10 H65.64 Z M78.77,164.10 V170.67 H85.33 V164.10 H78.77 Z M85.33,164.10 V170.67 H91.90 V164.10 H85.33 Z M98.46,164.10 V170.67 H105.03 V164.10 H98.46 Z M105.03,164.10 V170.67 H111.59 V164.10 H105.03 Z M111.59,164.10 V170.67 H118.15 V164.10 H111.59 Z M124.72,164.10 V170.67 H131.28 V164.10 H124.72 Z M137.85,164.10 V170.67 H144.41 V164.10 H137.85 Z M150.97,164.10 V170.67 H157.54 V164.10 H150.97 Z M170.67,164.10 V170.67 H177.23 V164.10 H170.67 Z M183.79,164.10 V170.67 H190.36 V164.10 H183.79 Z M190.36,164.10 V170.67 H196.92 V164.10 H190.36 Z M196.92,164.10 V170.67 H203.49 V164.10 H196.92 Z M210.05,164.10 V170.67 H216.62 V164.10 H210.05 Z M216.62,164.10 V170.67 H223.18 V164.10 H216.62 Z M229.74,164.10 V170.67 H236.31 V164.10 H229.74 Z M242.87,164.10 V170.67 H249.44 V164.10 H242.87 Z M6.56,170.67 V177.23 H13.13 V170.67 H6.56 Z M26.26,170.67 V177.23 H32.82 V170.67 H26.26 Z M39.38,170.67 V177.23 H45.95 V170.67 H39.38 Z M59.08,170.67 V177.23 H65.64 V170.67 H59.08 Z M72.21,170.67 V177.23 H78.77 V170.67 H72.21 Z M85.33,170.67 V177.23 H91.90 V170.67 H85.33 Z M98.46,170.67 V177.23 H105.03 V170.67 H98.46 Z M111.59,170.67 V177.23 H118.15 V170.67 H111.59 Z M118.15,170.67 V177.23 H124.72 V170.67 H118.15 Z M137.85,170.67 V177.23 H144.41 V170.67 H137.85 Z M150.97,170.67 V177.23 H157.54 V170.67 H150.97 Z M170.67,170.67 V177.23 H177.23 V170.67 H170.67 Z M177.23,170.67 V177.23 H183.79 V170.67 H177.23 Z M190.36,170.67 V177.23 H196.92 V170.67 H190.36 Z M203.49,170.67 V177.23 H210.05 V170.67 H203.49 Z M223.18,170.67 V177.23 H229.74 V170.67 H223.18 Z M229.74,170.67 V177.23 H236.31 V170.67 H229.74 Z M242.87,170.67 V177.23 H249.44 V170.67 H242.87 Z M6.56,177.23 V183.79 H13.13 V177.23 H6.56 Z M13.13,177.23 V183.79 H19.69 V177.23 H13.13 Z M26.26,177.23 V183.79 H32.82 V177.23 H26.26 Z M32.82,177.23 V183.79 H39.38 V177.23 H32.82 Z M45.95,177.23 V183.79 H52.51 V177.23 H45.95 Z M52.51,177.23 V183.79 H59.08 V177.23 H52.51 Z M65.64,177.23 V183.79 H72.21 V177.23 H65.64 Z M78.77,177.23 V183.79 H85.33 V177.23 H78.77 Z M85.33,177.23 V183.79 H91.90 V177.23 H85.33 Z M98.46,177.23 V183.79 H105.03 V177.23 H98.46 Z M118.15,177.23 V183.79 H124.72 V177.23 H118.15 Z M131.28,177.23 V183.79 H137.85 V177.23 H131.28 Z M137.85,177.23 V183.79 H144.41 V177.23 H137.85 Z M157.54,177.23 V183.79 H164.10 V177.23 H157.54 Z M164.10,177.23 V183.79 H170.67 V177.23 H164.10 Z M170.67,177.23 V183.79 H177.23 V177.23 H170.67 Z M177.23,177.23 V183.79 H183.79 V177.23 H177.23 Z M190.36,177.23 V183.79 H196.92 V177.23 H190.36 Z M210.05,177.23 V183.79 H216.62 V177.23 H210.05 Z M236.31,177.23 V183.79 H242.87 V177.23 H236.31 Z M242.87,177.23 V183.79 H249.44 V177.23 H242.87 Z M6.56,183.79 V190.36 H13.13 V183.79 H6.56 Z M13.13,183.79 V190.36 H19.69 V183.79 H13.13 Z M26.26,183.79 V190.36 H32.82 V183.79 H26.26 Z M39.38,183.79 V190.36 H45.95 V183.79 H39.38 Z M52.51,183.79 V190.36 H59.08 V183.79 H52.51 Z M59.08,183.79 V190.36 H65.64 V183.79 H59.08 Z M65.64,183.79 V190.36 H72.21 V183.79 H65.64 Z M72.21,183.79 V190.36 H78.77 V183.79 H72.21 Z M98.46,183.79 V190.36 H105.03 V183.79 H98.46 Z M105.03,183.79 V190.36 H111.59 V183.79 H105.03 Z M118.15,183.79 V190.36 H124.72 V183.79 H118.15 Z M124.72,183.79 V190.36 H131.28 V183.79 H124.72 Z M137.85,183.79 V190.36 H144.41 V183.79 H137.85 Z M150.97,183.79 V190.36 H157.54 V183.79 H150.97 Z M170.67,183.79 V190.36 H177.23 V183.79 H170.67 Z M177.23,183.79 V190.36 H183.79 V183.79 H177.23 Z M183.79,183.79 V190.36 H190.36 V183.79 H183.79 Z M190.36,183.79 V190.36 H196.92 V183.79 H190.36 Z M196.92,183.79 V190.36 H203.49 V183.79 H196.92 Z M210.05,183.79 V190.36 H216.62 V183.79 H210.05 Z M216.62,183.79 V190.36 H223.18 V183.79 H216.62 Z M229.74,183.79 V190.36 H236.31 V183.79 H229.74 Z M236.31,183.79 V190.36 H242.87 V183.79 H236.31 Z M6.56,190.36 V196.92 H13.13 V190.36 H6.56 Z M32.82,190.36 V196.92 H39.38 V190.36 H32.82 Z M39.38,190.36 V196.92 H45.95 V190.36 H39.38 Z M45.95,190.36 V196.92 H52.51 V190.36 H45.95 Z M52.51,190.36 V196.92 H59.08 V190.36 H52.51 Z M59.08,190.36 V196.92 H65.64 V190.36 H59.08 Z M65.64,190.36 V196.92 H72.21 V190.36 H65.64 Z M72.21,190.36 V196.92 H78.77 V190.36 H72.21 Z M78.77,190.36 V196.92 H85.33 V190.36 H78.77 Z M91.90,190.36 V196.92 H98.46 V190.36 H91.90 Z M111.59,190.36 V196.92 H118.15 V190.36 H111.59 Z M118.15,190.36 V196.92 H124.72 V190.36 H118.15 Z M124.72,190.36 V196.92 H131.28 V190.36 H124.72 Z M144.41,190.36 V196.92 H150.97 V190.36 H144.41 Z M157.54,190.36 V196.92 H164.10 V190.36 H157.54 Z M170.67,190.36 V196.92 H177.23 V190.36 H170.67 Z M177.23,190.36 V196.92 H183.79 V190.36 H177.23 Z M190.36,190.36 V196.92 H196.92 V190.36 H190.36 Z M196.92,190.36 V196.92 H203.49 V190.36 H196.92 Z M203.49,190.36 V196.92 H210.05 V190.36 H203.49 Z M210.05,190.36 V196.92 H216.62 V190.36 H210.05 Z M216.62,190.36 V196.92 H223.18 V190.36 H216.62 Z M229.74,190.36 V196.92 H236.31 V190.36 H229.74 Z M65.64,196.92 V203.49 H72.21 V196.92 H65.64 Z M72.21,196.92 V203.49 H78.77 V196.92 H72.21 Z M78.77,196.92 V203.49 H85.33 V196.92 H78.77 Z M85.33,196.92 V203.49 H91.90 V196.92 H85.33 Z M98.46,196.92 V203.49 H105.03 V196.92 H98.46 Z M111.59,196.92 V203.49 H118.15 V196.92 H111.59 Z M118.15,196.92 V203.49 H124.72 V196.92 H118.15 Z M131.28,196.92 V203.49 H137.85 V196.92 H131.28 Z M137.85,196.92 V203.49 H144.41 V196.92 H137.85 Z M150.97,196.92 V203.49 H157.54 V196.92 H150.97 Z M157.54,196.92 V203.49 H164.10 V196.92 H157.54 Z M164.10,196.92 V203.49 H170.67 V196.92 H164.10 Z M170.67,196.92 V203.49 H177.23 V196.92 H170.67 Z M183.79,196.92 V203.49 H190.36 V196.92 H183.79 Z M190.36,196.92 V203.49 H196.92 V196.92 H190.36 Z M216.62,196.92 V203.49 H223.18 V196.92 H216.62 Z M223.18,196.92 V203.49 H229.74 V196.92 H223.18 Z M242.87,196.92 V203.49 H249.44 V196.92 H242.87 Z M6.56,203.49 V210.05 H13.13 V203.49 H6.56 Z M13.13,203.49 V210.05 H19.69 V203.49 H13.13 Z M19.69,203.49 V210.05 H26.26 V203.49 H19.69 Z M26.26,203.49 V210.05 H32.82 V203.49 H26.26 Z M32.82,203.49 V210.05 H39.38 V203.49 H32.82 Z M39.38,203.49 V210.05 H45.95 V203.49 H39.38 Z M45.95,203.49 V210.05 H52.51 V203.49 H45.95 Z M59.08,203.49 V210.05 H65.64 V203.49 H59.08 Z M72.21,203.49 V210.05 H78.77 V203.49 H72.21 Z M85.33,203.49 V210.05 H91.90 V203.49 H85.33 Z M98.46,203.49 V210.05 H105.03 V203.49 H98.46 Z M105.03,203.49 V210.05 H111.59 V203.49 H105.03 Z M111.59,203.49 V210.05 H118.15 V203.49 H111.59 Z M118.15,203.49 V210.05 H124.72 V203.49 H118.15 Z M131.28,203.49 V210.05 H137.85 V203.49 H131.28 Z M137.85,203.49 V210.05 H144.41 V203.49 H137.85 Z M164.10,203.49 V210.05 H170.67 V203.49 H164.10 Z M170.67,203.49 V210.05 H177.23 V203.49 H170.67 Z M190.36,203.49 V210.05 H196.92 V203.49 H190.36 Z M203.49,203.49 V210.05 H210.05 V203.49 H203.49 Z M216.62,203.49 V210.05 H223.18 V203.49 H216.62 Z M223.18,203.49 V210.05 H229.74 V203.49 H223.18 Z M236.31,203.49 V210.05 H242.87 V203.49 H236.31 Z M6.56,210.05 V216.62 H13.13 V210.05 H6.56 Z M45.95,210.05 V216.62 H52.51 V210.05 H45.95 Z M59.08,210.05 V216.62 H65.64 V210.05 H59.08 Z M72.21,210.05 V216.62 H78.77 V210.05 H72.21 Z M85.33,210.05 V216.62 H91.90 V210.05 H85.33 Z M91.90,210.05 V216.62 H98.46 V210.05 H91.90 Z M98.46,210.05 V216.62 H105.03 V210.05 H98.46 Z M105.03,210.05 V216.62 H111.59 V210.05 H105.03 Z M118.15,210.05 V216.62 H124.72 V210.05 H118.15 Z M124.72,210.05 V216.62 H131.28 V210.05 H124.72 Z M131.28,210.05 V216.62 H137.85 V210.05 H131.28 Z M150.97,210.05 V216.62 H157.54 V210.05 H150.97 Z M157.54,210.05 V216.62 H164.10 V210.05 H157.54 Z M177.23,210.05 V216.62 H183.79 V210.05 H177.23 Z M190.36,210.05 V216.62 H196.92 V210.05 H190.36 Z M216.62,210.05 V216.62 H223.18 V210.05 H216.62 Z M6.56,216.62 V223.18 H13.13 V216.62 H6.56 Z M19.69,216.62 V223.18 H26.26 V216.62 H19.69 Z M26.26,216.62 V223.18 H32.82 V216.62 H26.26 Z M32.82,216.62 V223.18 H39.38 V216.62 H32.82 Z M45.95,216.62 V223.18 H52.51 V216.62 H45.95 Z M59.08,216.62 V223.18 H65.64 V216.62 H59.08 Z M85.33,216.62 V223.18 H91.90 V216.62 H85.33 Z M98.46,216.62 V223.18 H105.03 V216.62 H98.46 Z M105.03,216.62 V223.18 H111.59 V216.62 H105.03 Z M137.85,216.62 V223.18 H144.41 V216.62 H137.85 Z M150.97,216.62 V223.18 H157.54 V216.62 H150.97 Z M157.54,216.62 V223.18 H164.10 V216.62 H157.54 Z M164.10,216.62 V223.18 H170.67 V216.62 H164.10 Z M177.23,216.62 V223.18 H183.79 V216.62 H177.23 Z M190.36,216.62 V223.18 H196.92 V216.62 H190.36 Z M196.92,216.62 V223.18 H203.49 V216.62 H196.92 Z M203.49,216.62 V223.18 H210.05 V216.62 H203.49 Z M210.05,216.62 V223.18 H216.62 V216.62 H210.05 Z M216.62,216.62 V223.18 H223.18 V216.62 H216.62 Z M223.18,216.62 V223.18 H229.74 V216.62 H223.18 Z M236.31,216.62 V223.18 H242.87 V216.62 H236.31 Z M242.87,216.62 V223.18 H249.44 V216.62 H242.87 Z M6.56,223.18 V229.74 H13.13 V223.18 H6.56 Z M19.69,223.18 V229.74 H26.26 V223.18 H19.69 Z M26.26,223.18 V229.74 H32.82 V223.18 H26.26 Z M32.82,223.18 V229.74 H39.38 V223.18 H32.82 Z M45.95,223.18 V229.74 H52.51 V223.18 H45.95 Z M59.08,223.18 V229.74 H65.64 V223.18 H59.08 Z M65.64,223.18 V229.74 H72.21 V223.18 H65.64 Z M85.33,223.18 V229.74 H91.90 V223.18 H85.33 Z M98.46,223.18 V229.74 H105.03 V223.18 H98.46 Z M124.72,223.18 V229.74 H131.28 V223.18 H124.72 Z M131.28,223.18 V229.74 H137.85 V223.18 H131.28 Z M137.85,223.18 V229.74 H144.41 V223.18 H137.85 Z M144.41,223.18 V229.74 H150.97 V223.18 H144.41 Z M150.97,223.18 V229.74 H157.54 V223.18 H150.97 Z M190.36,223.18 V229.74 H196.92 V223.18 H190.36 Z M196.92,223.18 V229.74 H203.49 V223.18 H196.92 Z M210.05,223.18 V229.74 H216.62 V223.18 H210.05 Z M223.18,223.18 V229.74 H229.74 V223.18 H223.18 Z M236.31,223.18 V229.74 H242.87 V223.18 H236.31 Z M6.56,229.74 V236.31 H13.13 V229.74 H6.56 Z M19.69,229.74 V236.31 H26.26 V229.74 H19.69 Z M26.26,229.74 V236.31 H32.82 V229.74 H26.26 Z M32.82,229.74 V236.31 H39.38 V229.74 H32.82 Z M45.95,229.74 V236.31 H52.51 V229.74 H45.95 Z M59.08,229.74 V236.31 H65.64 V229.74 H59.08 Z M65.64,229.74 V236.31 H72.21 V229.74 H65.64 Z M85.33,229.74 V236.31 H91.90 V229.74 H85.33 Z M111.59,229.74 V236.31 H118.15 V229.74 H111.59 Z M118.15,229.74 V236.31 H124.72 V229.74 H118.15 Z M137.85,229.74 V236.31 H144.41 V229.74 H137.85 Z M164.10,229.74 V236.31 H170.67 V229.74 H164.10 Z M203.49,229.74 V236.31 H210.05 V229.74 H203.49 Z M216.62,229.74 V236.31 H223.18 V229.74 H216.62 Z M229.74,229.74 V236.31 H236.31 V229.74 H229.74 Z M242.87,229.74 V236.31 H249.44 V229.74 H242.87 Z M6.56,236.31 V242.87 H13.13 V236.31 H6.56 Z M45.95,236.31 V242.87 H52.51 V236.31 H45.95 Z M65.64,236.31 V242.87 H72.21 V236.31 H65.64 Z M72.21,236.31 V242.87 H78.77 V236.31 H72.21 Z M85.33,236.31 V242.87 H91.90 V236.31 H85.33 Z M91.90,236.31 V242.87 H98.46 V236.31 H91.90 Z M98.46,236.31 V242.87 H105.03 V236.31 H98.46 Z M111.59,236.31 V242.87 H118.15 V236.31 H111.59 Z M118.15,236.31 V242.87 H124.72 V236.31 H118.15 Z M124.72,236.31 V242.87 H131.28 V236.31 H124.72 Z M144.41,236.31 V242.87 H150.97 V236.31 H144.41 Z M177.23,236.31 V242.87 H183.79 V236.31 H177.23 Z M190.36,236.31 V242.87 H196.92 V236.31 H190.36 Z M203.49,236.31 V242.87 H210.05 V236.31 H203.49 Z M210.05,236.31 V242.87 H216.62 V236.31 H210.05 Z M216.62,236.31 V242.87 H223.18 V236.31 H216.62 Z M223.18,236.31 V242.87 H229.74 V236.31 H223.18 Z M242.87,236.31 V242.87 H249.44 V236.31 H242.87 Z M6.56,242.87 V249.44 H13.13 V242.87 H6.56 Z M13.13,242.87 V249.44 H19.69 V242.87 H13.13 Z M19.69,242.87 V249.44 H26.26 V242.87 H19.69 Z M26.26,242.87 V249.44 H32.82 V242.87 H26.26 Z M32.82,242.87 V249.44 H39.38 V242.87 H32.82 Z M39.38,242.87 V249.44 H45.95 V242.87 H39.38 Z M45.95,242.87 V249.44 H52.51 V242.87 H45.95 Z M72.21,242.87 V249.44 H78.77 V242.87 H72.21 Z M78.77,242.87 V249.44 H85.33 V242.87 H78.77 Z M85.33,242.87 V249.44 H91.90 V242.87 H85.33 Z M98.46,242.87 V249.44 H105.03 V242.87 H98.46 Z M111.59,242.87 V249.44 H118.15 V242.87 H111.59 Z M124.72,242.87 V249.44 H131.28 V242.87 H124.72 Z M131.28,242.87 V249.44 H137.85 V242.87 H131.28 Z M150.97,242.87 V249.44 H157.54 V242.87 H150.97 Z M164.10,242.87 V249.44 H170.67 V242.87 H164.10 Z M177.23,242.87 V249.44 H183.79 V242.87 H177.23 Z M196.92,242.87 V249.44 H203.49 V242.87 H196.92 Z M203.49,242.87 V249.44 H210.05 V242.87 H203.49 Z M210.05,242.87 V249.44 H216.62 V242.87 H210.05 Z M216.62,242.87 V249.44 H223.18 V242.87 H216.62 Z M229.74,242.87 V249.44 H236.31 V242.87 H229.74 Z M236.31,242.87 V249.44 H242.87 V242.87 H236.31 Z M242.87,242.87 V249.44 H249.44 V242.87 H242.87 Z " /></svg>