<?xml version="1.0" standalone="yes"?>
<svg xmlns="http://www.w3.org/2000/svg" version="1.1" viewBox="0 0 256 256">
  <rect x="0" y="0" width="256" height="256" style="fill:#FFFFFF;shape-rendering:crispEdges;"/>
  <path x="0" y="0" style="fill:#333;shape-rendering:crispEdges;" d="M7.31,7.31 V14.63 H14.63 V7.31 H7.31 Z M14.63,7.31 V14.63 H21.94 V7.31 H14.63 Z M21.94,7.31 V14.63 H29.26 V7.31 H21.94 Z M29.26,7.31 V14.63 H36.57 V7.31 H29.26 Z M36.57,7.31 V14.63 H43.89 V7.31 H36.57 Z M43.89,7.31 V14.63 H51.20 V7.31 H43.89 Z M51.20,7.31 V14.63 H58.51 V7.31 H51.20 Z M65.83,7.31 V14.63 H73.14 V7.31 H65.83 Z M73.14,7.31 V14.63 H80.46 V7.31 H73.14 Z M80.46,7.31 V14.63 H87.77 V7.31 H80.46 Z M87.77,7.31 V14.63 H95.09 V7.31 H87.77 Z M102.40,7.31 V14.63 H109.71 V7.31 H102.40 Z M124.34,7.31 V14.63 H131.66 V7.31 H124.34 Z M160.91,7.31 V14.63 H168.23 V7.31 H160.91 Z M182.86,7.31 V14.63 H190.17 V7.31 H182.86 Z M197.49,7.31 V14.63 H204.80 V7.31 H197.49 Z M204.80,7.31 V14.63 H212.11 V7.31 H204.80 Z M212.11,7.31 V14.63 H219.43 V7.31 H212.11 Z M219.43,7.31 V14.63 H226.74 V7.31 H219.43 Z M226.74,7.31 V14.63 H234.06 V7.31 H226.74 Z M234.06,7.31 V14.63 H241.37 V7.31 H234.06 Z M241.37,7.31 V14.63 H248.69 V7.31 H241.37 Z M7.31,14.63 V21.94 H14.63 V14.63 H7.31 Z M51.20,14.63 V21.94 H58.51 V14.63 H51.20 Z M87.77,14.63 V21.94 H95.09 V14.63 H87.77 Z M95.09,14.63 V21.94 H102.40 V14.63 H95.09 Z M109.71,14.63 V21.94 H117.03 V14.63 H109.71 Z M131.66,14.63 V21.94 H138.97 V14.63 H131.66 Z M146.29,14.63 V21.94 H153.60 V14.63 H146.29 Z M182.86,14.63 V21.94 H190.17 V14.63 H182.86 Z M197.49,14.63 V21.94 H204.80 V14.63 H197.49 Z M241.37,14.63 V21.94 H248.69 V14.63 H241.37 Z M7.31,21.94 V29.26 H14.63 V21.94 H7.31 Z M21.94,21.94 V29.26 H29.26 V21.94 H21.94 Z M29.26,21.94 V29.26 H36.57 V21.94 H29.26 Z M36.57,21.94 V29.26 H43.89 V21.94 H36.57 Z M51.20,21.94 V29.26 H58.51 V21.94 H51.20 Z M73.14,21.94 V29.26 H80.46 V21.94 H73.14 Z M80.46,21.94 V29.26 H87.77 V21.94 H80.46 Z M87.77,21.94 V29.26 H95.09 V21.94 H87.77 Z M138.97,21.94 V29.26 H146.29 V21.94 H138.97 Z M153.60,21.94 V29.26 H160.91 V21.94 H153.60 Z M160.91,21.94 V29.26 H168.23 V21.94 H160.91 Z M168.23,21.94 V29.26 H175.54 V21.94 H168.23 Z M197.49,21.94 V29.26 H204.80 V21.94 H197.49 Z M212.11,21.94 V29.26 H219.43 V21.94 H212.11 Z M219.43,21.94 V29.26 H226.74 V21.94 H219.43 Z M226.74,21.94 V29.26 H234.06 V21.94 H226.74 Z M241.37,21.94 V29.26 H248.69 V21.94 H241.37 Z M7.31,29.26 V36.57 H14.63 V29.26 H7.31 Z M21.94,29.26 V36.57 H29.26 V29.26 H21.94 Z M29.26,29.26 V36.57 H36.57 V29.26 H29.26 Z M36.57,29.26 V36.57 H43.89 V29.26 H36.57 Z M51.20,29.26 V36.57 H58.51 V29.26 H51.20 Z M73.14,29.26 V36.57 H80.46 V29.26 H73.14 Z M80.46,29.26 V36.57 H87.77 V29.26 H80.46 Z M109.71,29.26 V36.57 H117.03 V29.26 H109.71 Z M124.34,29.26 V36.57 H131.66 V29.26 H124.34 Z M138.97,29.26 V36.57 H146.29 V29.26 H138.97 Z M175.54,29.26 V36.57 H182.86 V29.26 H175.54 Z M182.86,29.26 V36.57 H190.17 V29.26 H182.86 Z M197.49,29.26 V36.57 H204.80 V29.26 H197.49 Z M212.11,29.26 V36.57 H219.43 V29.26 H212.11 Z M219.43,29.26 V36.57 H226.74 V29.26 H219.43 Z M226.74,29.26 V36.57 H234.06 V29.26 H226.74 Z M241.37,29.26 V36.57 H248.69 V29.26 H241.37 Z M7.31,36.57 V43.89 H14.63 V36.57 H7.31 Z M21.94,36.57 V43.89 H29.26 V36.57 H21.94 Z M29.26,36.57 V43.89 H36.57 V36.57 H29.26 Z M36.57,36.57 V43.89 H43.89 V36.57 H36.57 Z M51.20,36.57 V43.89 H58.51 V36.57 H51.20 Z M65.83,36.57 V43.89 H73.14 V36.57 H65.83 Z M80.46,36.57 V43.89 H87.77 V36.57 H80.46 Z M87.77,36.57 V43.89 H95.09 V36.57 H87.77 Z M102.40,36.57 V43.89 H109.71 V36.57 H102.40 Z M124.34,36.57 V43.89 H131.66 V36.57 H124.34 Z M131.66,36.57 V43.89 H138.97 V36.57 H131.66 Z M153.60,36.57 V43.89 H160.91 V36.57 H153.60 Z M160.91,36.57 V43.89 H168.23 V36.57 H160.91 Z M168.23,36.57 V43.89 H175.54 V36.57 H168.23 Z M182.86,36.57 V43.89 H190.17 V36.57 H182.86 Z M197.49,36.57 V43.89 H204.80 V36.57 H197.49 Z M212.11,36.57 V43.89 H219.43 V36.57 H212.11 Z M219.43,36.57 V43.89 H226.74 V36.57 H219.43 Z M226.74,36.57 V43.89 H234.06 V36.57 H226.74 Z M241.37,36.57 V43.89 H248.69 V36.57 H241.37 Z M7.31,43.89 V51.20 H14.63 V43.89 H7.31 Z M51.20,43.89 V51.20 H58.51 V43.89 H51.20 Z M124.34,43.89 V51.20 H131.66 V43.89 H124.34 Z M160.91,43.89 V51.20 H168.23 V43.89 H160.91 Z M168.23,43.89 V51.20 H175.54 V43.89 H168.23 Z M197.49,43.89 V51.20 H204.80 V43.89 H197.49 Z M241.37,43.89 V51.20 H248.69 V43.89 H241.37 Z M7.31,51.20 V58.51 H14.63 V51.20 H7.31 Z M14.63,51.20 V58.51 H21.94 V51.20 H14.63 Z M21.94,51.20 V58.51 H29.26 V51.20 H21.94 Z M29.26,51.20 V58.51 H36.57 V51.20 H29.26 Z M36.57,51.20 V58.51 H43.89 V51.20 H36.57 Z M43.89,51.20 V58.51 H51.20 V51.20 H43.89 Z M51.20,51.20 V58.51 H58.51 V51.20 H51.20 Z M65.83,51.20 V58.51 H73.14 V51.20 H65.83 Z M80.46,51.20 V58.51 H87.77 V51.20 H80.46 Z M95.09,51.20 V58.51 H102.40 V51.20 H95.09 Z M109.71,51.20 V58.51 H117.03 V51.20 H109.71 Z M124.34,51.20 V58.51 H131.66 V51.20 H124.34 Z M138.97,51.20 V58.51 H146.29 V51.20 H138.97 Z M153.60,51.20 V58.51 H160.91 V51.20 H153.60 Z M168.23,51.20 V58.51 H175.54 V51.20 H168.23 Z M182.86,51.20 V58.51 H190.17 V51.20 H182.86 Z M197.49,51.20 V58.51 H204.80 V51.20 H197.49 Z M204.80,51.20 V58.51 H212.11 V51.20 H204.80 Z M212.11,51.20 V58.51 H219.43 V51.20 H212.11 Z M219.43,51.20 V58.51 H226.74 V51.20 H219.43 Z M226.74,51.20 V58.51 H234.06 V51.20 H226.74 Z M234.06,51.20 V58.51 H241.37 V51.20 H234.06 Z M241.37,51.20 V58.51 H248.69 V51.20 H241.37 Z M65.83,58.51 V65.83 H73.14 V58.51 H65.83 Z M73.14,58.51 V65.83 H80.46 V58.51 H73.14 Z M80.46,58.51 V65.83 H87.77 V58.51 H80.46 Z M87.77,58.51 V65.83 H95.09 V58.51 H87.77 Z M102.40,58.51 V65.83 H109.71 V58.51 H102.40 Z M124.34,58.51 V65.83 H131.66 V58.51 H124.34 Z M131.66,58.51 V65.83 H138.97 V58.51 H131.66 Z M138.97,58.51 V65.83 H146.29 V58.51 H138.97 Z M146.29,58.51 V65.83 H153.60 V58.51 H146.29 Z M153.60,58.51 V65.83 H160.91 V58.51 H153.60 Z M175.54,58.51 V65.83 H182.86 V58.51 H175.54 Z M7.31,65.83 V73.14 H14.63 V65.83 H7.31 Z M29.26,65.83 V73.14 H36.57 V65.83 H29.26 Z M36.57,65.83 V73.14 H43.89 V65.83 H36.57 Z M43.89,65.83 V73.14 H51.20 V65.83 H43.89 Z M51.20,65.83 V73.14 H58.51 V65.83 H51.20 Z M58.51,65.83 V73.14 H65.83 V65.83 H58.51 Z M65.83,65.83 V73.14 H73.14 V65.83 H65.83 Z M109.71,65.83 V73.14 H117.03 V65.83 H109.71 Z M117.03,65.83 V73.14 H124.34 V65.83 H117.03 Z M124.34,65.83 V73.14 H131.66 V65.83 H124.34 Z M138.97,65.83 V73.14 H146.29 V65.83 H138.97 Z M146.29,65.83 V73.14 H153.60 V65.83 H146.29 Z M153.60,65.83 V73.14 H160.91 V65.83 H153.60 Z M160.91,65.83 V73.14 H168.23 V65.83 H160.91 Z M168.23,65.83 V73.14 H175.54 V65.83 H168.23 Z M175.54,65.83 V73.14 H182.86 V65.83 H175.54 Z M182.86,65.83 V73.14 H190.17 V65.83 H182.86 Z M190.17,65.83 V73.14 H197.49 V65.83 H190.17 Z M197.49,65.83 V73.14 H204.80 V65.83 H197.49 Z M212.11,65.83 V73.14 H219.43 V65.83 H212.11 Z M241.37,65.83 V73.14 H248.69 V65.83 H241.37 Z M21.94,73.14 V80.46 H29.26 V73.14 H21.94 Z M29.26,73.14 V80.46 H36.57 V73.14 H29.26 Z M43.89,73.14 V80.46 H51.20 V73.14 H43.89 Z M65.83,73.14 V80.46 H73.14 V73.14 H65.83 Z M80.46,73.14 V80.46 H87.77 V73.14 H80.46 Z M102.40,73.14 V80.46 H109.71 V73.14 H102.40 Z M153.60,73.14 V80.46 H160.91 V73.14 H153.60 Z M160.91,73.14 V80.46 H168.23 V73.14 H160.91 Z M168.23,73.14 V80.46 H175.54 V73.14 H168.23 Z M190.17,73.14 V80.46 H197.49 V73.14 H190.17 Z M204.80,73.14 V80.46 H212.11 V73.14 H204.80 Z M226.74,73.14 V80.46 H234.06 V73.14 H226.74 Z M234.06,73.14 V80.46 H241.37 V73.14 H234.06 Z M241.37,73.14 V80.46 H248.69 V73.14 H241.37 Z M29.26,80.46 V87.77 H36.57 V80.46 H29.26 Z M36.57,80.46 V87.77 H43.89 V80.46 H36.57 Z M43.89,80.46 V87.77 H51.20 V80.46 H43.89 Z M51.20,80.46 V87.77 H58.51 V80.46 H51.20 Z M65.83,80.46 V87.77 H73.14 V80.46 H65.83 Z M95.09,80.46 V87.77 H102.40 V80.46 H95.09 Z M146.29,80.46 V87.77 H153.60 V80.46 H146.29 Z M175.54,80.46 V87.77 H182.86 V80.46 H175.54 Z M182.86,80.46 V87.77 H190.17 V80.46 H182.86 Z M190.17,80.46 V87.77 H197.49 V80.46 H190.17 Z M219.43,80.46 V87.77 H226.74 V80.46 H219.43 Z M226.74,80.46 V87.77 H234.06 V80.46 H226.74 Z M7.31,87.77 V95.09 H14.63 V87.77 H7.31 Z M29.26,87.77 V95.09 H36.57 V87.77 H29.26 Z M36.57,87.77 V95.09 H43.89 V87.77 H36.57 Z M43.89,87.77 V95.09 H51.20 V87.77 H43.89 Z M73.14,87.77 V95.09 H80.46 V87.77 H73.14 Z M87.77,87.77 V95.09 H95.09 V87.77 H87.77 Z M109.71,87.77 V95.09 H117.03 V87.77 H109.71 Z M117.03,87.77 V95.09 H124.34 V87.77 H117.03 Z M124.34,87.77 V95.09 H131.66 V87.77 H124.34 Z M146.29,87.77 V95.09 H153.60 V87.77 H146.29 Z M175.54,87.77 V95.09 H182.86 V87.77 H175.54 Z M182.86,87.77 V95.09 H190.17 V87.77 H182.86 Z M197.49,87.77 V95.09 H204.80 V87.77 H197.49 Z M204.80,87.77 V95.09 H212.11 V87.77 H204.80 Z M212.11,87.77 V95.09 H219.43 V87.77 H212.11 Z M219.43,87.77 V95.09 H226.74 V87.77 H219.43 Z M234.06,87.77 V95.09 H241.37 V87.77 H234.06 Z M241.37,87.77 V95.09 H248.69 V87.77 H241.37 Z M7.31,95.09 V102.40 H14.63 V95.09 H7.31 Z M14.63,95.09 V102.40 H21.94 V95.09 H14.63 Z M21.94,95.09 V102.40 H29.26 V95.09 H21.94 Z M43.89,95.09 V102.40 H51.20 V95.09 H43.89 Z M51.20,95.09 V102.40 H58.51 V95.09 H51.20 Z M80.46,95.09 V102.40 H87.77 V95.09 H80.46 Z M95.09,95.09 V102.40 H102.40 V95.09 H95.09 Z M117.03,95.09 V102.40 H124.34 V95.09 H117.03 Z M124.34,95.09 V102.40 H131.66 V95.09 H124.34 Z M138.97,95.09 V102.40 H146.29 V95.09 H138.97 Z M146.29,95.09 V102.40 H153.60 V95.09 H146.29 Z M160.91,95.09 V102.40 H168.23 V95.09 H160.91 Z M168.23,95.09 V102.40 H175.54 V95.09 H168.23 Z M182.86,95.09 V102.40 H190.17 V95.09 H182.86 Z M190.17,95.09 V102.40 H197.49 V95.09 H190.17 Z M204.80,95.09 V102.40 H212.11 V95.09 H204.80 Z M212.11,95.09 V102.40 H219.43 V95.09 H212.11 Z M21.94,102.40 V109.71 H29.26 V102.40 H21.94 Z M73.14,102.40 V109.71 H80.46 V102.40 H73.14 Z M95.09,102.40 V109.71 H102.40 V102.40 H95.09 Z M109.71,102.40 V109.71 H117.03 V102.40 H109.71 Z M117.03,102.40 V109.71 H124.34 V102.40 H117.03 Z M131.66,102.40 V109.71 H138.97 V102.40 H131.66 Z M138.97,102.40 V109.71 H146.29 V102.40 H138.97 Z M146.29,102.40 V109.71 H153.60 V102.40 H146.29 Z M153.60,102.40 V109.71 H160.91 V102.40 H153.60 Z M175.54,102.40 V109.71 H182.86 V102.40 H175.54 Z M190.17,102.40 V109.71 H197.49 V102.40 H190.17 Z M197.49,102.40 V109.71 H204.80 V102.40 H197.49 Z M204.80,102.40 V109.71 H212.11 V102.40 H204.80 Z M212.11,102.40 V109.71 H219.43 V102.40 H212.11 Z M234.06,102.40 V109.71 H241.37 V102.40 H234.06 Z M7.31,109.71 V117.03 H14.63 V109.71 H7.31 Z M29.26,109.71 V117.03 H36.57 V109.71 H29.26 Z M36.57,109.71 V117.03 H43.89 V109.71 H36.57 Z M51.20,109.71 V117.03 H58.51 V109.71 H51.20 Z M73.14,109.71 V117.03 H80.46 V109.71 H73.14 Z M87.77,109.71 V117.03 H95.09 V109.71 H87.77 Z M95.09,109.71 V117.03 H102.40 V109.71 H95.09 Z M109.71,109.71 V117.03 H117.03 V109.71 H109.71 Z M117.03,109.71 V117.03 H124.34 V109.71 H117.03 Z M124.34,109.71 V117.03 H131.66 V109.71 H124.34 Z M160.91,109.71 V117.03 H168.23 V109.71 H160.91 Z M190.17,109.71 V117.03 H197.49 V109.71 H190.17 Z M197.49,109.71 V117.03 H204.80 V109.71 H197.49 Z M219.43,109.71 V117.03 H226.74 V109.71 H219.43 Z M226.74,109.71 V117.03 H234.06 V109.71 H226.74 Z M234.06,109.71 V117.03 H241.37 V109.71 H234.06 Z M7.31,117.03 V124.34 H14.63 V117.03 H7.31 Z M29.26,117.03 V124.34 H36.57 V117.03 H29.26 Z M58.51,117.03 V124.34 H65.83 V117.03 H58.51 Z M73.14,117.03 V124.34 H80.46 V117.03 H73.14 Z M80.46,117.03 V124.34 H87.77 V117.03 H80.46 Z M87.77,117.03 V124.34 H95.09 V117.03 H87.77 Z M124.34,117.03 V124.34 H131.66 V117.03 H124.34 Z M131.66,117.03 V124.34 H138.97 V117.03 H131.66 Z M138.97,117.03 V124.34 H146.29 V117.03 H138.97 Z M146.29,117.03 V124.34 H153.60 V117.03 H146.29 Z M153.60,117.03 V124.34 H160.91 V117.03 H153.60 Z M168.23,117.03 V124.34 H175.54 V117.03 H168.23 Z M175.54,117.03 V124.34 H182.86 V117.03 H175.54 Z M190.17,117.03 V124.34 H197.49 V117.03 H190.17 Z M197.49,117.03 V124.34 H204.80 V117.03 H197.49 Z M212.11,117.03 V124.34 H219.43 V117.03 H212.11 Z M241.37,117.03 V124.34 H248.69 V117.03 H241.37 Z M21.94,124.34 V131.66 H29.26 V124.34 H21.94 Z M43.89,124.34 V131.66 H51.20 V124.34 H43.89 Z M51.20,124.34 V131.66 H58.51 V124.34 H51.20 Z M58.51,124.34 V131.66 H65.83 V124.34 H58.51 Z M73.14,124.34 V131.66 H80.46 V124.34 H73.14 Z M87.77,124.34 V131.66 H95.09 V124.34 H87.77 Z M102.40,124.34 V131.66 H109.71 V124.34 H102.40 Z M109.71,124.34 V131.66 H117.03 V124.34 H109.71 Z M131.66,124.34 V131.66 H138.97 V124.34 H131.66 Z M138.97,124.34 V131.66 H146.29 V124.34 H138.97 Z M153.60,124.34 V131.66 H160.91 V124.34 H153.60 Z M175.54,124.34 V131.66 H182.86 V124.34 H175.54 Z M190.17,124.34 V131.66 H197.49 V124.34 H190.17 Z M204.80,124.34 V131.66 H212.11 V124.34 H204.80 Z M219.43,124.34 V131.66 H226.74 V124.34 H219.43 Z M226.74,124.34 V131.66 H234.06 V124.34 H226.74 Z M7.31,131.66 V138.97 H14.63 V131.66 H7.31 Z M14.63,131.66 V138.97 H21.94 V131.66 H14.63 Z M29.26,131.66 V138.97 H36.57 V131.66 H29.26 Z M36.57,131.66 V138.97 H43.89 V131.66 H36.57 Z M43.89,131.66 V138.97 H51.20 V131.66 H43.89 Z M58.51,131.66 V138.97 H65.83 V131.66 H58.51 Z M65.83,131.66 V138.97 H73.14 V131.66 H65.83 Z M80.46,131.66 V138.97 H87.77 V131.66 H80.46 Z M87.77,131.66 V138.97 H95.09 V131.66 H87.77 Z M102.40,131.66 V138.97 H109.71 V131.66 H102.40 Z M109.71,131.66 V138.97 H117.03 V131.66 H109.71 Z M117.03,131.66 V138.97 H124.34 V131.66 H117.03 Z M124.34,131.66 V138.97 H131.66 V131.66 H124.34 Z M131.66,131.66 V138.97 H138.97 V131.66 H131.66 Z M168.23,131.66 V138.97 H175.54 V131.66 H168.23 Z M175.54,131.66 V138.97 H182.86 V131.66 H175.54 Z M182.86,131.66 V138.97 H190.17 V131.66 H182.86 Z M197.49,131.66 V138.97 H204.80 V131.66 H197.49 Z M204.80,131.66 V138.97 H212.11 V131.66 H204.80 Z M234.06,131.66 V138.97 H241.37 V131.66 H234.06 Z M241.37,131.66 V138.97 H248.69 V131.66 H241.37 Z M7.31,138.97 V146.29 H14.63 V138.97 H7.31 Z M29.26,138.97 V146.29 H36.57 V138.97 H29.26 Z M36.57,138.97 V146.29 H43.89 V138.97 H36.57 Z M51.20,138.97 V146.29 H58.51 V138.97 H51.20 Z M73.14,138.97 V146.29 H80.46 V138.97 H73.14 Z M87.77,138.97 V146.29 H95.09 V138.97 H87.77 Z M95.09,138.97 V146.29 H102.40 V138.97 H95.09 Z M131.66,138.97 V146.29 H138.97 V138.97 H131.66 Z M138.97,138.97 V146.29 H146.29 V138.97 H138.97 Z M160.91,138.97 V146.29 H168.23 V138.97 H160.91 Z M175.54,138.97 V146.29 H182.86 V138.97 H175.54 Z M190.17,138.97 V146.29 H197.49 V138.97 H190.17 Z M204.80,138.97 V146.29 H212.11 V138.97 H204.80 Z M212.11,138.97 V146.29 H219.43 V138.97 H212.11 Z M234.06,138.97 V146.29 H241.37 V138.97 H234.06 Z M14.63,146.29 V153.60 H21.94 V146.29 H14.63 Z M29.26,146.29 V153.60 H36.57 V146.29 H29.26 Z M36.57,146.29 V153.60 H43.89 V146.29 H36.57 Z M43.89,146.29 V153.60 H51.20 V146.29 H43.89 Z M65.83,146.29 V153.60 H73.14 V146.29 H65.83 Z M87.77,146.29 V153.60 H95.09 V146.29 H87.77 Z M102.40,146.29 V153.60 H109.71 V146.29 H102.40 Z M109.71,146.29 V153.60 H117.03 V146.29 H109.71 Z M117.03,146.29 V153.60 H124.34 V146.29 H117.03 Z M146.29,146.29 V153.60 H153.60 V146.29 H146.29 Z M160.91,146.29 V153.60 H168.23 V146.29 H160.91 Z M182.86,146.29 V153.60 H190.17 V146.29 H182.86 Z M219.43,146.29 V153.60 H226.74 V146.29 H219.43 Z M226.74,146.29 V153.60 H234.06 V146.29 H226.74 Z M234.06,146.29 V153.60 H241.37 V146.29 H234.06 Z M7.31,153.60 V160.91 H14.63 V153.60 H7.31 Z M29.26,153.60 V160.91 H36.57 V153.60 H29.26 Z M36.57,153.60 V160.91 H43.89 V153.60 H36.57 Z M51.20,153.60 V160.91 H58.51 V153.60 H51.20 Z M65.83,153.60 V160.91 H73.14 V153.60 H65.83 Z M80.46,153.60 V160.91 H87.77 V153.60 H80.46 Z M95.09,153.60 V160.91 H102.40 V153.60 H95.09 Z M117.03,153.60 V160.91 H124.34 V153.60 H117.03 Z M124.34,153.60 V160.91 H131.66 V153.60 H124.34 Z M146.29,153.60 V160.91 H153.60 V153.60 H146.29 Z M160.91,153.60 V160.91 H168.23 V153.60 H160.91 Z M168.23,153.60 V160.91 H175.54 V153.60 H168.23 Z M182.86,153.60 V160.91 H190.17 V153.60 H182.86 Z M197.49,153.60 V160.91 H204.80 V153.60 H197.49 Z M212.11,153.60 V160.91 H219.43 V153.60 H212.11 Z M234.06,153.60 V160.91 H241.37 V153.60 H234.06 Z M241.37,153.60 V160.91 H248.69 V153.60 H241.37 Z M7.31,160.91 V168.23 H14.63 V160.91 H7.31 Z M14.63,160.91 V168.23 H21.94 V160.91 H14.63 Z M29.26,160.91 V168.23 H36.57 V160.91 H29.26 Z M36.57,160.91 V168.23 H43.89 V160.91 H36.57 Z M58.51,160.91 V168.23 H65.83 V160.91 H58.51 Z M65.83,160.91 V168.23 H73.14 V160.91 H65.83 Z M80.46,160.91 V168.23 H87.77 V160.91 H80.46 Z M87.77,160.91 V168.23 H95.09 V160.91 H87.77 Z M109.71,160.91 V168.23 H117.03 V160.91 H109.71 Z M117.03,160.91 V168.23 H124.34 V160.91 H117.03 Z M124.34,160.91 V168.23 H131.66 V160.91 H124.34 Z M131.66,160.91 V168.23 H138.97 V160.91 H131.66 Z M160.91,160.91 V168.23 H168.23 V160.91 H160.91 Z M168.23,160.91 V168.23 H175.54 V160.91 H168.23 Z M175.54,160.91 V168.23 H182.86 V160.91 H175.54 Z M182.86,160.91 V168.23 H190.17 V160.91 H182.86 Z M197.49,160.91 V168.23 H204.80 V160.91 H197.49 Z M204.80,160.91 V168.23 H212.11 V160.91 H204.80 Z M234.06,160.91 V168.23 H241.37 V160.91 H234.06 Z M241.37,160.91 V168.23 H248.69 V160.91 H241.37 Z M14.63,168.23 V175.54 H21.94 V168.23 H14.63 Z M21.94,168.23 V175.54 H29.26 V168.23 H21.94 Z M51.20,168.23 V175.54 H58.51 V168.23 H51.20 Z M58.51,168.23 V175.54 H65.83 V168.23 H58.51 Z M65.83,168.23 V175.54 H73.14 V168.23 H65.83 Z M80.46,168.23 V175.54 H87.77 V168.23 H80.46 Z M102.40,168.23 V175.54 H109.71 V168.23 H102.40 Z M124.34,168.23 V175.54 H131.66 V168.23 H124.34 Z M146.29,168.23 V175.54 H153.60 V168.23 H146.29 Z M153.60,168.23 V175.54 H160.91 V168.23 H153.60 Z M175.54,168.23 V175.54 H182.86 V168.23 H175.54 Z M182.86,168.23 V175.54 H190.17 V168.23 H182.86 Z M190.17,168.23 V175.54 H197.49 V168.23 H190.17 Z M197.49,168.23 V175.54 H204.80 V168.23 H197.49 Z M219.43,168.23 V175.54 H226.74 V168.23 H219.43 Z M226.74,168.23 V175.54 H234.06 V168.23 H226.74 Z M241.37,168.23 V175.54 H248.69 V168.23 H241.37 Z M7.31,175.54 V182.86 H14.63 V175.54 H7.31 Z M58.51,175.54 V182.86 H65.83 V175.54 H58.51 Z M73.14,175.54 V182.86 H80.46 V175.54 H73.14 Z M80.46,175.54 V182.86 H87.77 V175.54 H80.46 Z M87.77,175.54 V182.86 H95.09 V175.54 H87.77 Z M95.09,175.54 V182.86 H102.40 V175.54 H95.09 Z M124.34,175.54 V182.86 H131.66 V175.54 H124.34 Z M131.66,175.54 V182.86 H138.97 V175.54 H131.66 Z M138.97,175.54 V182.86 H146.29 V175.54 H138.97 Z M153.60,175.54 V182.86 H160.91 V175.54 H153.60 Z M168.23,175.54 V182.86 H175.54 V175.54 H168.23 Z M182.86,175.54 V182.86 H190.17 V175.54 H182.86 Z M219.43,175.54 V182.86 H226.74 V175.54 H219.43 Z M226.74,175.54 V182.86 H234.06 V175.54 H226.74 Z M234.06,175.54 V182.86 H241.37 V175.54 H234.06 Z M241.37,175.54 V182.86 H248.69 V175.54 H241.37 Z M14.63,182.86 V190.17 H21.94 V182.86 H14.63 Z M21.94,182.86 V190.17 H29.26 V182.86 H21.94 Z M29.26,182.86 V190.17 H36.57 V182.86 H29.26 Z M36.57,182.86 V190.17 H43.89 V182.86 H36.57 Z M51.20,182.86 V190.17 H58.51 V182.86 H51.20 Z M65.83,182.86 V190.17 H73.14 V182.86 H65.83 Z M73.14,182.86 V190.17 H80.46 V182.86 H73.14 Z M80.46,182.86 V190.17 H87.77 V182.86 H80.46 Z M95.09,182.86 V190.17 H102.40 V182.86 H95.09 Z M117.03,182.86 V190.17 H124.34 V182.86 H117.03 Z M124.34,182.86 V190.17 H131.66 V182.86 H124.34 Z M138.97,182.86 V190.17 H146.29 V182.86 H138.97 Z M153.60,182.86 V190.17 H160.91 V182.86 H153.60 Z M160.91,182.86 V190.17 H168.23 V182.86 H160.91 Z M175.54,182.86 V190.17 H182.86 V182.86 H175.54 Z M182.86,182.86 V190.17 H190.17 V182.86 H182.86 Z M190.17,182.86 V190.17 H197.49 V182.86 H190.17 Z M197.49,182.86 V190.17 H204.80 V182.86 H197.49 Z M204.80,182.86 V190.17 H212.11 V182.86 H204.80 Z M212.11,182.86 V190.17 H219.43 V182.86 H212.11 Z M219.43,182.86 V190.17 H226.74 V182.86 H219.43 Z M226.74,182.86 V190.17 H234.06 V182.86 H226.74 Z M234.06,182.86 V190.17 H241.37 V182.86 H234.06 Z M241.37,182.86 V190.17 H248.69 V182.86 H241.37 Z M65.83,190.17 V197.49 H73.14 V190.17 H65.83 Z M73.14,190.17 V197.49 H80.46 V190.17 H73.14 Z M109.71,190.17 V197.49 H117.03 V190.17 H109.71 Z M117.03,190.17 V197.49 H124.34 V190.17 H117.03 Z M146.29,190.17 V197.49 H153.60 V190.17 H146.29 Z M160.91,190.17 V197.49 H168.23 V190.17 H160.91 Z M168.23,190.17 V197.49 H175.54 V190.17 H168.23 Z M175.54,190.17 V197.49 H182.86 V190.17 H175.54 Z M182.86,190.17 V197.49 H190.17 V190.17 H182.86 Z M212.11,190.17 V197.49 H219.43 V190.17 H212.11 Z M7.31,197.49 V204.80 H14.63 V197.49 H7.31 Z M14.63,197.49 V204.80 H21.94 V197.49 H14.63 Z M21.94,197.49 V204.80 H29.26 V197.49 H21.94 Z M29.26,197.49 V204.80 H36.57 V197.49 H29.26 Z M36.57,197.49 V204.80 H43.89 V197.49 H36.57 Z M43.89,197.49 V204.80 H51.20 V197.49 H43.89 Z M51.20,197.49 V204.80 H58.51 V197.49 H51.20 Z M65.83,197.49 V204.80 H73.14 V197.49 H65.83 Z M87.77,197.49 V204.80 H95.09 V197.49 H87.77 Z M95.09,197.49 V204.80 H102.40 V197.49 H95.09 Z M109.71,197.49 V204.80 H117.03 V197.49 H109.71 Z M117.03,197.49 V204.80 H124.34 V197.49 H117.03 Z M124.34,197.49 V204.80 H131.66 V197.49 H124.34 Z M146.29,197.49 V204.80 H153.60 V197.49 H146.29 Z M153.60,197.49 V204.80 H160.91 V197.49 H153.60 Z M175.54,197.49 V204.80 H182.86 V197.49 H175.54 Z M182.86,197.49 V204.80 H190.17 V197.49 H182.86 Z M197.49,197.49 V204.80 H204.80 V197.49 H197.49 Z M212.11,197.49 V204.80 H219.43 V197.49 H212.11 Z M219.43,197.49 V204.80 H226.74 V197.49 H219.43 Z M226.74,197.49 V204.80 H234.06 V197.49 H226.74 Z M234.06,197.49 V204.80 H241.37 V197.49 H234.06 Z M241.37,197.49 V204.80 H248.69 V197.49 H241.37 Z M7.31,204.80 V212.11 H14.63 V204.80 H7.31 Z M51.20,204.80 V212.11 H58.51 V204.80 H51.20 Z M65.83,204.80 V212.11 H73.14 V204.80 H65.83 Z M95.09,204.80 V212.11 H102.40 V204.80 H95.09 Z M102.40,204.80 V212.11 H109.71 V204.80 H102.40 Z M117.03,204.80 V212.11 H124.34 V204.80 H117.03 Z M138.97,204.80 V212.11 H146.29 V204.80 H138.97 Z M146.29,204.80 V212.11 H153.60 V204.80 H146.29 Z M153.60,204.80 V212.11 H160.91 V204.80 H153.60 Z M160.91,204.80 V212.11 H168.23 V204.80 H160.91 Z M168.23,204.80 V212.11 H175.54 V204.80 H168.23 Z M175.54,204.80 V212.11 H182.86 V204.80 H175.54 Z M182.86,204.80 V212.11 H190.17 V204.80 H182.86 Z M212.11,204.80 V212.11 H219.43 V204.80 H212.11 Z M219.43,204.80 V212.11 H226.74 V204.80 H219.43 Z M226.74,204.80 V212.11 H234.06 V204.80 H226.74 Z M7.31,212.11 V219.43 H14.63 V212.11 H7.31 Z M21.94,212.11 V219.43 H29.26 V212.11 H21.94 Z M29.26,212.11 V219.43 H36.57 V212.11 H29.26 Z M36.57,212.11 V219.43 H43.89 V212.11 H36.57 Z M51.20,212.11 V219.43 H58.51 V212.11 H51.20 Z M65.83,212.11 V219.43 H73.14 V212.11 H65.83 Z M95.09,212.11 V219.43 H102.40 V212.11 H95.09 Z M109.71,212.11 V219.43 H117.03 V212.11 H109.71 Z M124.34,212.11 V219.43 H131.66 V212.11 H124.34 Z M153.60,212.11 V219.43 H160.91 V212.11 H153.60 Z M182.86,212.11 V219.43 H190.17 V212.11 H182.86 Z M190.17,212.11 V219.43 H197.49 V212.11 H190.17 Z M197.49,212.11 V219.43 H204.80 V212.11 H197.49 Z M204.80,212.11 V219.43 H212.11 V212.11 H204.80 Z M212.11,212.11 V219.43 H219.43 V212.11 H212.11 Z M219.43,212.11 V219.43 H226.74 V212.11 H219.43 Z M226.74,212.11 V219.43 H234.06 V212.11 H226.74 Z M7.31,219.43 V226.74 H14.63 V219.43 H7.31 Z M21.94,219.43 V226.74 H29.26 V219.43 H21.94 Z M29.26,219.43 V226.74 H36.57 V219.43 H29.26 Z M36.57,219.43 V226.74 H43.89 V219.43 H36.57 Z M51.20,219.43 V226.74 H58.51 V219.43 H51.20 Z M65.83,219.43 V226.74 H73.14 V219.43 H65.83 Z M73.14,219.43 V226.74 H80.46 V219.43 H73.14 Z M80.46,219.43 V226.74 H87.77 V219.43 H80.46 Z M95.09,219.43 V226.74 H102.40 V219.43 H95.09 Z M131.66,219.43 V226.74 H138.97 V219.43 H131.66 Z M138.97,219.43 V226.74 H146.29 V219.43 H138.97 Z M153.60,219.43 V226.74 H160.91 V219.43 H153.60 Z M160.91,219.43 V226.74 H168.23 V219.43 H160.91 Z M168.23,219.43 V226.74 H175.54 V219.43 H168.23 Z M197.49,219.43 V226.74 H204.80 V219.43 H197.49 Z M212.11,219.43 V226.74 H219.43 V219.43 H212.11 Z M7.31,226.74 V234.06 H14.63 V226.74 H7.31 Z M21.94,226.74 V234.06 H29.26 V226.74 H21.94 Z M29.26,226.74 V234.06 H36.57 V226.74 H29.26 Z M36.57,226.74 V234.06 H43.89 V226.74 H36.57 Z M51.20,226.74 V234.06 H58.51 V226.74 H51.20 Z M73.14,226.74 V234.06 H80.46 V226.74 H73.14 Z M102.40,226.74 V234.06 H109.71 V226.74 H102.40 Z M131.66,226.74 V234.06 H138.97 V226.74 H131.66 Z M190.17,226.74 V234.06 H197.49 V226.74 H190.17 Z M219.43,226.74 V234.06 H226.74 V226.74 H219.43 Z M7.31,234.06 V241.37 H14.63 V234.06 H7.31 Z M51.20,234.06 V241.37 H58.51 V234.06 H51.20 Z M73.14,234.06 V241.37 H80.46 V234.06 H73.14 Z M80.46,234.06 V241.37 H87.77 V234.06 H80.46 Z M87.77,234.06 V241.37 H95.09 V234.06 H87.77 Z M109.71,234.06 V241.37 H117.03 V234.06 H109.71 Z M124.34,234.06 V241.37 H131.66 V234.06 H124.34 Z M131.66,234.06 V241.37 H138.97 V234.06 H131.66 Z M146.29,234.06 V241.37 H153.60 V234.06 H146.29 Z M153.60,234.06 V241.37 H160.91 V234.06 H153.60 Z M160.91,234.06 V241.37 H168.23 V234.06 H160.91 Z M168.23,234.06 V241.37 H175.54 V234.06 H168.23 Z M182.86,234.06 V241.37 H190.17 V234.06 H182.86 Z M190.17,234.06 V241.37 H197.49 V234.06 H190.17 Z M197.49,234.06 V241.37 H204.80 V234.06 H197.49 Z M219.43,234.06 V241.37 H226.74 V234.06 H219.43 Z M7.31,241.37 V248.69 H14.63 V241.37 H7.31 Z M14.63,241.37 V248.69 H21.94 V241.37 H14.63 Z M21.94,241.37 V248.69 H29.26 V241.37 H21.94 Z M29.26,241.37 V248.69 H36.57 V241.37 H29.26 Z M36.57,241.37 V248.69 H43.89 V241.37 H36.57 Z M43.89,241.37 V248.69 H51.20 V241.37 H43.89 Z M51.20,241.37 V248.69 H58.51 V241.37 H51.20 Z M65.83,241.37 V248.69 H73.14 V241.37 H65.83 Z M73.14,241.37 V248.69 H80.46 V241.37 H73.14 Z M87.77,241.37 V248.69 H95.09 V241.37 H87.77 Z M175.54,241.37 V248.69 H182.86 V241.37 H175.54 Z M204.80,241.37 V248.69 H212.11 V241.37 H204.80 Z M212.11,241.37 V248.69 H219.43 V241.37 H212.11 Z M241.37,241.37 V248.69 H248.69 V241.37 H241.37 Z " /></svg>