<?xml version="1.0" standalone="yes"?>
<svg xmlns="http://www.w3.org/2000/svg" version="1.1" viewBox="0 0 256 256">
  <rect x="0" y="0" width="256" height="256" style="fill:#FFFFFF;shape-rendering:crispEdges;"/>
  <path x="0" y="0" style="fill:#333;shape-rendering:crispEdges;" d="M8.26,8.26 V16.52 H16.52 V8.26 H8.26 Z M16.52,8.26 V16.52 H24.77 V8.26 H16.52 Z M24.77,8.26 V16.52 H33.03 V8.26 H24.77 Z M33.03,8.26 V16.52 H41.29 V8.26 H33.03 Z M41.29,8.26 V16.52 H49.55 V8.26 H41.29 Z M49.55,8.26 V16.52 H57.81 V8.26 H49.55 Z M57.81,8.26 V16.52 H66.06 V8.26 H57.81 Z M74.32,8.26 V16.52 H82.58 V8.26 H74.32 Z M90.84,8.26 V16.52 H99.10 V8.26 H90.84 Z M132.13,8.26 V16.52 H140.39 V8.26 H132.13 Z M148.65,8.26 V16.52 H156.90 V8.26 H148.65 Z M156.90,8.26 V16.52 H165.16 V8.26 H156.90 Z M165.16,8.26 V16.52 H173.42 V8.26 H165.16 Z M173.42,8.26 V16.52 H181.68 V8.26 H173.42 Z M189.94,8.26 V16.52 H198.19 V8.26 H189.94 Z M198.19,8.26 V16.52 H206.45 V8.26 H198.19 Z M206.45,8.26 V16.52 H214.71 V8.26 H206.45 Z M214.71,8.26 V16.52 H222.97 V8.26 H214.71 Z M222.97,8.26 V16.52 H231.23 V8.26 H222.97 Z M231.23,8.26 V16.52 H239.48 V8.26 H231.23 Z M239.48,8.26 V16.52 H247.74 V8.26 H239.48 Z M8.26,16.52 V24.77 H16.52 V16.52 H8.26 Z M57.81,16.52 V24.77 H66.06 V16.52 H57.81 Z M90.84,16.52 V24.77 H99.10 V16.52 H90.84 Z M107.35,16.52 V24.77 H115.61 V16.52 H107.35 Z M123.87,16.52 V24.77 H132.13 V16.52 H123.87 Z M140.39,16.52 V24.77 H148.65 V16.52 H140.39 Z M156.90,16.52 V24.77 H165.16 V16.52 H156.90 Z M189.94,16.52 V24.77 H198.19 V16.52 H189.94 Z M239.48,16.52 V24.77 H247.74 V16.52 H239.48 Z M8.26,24.77 V33.03 H16.52 V24.77 H8.26 Z M24.77,24.77 V33.03 H33.03 V24.77 H24.77 Z M33.03,24.77 V33.03 H41.29 V24.77 H33.03 Z M41.29,24.77 V33.03 H49.55 V24.77 H41.29 Z M57.81,24.77 V33.03 H66.06 V24.77 H57.81 Z M82.58,24.77 V33.03 H90.84 V24.77 H82.58 Z M90.84,24.77 V33.03 H99.10 V24.77 H90.84 Z M107.35,24.77 V33.03 H115.61 V24.77 H107.35 Z M115.61,24.77 V33.03 H123.87 V24.77 H115.61 Z M123.87,24.77 V33.03 H132.13 V24.77 H123.87 Z M148.65,24.77 V33.03 H156.90 V24.77 H148.65 Z M165.16,24.77 V33.03 H173.42 V24.77 H165.16 Z M173.42,24.77 V33.03 H181.68 V24.77 H173.42 Z M189.94,24.77 V33.03 H198.19 V24.77 H189.94 Z M206.45,24.77 V33.03 H214.71 V24.77 H206.45 Z M214.71,24.77 V33.03 H222.97 V24.77 H214.71 Z M222.97,24.77 V33.03 H231.23 V24.77 H222.97 Z M239.48,24.77 V33.03 H247.74 V24.77 H239.48 Z M8.26,33.03 V41.29 H16.52 V33.03 H8.26 Z M24.77,33.03 V41.29 H33.03 V33.03 H24.77 Z M33.03,33.03 V41.29 H41.29 V33.03 H33.03 Z M41.29,33.03 V41.29 H49.55 V33.03 H41.29 Z M57.81,33.03 V41.29 H66.06 V33.03 H57.81 Z M82.58,33.03 V41.29 H90.84 V33.03 H82.58 Z M99.10,33.03 V41.29 H107.35 V33.03 H99.10 Z M107.35,33.03 V41.29 H115.61 V33.03 H107.35 Z M123.87,33.03 V41.29 H132.13 V33.03 H123.87 Z M140.39,33.03 V41.29 H148.65 V33.03 H140.39 Z M156.90,33.03 V41.29 H165.16 V33.03 H156.90 Z M165.16,33.03 V41.29 H173.42 V33.03 H165.16 Z M189.94,33.03 V41.29 H198.19 V33.03 H189.94 Z M206.45,33.03 V41.29 H214.71 V33.03 H206.45 Z M214.71,33.03 V41.29 H222.97 V33.03 H214.71 Z M222.97,33.03 V41.29 H231.23 V33.03 H222.97 Z M239.48,33.03 V41.29 H247.74 V33.03 H239.48 Z M8.26,41.29 V49.55 H16.52 V41.29 H8.26 Z M24.77,41.29 V49.55 H33.03 V41.29 H24.77 Z M33.03,41.29 V49.55 H41.29 V41.29 H33.03 Z M41.29,41.29 V49.55 H49.55 V41.29 H41.29 Z M57.81,41.29 V49.55 H66.06 V41.29 H57.81 Z M82.58,41.29 V49.55 H90.84 V41.29 H82.58 Z M107.35,41.29 V49.55 H115.61 V41.29 H107.35 Z M123.87,41.29 V49.55 H132.13 V41.29 H123.87 Z M132.13,41.29 V49.55 H140.39 V41.29 H132.13 Z M148.65,41.29 V49.55 H156.90 V41.29 H148.65 Z M189.94,41.29 V49.55 H198.19 V41.29 H189.94 Z M206.45,41.29 V49.55 H214.71 V41.29 H206.45 Z M214.71,41.29 V49.55 H222.97 V41.29 H214.71 Z M222.97,41.29 V49.55 H231.23 V41.29 H222.97 Z M239.48,41.29 V49.55 H247.74 V41.29 H239.48 Z M8.26,49.55 V57.81 H16.52 V49.55 H8.26 Z M57.81,49.55 V57.81 H66.06 V49.55 H57.81 Z M99.10,49.55 V57.81 H107.35 V49.55 H99.10 Z M107.35,49.55 V57.81 H115.61 V49.55 H107.35 Z M115.61,49.55 V57.81 H123.87 V49.55 H115.61 Z M123.87,49.55 V57.81 H132.13 V49.55 H123.87 Z M156.90,49.55 V57.81 H165.16 V49.55 H156.90 Z M189.94,49.55 V57.81 H198.19 V49.55 H189.94 Z M239.48,49.55 V57.81 H247.74 V49.55 H239.48 Z M8.26,57.81 V66.06 H16.52 V57.81 H8.26 Z M16.52,57.81 V66.06 H24.77 V57.81 H16.52 Z M24.77,57.81 V66.06 H33.03 V57.81 H24.77 Z M33.03,57.81 V66.06 H41.29 V57.81 H33.03 Z M41.29,57.81 V66.06 H49.55 V57.81 H41.29 Z M49.55,57.81 V66.06 H57.81 V57.81 H49.55 Z M57.81,57.81 V66.06 H66.06 V57.81 H57.81 Z M74.32,57.81 V66.06 H82.58 V57.81 H74.32 Z M90.84,57.81 V66.06 H99.10 V57.81 H90.84 Z M107.35,57.81 V66.06 H115.61 V57.81 H107.35 Z M123.87,57.81 V66.06 H132.13 V57.81 H123.87 Z M140.39,57.81 V66.06 H148.65 V57.81 H140.39 Z M156.90,57.81 V66.06 H165.16 V57.81 H156.90 Z M173.42,57.81 V66.06 H181.68 V57.81 H173.42 Z M189.94,57.81 V66.06 H198.19 V57.81 H189.94 Z M198.19,57.81 V66.06 H206.45 V57.81 H198.19 Z M206.45,57.81 V66.06 H214.71 V57.81 H206.45 Z M214.71,57.81 V66.06 H222.97 V57.81 H214.71 Z M222.97,57.81 V66.06 H231.23 V57.81 H222.97 Z M231.23,57.81 V66.06 H239.48 V57.81 H231.23 Z M239.48,57.81 V66.06 H247.74 V57.81 H239.48 Z M82.58,66.06 V74.32 H90.84 V66.06 H82.58 Z M99.10,66.06 V74.32 H107.35 V66.06 H99.10 Z M107.35,66.06 V74.32 H115.61 V66.06 H107.35 Z M115.61,66.06 V74.32 H123.87 V66.06 H115.61 Z M123.87,66.06 V74.32 H132.13 V66.06 H123.87 Z M140.39,66.06 V74.32 H148.65 V66.06 H140.39 Z M148.65,66.06 V74.32 H156.90 V66.06 H148.65 Z M156.90,66.06 V74.32 H165.16 V66.06 H156.90 Z M165.16,66.06 V74.32 H173.42 V66.06 H165.16 Z M173.42,66.06 V74.32 H181.68 V66.06 H173.42 Z M16.52,74.32 V82.58 H24.77 V74.32 H16.52 Z M24.77,74.32 V82.58 H33.03 V74.32 H24.77 Z M33.03,74.32 V82.58 H41.29 V74.32 H33.03 Z M57.81,74.32 V82.58 H66.06 V74.32 H57.81 Z M66.06,74.32 V82.58 H74.32 V74.32 H66.06 Z M74.32,74.32 V82.58 H82.58 V74.32 H74.32 Z M90.84,74.32 V82.58 H99.10 V74.32 H90.84 Z M107.35,74.32 V82.58 H115.61 V74.32 H107.35 Z M115.61,74.32 V82.58 H123.87 V74.32 H115.61 Z M123.87,74.32 V82.58 H132.13 V74.32 H123.87 Z M132.13,74.32 V82.58 H140.39 V74.32 H132.13 Z M148.65,74.32 V82.58 H156.90 V74.32 H148.65 Z M156.90,74.32 V82.58 H165.16 V74.32 H156.90 Z M165.16,74.32 V82.58 H173.42 V74.32 H165.16 Z M173.42,74.32 V82.58 H181.68 V74.32 H173.42 Z M181.68,74.32 V82.58 H189.94 V74.32 H181.68 Z M239.48,74.32 V82.58 H247.74 V74.32 H239.48 Z M8.26,82.58 V90.84 H16.52 V82.58 H8.26 Z M24.77,82.58 V90.84 H33.03 V82.58 H24.77 Z M41.29,82.58 V90.84 H49.55 V82.58 H41.29 Z M49.55,82.58 V90.84 H57.81 V82.58 H49.55 Z M74.32,82.58 V90.84 H82.58 V82.58 H74.32 Z M99.10,82.58 V90.84 H107.35 V82.58 H99.10 Z M165.16,82.58 V90.84 H173.42 V82.58 H165.16 Z M181.68,82.58 V90.84 H189.94 V82.58 H181.68 Z M214.71,82.58 V90.84 H222.97 V82.58 H214.71 Z M239.48,82.58 V90.84 H247.74 V82.58 H239.48 Z M24.77,90.84 V99.10 H33.03 V90.84 H24.77 Z M33.03,90.84 V99.10 H41.29 V90.84 H33.03 Z M41.29,90.84 V99.10 H49.55 V90.84 H41.29 Z M57.81,90.84 V99.10 H66.06 V90.84 H57.81 Z M66.06,90.84 V99.10 H74.32 V90.84 H66.06 Z M90.84,90.84 V99.10 H99.10 V90.84 H90.84 Z M115.61,90.84 V99.10 H123.87 V90.84 H115.61 Z M132.13,90.84 V99.10 H140.39 V90.84 H132.13 Z M156.90,90.84 V99.10 H165.16 V90.84 H156.90 Z M173.42,90.84 V99.10 H181.68 V90.84 H173.42 Z M181.68,90.84 V99.10 H189.94 V90.84 H181.68 Z M189.94,90.84 V99.10 H198.19 V90.84 H189.94 Z M214.71,90.84 V99.10 H222.97 V90.84 H214.71 Z M222.97,90.84 V99.10 H231.23 V90.84 H222.97 Z M239.48,90.84 V99.10 H247.74 V90.84 H239.48 Z M8.26,99.10 V107.35 H16.52 V99.10 H8.26 Z M16.52,99.10 V107.35 H24.77 V99.10 H16.52 Z M41.29,99.10 V107.35 H49.55 V99.10 H41.29 Z M66.06,99.10 V107.35 H74.32 V99.10 H66.06 Z M74.32,99.10 V107.35 H82.58 V99.10 H74.32 Z M99.10,99.10 V107.35 H107.35 V99.10 H99.10 Z M107.35,99.10 V107.35 H115.61 V99.10 H107.35 Z M115.61,99.10 V107.35 H123.87 V99.10 H115.61 Z M123.87,99.10 V107.35 H132.13 V99.10 H123.87 Z M148.65,99.10 V107.35 H156.90 V99.10 H148.65 Z M165.16,99.10 V107.35 H173.42 V99.10 H165.16 Z M173.42,99.10 V107.35 H181.68 V99.10 H173.42 Z M181.68,99.10 V107.35 H189.94 V99.10 H181.68 Z M189.94,99.10 V107.35 H198.19 V99.10 H189.94 Z M214.71,99.10 V107.35 H222.97 V99.10 H214.71 Z M222.97,99.10 V107.35 H231.23 V99.10 H222.97 Z M231.23,99.10 V107.35 H239.48 V99.10 H231.23 Z M239.48,99.10 V107.35 H247.74 V99.10 H239.48 Z M8.26,107.35 V115.61 H16.52 V107.35 H8.26 Z M24.77,107.35 V115.61 H33.03 V107.35 H24.77 Z M33.03,107.35 V115.61 H41.29 V107.35 H33.03 Z M41.29,107.35 V115.61 H49.55 V107.35 H41.29 Z M49.55,107.35 V115.61 H57.81 V107.35 H49.55 Z M57.81,107.35 V115.61 H66.06 V107.35 H57.81 Z M66.06,107.35 V115.61 H74.32 V107.35 H66.06 Z M74.32,107.35 V115.61 H82.58 V107.35 H74.32 Z M90.84,107.35 V115.61 H99.10 V107.35 H90.84 Z M99.10,107.35 V115.61 H107.35 V107.35 H99.10 Z M140.39,107.35 V115.61 H148.65 V107.35 H140.39 Z M148.65,107.35 V115.61 H156.90 V107.35 H148.65 Z M156.90,107.35 V115.61 H165.16 V107.35 H156.90 Z M165.16,107.35 V115.61 H173.42 V107.35 H165.16 Z M189.94,107.35 V115.61 H198.19 V107.35 H189.94 Z M198.19,107.35 V115.61 H206.45 V107.35 H198.19 Z M206.45,107.35 V115.61 H214.71 V107.35 H206.45 Z M214.71,107.35 V115.61 H222.97 V107.35 H214.71 Z M231.23,107.35 V115.61 H239.48 V107.35 H231.23 Z M239.48,107.35 V115.61 H247.74 V107.35 H239.48 Z M33.03,115.61 V123.87 H41.29 V115.61 H33.03 Z M74.32,115.61 V123.87 H82.58 V115.61 H74.32 Z M82.58,115.61 V123.87 H90.84 V115.61 H82.58 Z M90.84,115.61 V123.87 H99.10 V115.61 H90.84 Z M107.35,115.61 V123.87 H115.61 V115.61 H107.35 Z M115.61,115.61 V123.87 H123.87 V115.61 H115.61 Z M123.87,115.61 V123.87 H132.13 V115.61 H123.87 Z M132.13,115.61 V123.87 H140.39 V115.61 H132.13 Z M156.90,115.61 V123.87 H165.16 V115.61 H156.90 Z M181.68,115.61 V123.87 H189.94 V115.61 H181.68 Z M189.94,115.61 V123.87 H198.19 V115.61 H189.94 Z M198.19,115.61 V123.87 H206.45 V115.61 H198.19 Z M206.45,115.61 V123.87 H214.71 V115.61 H206.45 Z M239.48,115.61 V123.87 H247.74 V115.61 H239.48 Z M8.26,123.87 V132.13 H16.52 V123.87 H8.26 Z M16.52,123.87 V132.13 H24.77 V123.87 H16.52 Z M24.77,123.87 V132.13 H33.03 V123.87 H24.77 Z M49.55,123.87 V132.13 H57.81 V123.87 H49.55 Z M57.81,123.87 V132.13 H66.06 V123.87 H57.81 Z M66.06,123.87 V132.13 H74.32 V123.87 H66.06 Z M74.32,123.87 V132.13 H82.58 V123.87 H74.32 Z M82.58,123.87 V132.13 H90.84 V123.87 H82.58 Z M99.10,123.87 V132.13 H107.35 V123.87 H99.10 Z M107.35,123.87 V132.13 H115.61 V123.87 H107.35 Z M123.87,123.87 V132.13 H132.13 V123.87 H123.87 Z M132.13,123.87 V132.13 H140.39 V123.87 H132.13 Z M140.39,123.87 V132.13 H148.65 V123.87 H140.39 Z M156.90,123.87 V132.13 H165.16 V123.87 H156.90 Z M165.16,123.87 V132.13 H173.42 V123.87 H165.16 Z M189.94,123.87 V132.13 H198.19 V123.87 H189.94 Z M231.23,123.87 V132.13 H239.48 V123.87 H231.23 Z M66.06,132.13 V140.39 H74.32 V132.13 H66.06 Z M82.58,132.13 V140.39 H90.84 V132.13 H82.58 Z M90.84,132.13 V140.39 H99.10 V132.13 H90.84 Z M107.35,132.13 V140.39 H115.61 V132.13 H107.35 Z M123.87,132.13 V140.39 H132.13 V132.13 H123.87 Z M132.13,132.13 V140.39 H140.39 V132.13 H132.13 Z M148.65,132.13 V140.39 H156.90 V132.13 H148.65 Z M156.90,132.13 V140.39 H165.16 V132.13 H156.90 Z M181.68,132.13 V140.39 H189.94 V132.13 H181.68 Z M189.94,132.13 V140.39 H198.19 V132.13 H189.94 Z M198.19,132.13 V140.39 H206.45 V132.13 H198.19 Z M206.45,132.13 V140.39 H214.71 V132.13 H206.45 Z M214.71,132.13 V140.39 H222.97 V132.13 H214.71 Z M222.97,132.13 V140.39 H231.23 V132.13 H222.97 Z M231.23,132.13 V140.39 H239.48 V132.13 H231.23 Z M41.29,140.39 V148.65 H49.55 V140.39 H41.29 Z M49.55,140.39 V148.65 H57.81 V140.39 H49.55 Z M57.81,140.39 V148.65 H66.06 V140.39 H57.81 Z M66.06,140.39 V148.65 H74.32 V140.39 H66.06 Z M99.10,140.39 V148.65 H107.35 V140.39 H99.10 Z M115.61,140.39 V148.65 H123.87 V140.39 H115.61 Z M123.87,140.39 V148.65 H132.13 V140.39 H123.87 Z M198.19,140.39 V148.65 H206.45 V140.39 H198.19 Z M206.45,140.39 V148.65 H214.71 V140.39 H206.45 Z M214.71,140.39 V148.65 H222.97 V140.39 H214.71 Z M33.03,148.65 V156.90 H41.29 V148.65 H33.03 Z M74.32,148.65 V156.90 H82.58 V148.65 H74.32 Z M90.84,148.65 V156.90 H99.10 V148.65 H90.84 Z M115.61,148.65 V156.90 H123.87 V148.65 H115.61 Z M123.87,148.65 V156.90 H132.13 V148.65 H123.87 Z M140.39,148.65 V156.90 H148.65 V148.65 H140.39 Z M148.65,148.65 V156.90 H156.90 V148.65 H148.65 Z M156.90,148.65 V156.90 H165.16 V148.65 H156.90 Z M173.42,148.65 V156.90 H181.68 V148.65 H173.42 Z M222.97,148.65 V156.90 H231.23 V148.65 H222.97 Z M239.48,148.65 V156.90 H247.74 V148.65 H239.48 Z M8.26,156.90 V165.16 H16.52 V156.90 H8.26 Z M16.52,156.90 V165.16 H24.77 V156.90 H16.52 Z M24.77,156.90 V165.16 H33.03 V156.90 H24.77 Z M41.29,156.90 V165.16 H49.55 V156.90 H41.29 Z M49.55,156.90 V165.16 H57.81 V156.90 H49.55 Z M57.81,156.90 V165.16 H66.06 V156.90 H57.81 Z M82.58,156.90 V165.16 H90.84 V156.90 H82.58 Z M90.84,156.90 V165.16 H99.10 V156.90 H90.84 Z M115.61,156.90 V165.16 H123.87 V156.90 H115.61 Z M123.87,156.90 V165.16 H132.13 V156.90 H123.87 Z M148.65,156.90 V165.16 H156.90 V156.90 H148.65 Z M165.16,156.90 V165.16 H173.42 V156.90 H165.16 Z M181.68,156.90 V165.16 H189.94 V156.90 H181.68 Z M189.94,156.90 V165.16 H198.19 V156.90 H189.94 Z M214.71,156.90 V165.16 H222.97 V156.90 H214.71 Z M222.97,156.90 V165.16 H231.23 V156.90 H222.97 Z M231.23,156.90 V165.16 H239.48 V156.90 H231.23 Z M239.48,156.90 V165.16 H247.74 V156.90 H239.48 Z M24.77,165.16 V173.42 H33.03 V165.16 H24.77 Z M33.03,165.16 V173.42 H41.29 V165.16 H33.03 Z M41.29,165.16 V173.42 H49.55 V165.16 H41.29 Z M74.32,165.16 V173.42 H82.58 V165.16 H74.32 Z M82.58,165.16 V173.42 H90.84 V165.16 H82.58 Z M99.10,165.16 V173.42 H107.35 V165.16 H99.10 Z M115.61,165.16 V173.42 H123.87 V165.16 H115.61 Z M132.13,165.16 V173.42 H140.39 V165.16 H132.13 Z M140.39,165.16 V173.42 H148.65 V165.16 H140.39 Z M148.65,165.16 V173.42 H156.90 V165.16 H148.65 Z M156.90,165.16 V173.42 H165.16 V165.16 H156.90 Z M173.42,165.16 V173.42 H181.68 V165.16 H173.42 Z M189.94,165.16 V173.42 H198.19 V165.16 H189.94 Z M198.19,165.16 V173.42 H206.45 V165.16 H198.19 Z M206.45,165.16 V173.42 H214.71 V165.16 H206.45 Z M214.71,165.16 V173.42 H222.97 V165.16 H214.71 Z M231.23,165.16 V173.42 H239.48 V165.16 H231.23 Z M239.48,165.16 V173.42 H247.74 V165.16 H239.48 Z M24.77,173.42 V181.68 H33.03 V173.42 H24.77 Z M33.03,173.42 V181.68 H41.29 V173.42 H33.03 Z M49.55,173.42 V181.68 H57.81 V173.42 H49.55 Z M57.81,173.42 V181.68 H66.06 V173.42 H57.81 Z M90.84,173.42 V181.68 H99.10 V173.42 H90.84 Z M107.35,173.42 V181.68 H115.61 V173.42 H107.35 Z M115.61,173.42 V181.68 H123.87 V173.42 H115.61 Z M148.65,173.42 V181.68 H156.90 V173.42 H148.65 Z M173.42,173.42 V181.68 H181.68 V173.42 H173.42 Z M181.68,173.42 V181.68 H189.94 V173.42 H181.68 Z M189.94,173.42 V181.68 H198.19 V173.42 H189.94 Z M198.19,173.42 V181.68 H206.45 V173.42 H198.19 Z M206.45,173.42 V181.68 H214.71 V173.42 H206.45 Z M214.71,173.42 V181.68 H222.97 V173.42 H214.71 Z M74.32,181.68 V189.94 H82.58 V181.68 H74.32 Z M123.87,181.68 V189.94 H132.13 V181.68 H123.87 Z M165.16,181.68 V189.94 H173.42 V181.68 H165.16 Z M173.42,181.68 V189.94 H181.68 V181.68 H173.42 Z M206.45,181.68 V189.94 H214.71 V181.68 H206.45 Z M214.71,181.68 V189.94 H222.97 V181.68 H214.71 Z M222.97,181.68 V189.94 H231.23 V181.68 H222.97 Z M231.23,181.68 V189.94 H239.48 V181.68 H231.23 Z M239.48,181.68 V189.94 H247.74 V181.68 H239.48 Z M8.26,189.94 V198.19 H16.52 V189.94 H8.26 Z M16.52,189.94 V198.19 H24.77 V189.94 H16.52 Z M24.77,189.94 V198.19 H33.03 V189.94 H24.77 Z M33.03,189.94 V198.19 H41.29 V189.94 H33.03 Z M41.29,189.94 V198.19 H49.55 V189.94 H41.29 Z M49.55,189.94 V198.19 H57.81 V189.94 H49.55 Z M57.81,189.94 V198.19 H66.06 V189.94 H57.81 Z M74.32,189.94 V198.19 H82.58 V189.94 H74.32 Z M90.84,189.94 V198.19 H99.10 V189.94 H90.84 Z M99.10,189.94 V198.19 H107.35 V189.94 H99.10 Z M107.35,189.94 V198.19 H115.61 V189.94 H107.35 Z M115.61,189.94 V198.19 H123.87 V189.94 H115.61 Z M123.87,189.94 V198.19 H132.13 V189.94 H123.87 Z M132.13,189.94 V198.19 H140.39 V189.94 H132.13 Z M148.65,189.94 V198.19 H156.90 V189.94 H148.65 Z M156.90,189.94 V198.19 H165.16 V189.94 H156.90 Z M173.42,189.94 V198.19 H181.68 V189.94 H173.42 Z M189.94,189.94 V198.19 H198.19 V189.94 H189.94 Z M206.45,189.94 V198.19 H214.71 V189.94 H206.45 Z M222.97,189.94 V198.19 H231.23 V189.94 H222.97 Z M8.26,198.19 V206.45 H16.52 V198.19 H8.26 Z M57.81,198.19 V206.45 H66.06 V198.19 H57.81 Z M90.84,198.19 V206.45 H99.10 V198.19 H90.84 Z M107.35,198.19 V206.45 H115.61 V198.19 H107.35 Z M115.61,198.19 V206.45 H123.87 V198.19 H115.61 Z M123.87,198.19 V206.45 H132.13 V198.19 H123.87 Z M148.65,198.19 V206.45 H156.90 V198.19 H148.65 Z M173.42,198.19 V206.45 H181.68 V198.19 H173.42 Z M206.45,198.19 V206.45 H214.71 V198.19 H206.45 Z M222.97,198.19 V206.45 H231.23 V198.19 H222.97 Z M231.23,198.19 V206.45 H239.48 V198.19 H231.23 Z M239.48,198.19 V206.45 H247.74 V198.19 H239.48 Z M8.26,206.45 V214.71 H16.52 V206.45 H8.26 Z M24.77,206.45 V214.71 H33.03 V206.45 H24.77 Z M33.03,206.45 V214.71 H41.29 V206.45 H33.03 Z M41.29,206.45 V214.71 H49.55 V206.45 H41.29 Z M57.81,206.45 V214.71 H66.06 V206.45 H57.81 Z M82.58,206.45 V214.71 H90.84 V206.45 H82.58 Z M90.84,206.45 V214.71 H99.10 V206.45 H90.84 Z M115.61,206.45 V214.71 H123.87 V206.45 H115.61 Z M148.65,206.45 V214.71 H156.90 V206.45 H148.65 Z M156.90,206.45 V214.71 H165.16 V206.45 H156.90 Z M173.42,206.45 V214.71 H181.68 V206.45 H173.42 Z M181.68,206.45 V214.71 H189.94 V206.45 H181.68 Z M189.94,206.45 V214.71 H198.19 V206.45 H189.94 Z M198.19,206.45 V214.71 H206.45 V206.45 H198.19 Z M206.45,206.45 V214.71 H214.71 V206.45 H206.45 Z M222.97,206.45 V214.71 H231.23 V206.45 H222.97 Z M239.48,206.45 V214.71 H247.74 V206.45 H239.48 Z M8.26,214.71 V222.97 H16.52 V214.71 H8.26 Z M24.77,214.71 V222.97 H33.03 V214.71 H24.77 Z M33.03,214.71 V222.97 H41.29 V214.71 H33.03 Z M41.29,214.71 V222.97 H49.55 V214.71 H41.29 Z M57.81,214.71 V222.97 H66.06 V214.71 H57.81 Z M74.32,214.71 V222.97 H82.58 V214.71 H74.32 Z M99.10,214.71 V222.97 H107.35 V214.71 H99.10 Z M123.87,214.71 V222.97 H132.13 V214.71 H123.87 Z M140.39,214.71 V222.97 H148.65 V214.71 H140.39 Z M156.90,214.71 V222.97 H165.16 V214.71 H156.90 Z M181.68,214.71 V222.97 H189.94 V214.71 H181.68 Z M189.94,214.71 V222.97 H198.19 V214.71 H189.94 Z M206.45,214.71 V222.97 H214.71 V214.71 H206.45 Z M214.71,214.71 V222.97 H222.97 V214.71 H214.71 Z M222.97,214.71 V222.97 H231.23 V214.71 H222.97 Z M231.23,214.71 V222.97 H239.48 V214.71 H231.23 Z M239.48,214.71 V222.97 H247.74 V214.71 H239.48 Z M8.26,222.97 V231.23 H16.52 V222.97 H8.26 Z M24.77,222.97 V231.23 H33.03 V222.97 H24.77 Z M33.03,222.97 V231.23 H41.29 V222.97 H33.03 Z M41.29,222.97 V231.23 H49.55 V222.97 H41.29 Z M57.81,222.97 V231.23 H66.06 V222.97 H57.81 Z M74.32,222.97 V231.23 H82.58 V222.97 H74.32 Z M82.58,222.97 V231.23 H90.84 V222.97 H82.58 Z M123.87,222.97 V231.23 H132.13 V222.97 H123.87 Z M132.13,222.97 V231.23 H140.39 V222.97 H132.13 Z M140.39,222.97 V231.23 H148.65 V222.97 H140.39 Z M148.65,222.97 V231.23 H156.90 V222.97 H148.65 Z M173.42,222.97 V231.23 H181.68 V222.97 H173.42 Z M189.94,222.97 V231.23 H198.19 V222.97 H189.94 Z M214.71,222.97 V231.23 H222.97 V222.97 H214.71 Z M222.97,222.97 V231.23 H231.23 V222.97 H222.97 Z M231.23,222.97 V231.23 H239.48 V222.97 H231.23 Z M239.48,222.97 V231.23 H247.74 V222.97 H239.48 Z M8.26,231.23 V239.48 H16.52 V231.23 H8.26 Z M57.81,231.23 V239.48 H66.06 V231.23 H57.81 Z M74.32,231.23 V239.48 H82.58 V231.23 H74.32 Z M82.58,231.23 V239.48 H90.84 V231.23 H82.58 Z M115.61,231.23 V239.48 H123.87 V231.23 H115.61 Z M148.65,231.23 V239.48 H156.90 V231.23 H148.65 Z M173.42,231.23 V239.48 H181.68 V231.23 H173.42 Z M198.19,231.23 V239.48 H206.45 V231.23 H198.19 Z M222.97,231.23 V239.48 H231.23 V231.23 H222.97 Z M8.26,239.48 V247.74 H16.52 V239.48 H8.26 Z M16.52,239.48 V247.74 H24.77 V239.48 H16.52 Z M24.77,239.48 V247.74 H33.03 V239.48 H24.77 Z M33.03,239.48 V247.74 H41.29 V239.48 H33.03 Z M41.29,239.48 V247.74 H49.55 V239.48 H41.29 Z M49.55,239.48 V247.74 H57.81 V239.48 H49.55 Z M57.81,239.48 V247.74 H66.06 V239.48 H57.81 Z M107.35,239.48 V247.74 H115.61 V239.48 H107.35 Z M115.61,239.48 V247.74 H123.87 V239.48 H115.61 Z M132.13,239.48 V247.74 H140.39 V239.48 H132.13 Z M148.65,239.48 V247.74 H156.90 V239.48 H148.65 Z M156.90,239.48 V247.74 H165.16 V239.48 H156.90 Z M173.42,239.48 V247.74 H181.68 V239.48 H173.42 Z M198.19,239.48 V247.74 H206.45 V239.48 H198.19 Z M206.45,239.48 V247.74 H214.71 V239.48 H206.45 Z M214.71,239.48 V247.74 H222.97 V239.48 H214.71 Z M231.23,239.48 V247.74 H239.48 V239.48 H231.23 Z " /></svg>