<?xml version="1.0" standalone="yes"?>
<svg xmlns="http://www.w3.org/2000/svg" version="1.1" viewBox="0 0 256 256">
  <rect x="0" y="0" width="256" height="256" style="fill:#FFFFFF;shape-rendering:crispEdges;"/>
  <path x="0" y="0" style="fill:#333;shape-rendering:crispEdges;" d="M5.45,5.45 V10.89 H10.89 V5.45 H5.45 Z M10.89,5.45 V10.89 H16.34 V5.45 H10.89 Z M16.34,5.45 V10.89 H21.79 V5.45 H16.34 Z M21.79,5.45 V10.89 H27.23 V5.45 H21.79 Z M27.23,5.45 V10.89 H32.68 V5.45 H27.23 Z M32.68,5.45 V10.89 H38.13 V5.45 H32.68 Z M38.13,5.45 V10.89 H43.57 V5.45 H38.13 Z M49.02,5.45 V10.89 H54.47 V5.45 H49.02 Z M54.47,5.45 V10.89 H59.91 V5.45 H54.47 Z M65.36,5.45 V10.89 H70.81 V5.45 H65.36 Z M76.26,5.45 V10.89 H81.70 V5.45 H76.26 Z M103.49,5.45 V10.89 H108.94 V5.45 H103.49 Z M114.38,5.45 V10.89 H119.83 V5.45 H114.38 Z M125.28,5.45 V10.89 H130.72 V5.45 H125.28 Z M136.17,5.45 V10.89 H141.62 V5.45 H136.17 Z M141.62,5.45 V10.89 H147.06 V5.45 H141.62 Z M147.06,5.45 V10.89 H152.51 V5.45 H147.06 Z M168.85,5.45 V10.89 H174.30 V5.45 H168.85 Z M185.19,5.45 V10.89 H190.64 V5.45 H185.19 Z M201.53,5.45 V10.89 H206.98 V5.45 H201.53 Z M212.43,5.45 V10.89 H217.87 V5.45 H212.43 Z M217.87,5.45 V10.89 H223.32 V5.45 H217.87 Z M223.32,5.45 V10.89 H228.77 V5.45 H223.32 Z M228.77,5.45 V10.89 H234.21 V5.45 H228.77 Z M234.21,5.45 V10.89 H239.66 V5.45 H234.21 Z M239.66,5.45 V10.89 H245.11 V5.45 H239.66 Z M245.11,5.45 V10.89 H250.55 V5.45 H245.11 Z M5.45,10.89 V16.34 H10.89 V10.89 H5.45 Z M38.13,10.89 V16.34 H43.57 V10.89 H38.13 Z M59.91,10.89 V16.34 H65.36 V10.89 H59.91 Z M65.36,10.89 V16.34 H70.81 V10.89 H65.36 Z M87.15,10.89 V16.34 H92.60 V10.89 H87.15 Z M103.49,10.89 V16.34 H108.94 V10.89 H103.49 Z M119.83,10.89 V16.34 H125.28 V10.89 H119.83 Z M125.28,10.89 V16.34 H130.72 V10.89 H125.28 Z M136.17,10.89 V16.34 H141.62 V10.89 H136.17 Z M147.06,10.89 V16.34 H152.51 V10.89 H147.06 Z M163.40,10.89 V16.34 H168.85 V10.89 H163.40 Z M168.85,10.89 V16.34 H174.30 V10.89 H168.85 Z M174.30,10.89 V16.34 H179.74 V10.89 H174.30 Z M179.74,10.89 V16.34 H185.19 V10.89 H179.74 Z M185.19,10.89 V16.34 H190.64 V10.89 H185.19 Z M196.09,10.89 V16.34 H201.53 V10.89 H196.09 Z M212.43,10.89 V16.34 H217.87 V10.89 H212.43 Z M245.11,10.89 V16.34 H250.55 V10.89 H245.11 Z M5.45,16.34 V21.79 H10.89 V16.34 H5.45 Z M16.34,16.34 V21.79 H21.79 V16.34 H16.34 Z M21.79,16.34 V21.79 H27.23 V16.34 H21.79 Z M27.23,16.34 V21.79 H32.68 V16.34 H27.23 Z M38.13,16.34 V21.79 H43.57 V16.34 H38.13 Z M81.70,16.34 V21.79 H87.15 V16.34 H81.70 Z M87.15,16.34 V21.79 H92.60 V16.34 H87.15 Z M92.60,16.34 V21.79 H98.04 V16.34 H92.60 Z M108.94,16.34 V21.79 H114.38 V16.34 H108.94 Z M130.72,16.34 V21.79 H136.17 V16.34 H130.72 Z M141.62,16.34 V21.79 H147.06 V16.34 H141.62 Z M147.06,16.34 V21.79 H152.51 V16.34 H147.06 Z M157.96,16.34 V21.79 H163.40 V16.34 H157.96 Z M196.09,16.34 V21.79 H201.53 V16.34 H196.09 Z M212.43,16.34 V21.79 H217.87 V16.34 H212.43 Z M223.32,16.34 V21.79 H228.77 V16.34 H223.32 Z M228.77,16.34 V21.79 H234.21 V16.34 H228.77 Z M234.21,16.34 V21.79 H239.66 V16.34 H234.21 Z M245.11,16.34 V21.79 H250.55 V16.34 H245.11 Z M5.45,21.79 V27.23 H10.89 V21.79 H5.45 Z M16.34,21.79 V27.23 H21.79 V21.79 H16.34 Z M21.79,21.79 V27.23 H27.23 V21.79 H21.79 Z M27.23,21.79 V27.23 H32.68 V21.79 H27.23 Z M38.13,21.79 V27.23 H43.57 V21.79 H38.13 Z M54.47,21.79 V27.23 H59.91 V21.79 H54.47 Z M65.36,21.79 V27.23 H70.81 V21.79 H65.36 Z M70.81,21.79 V27.23 H76.26 V21.79 H70.81 Z M76.26,21.79 V27.23 H81.70 V21.79 H76.26 Z M98.04,21.79 V27.23 H103.49 V21.79 H98.04 Z M108.94,21.79 V27.23 H114.38 V21.79 H108.94 Z M119.83,21.79 V27.23 H125.28 V21.79 H119.83 Z M125.28,21.79 V27.23 H130.72 V21.79 H125.28 Z M130.72,21.79 V27.23 H136.17 V21.79 H130.72 Z M141.62,21.79 V27.23 H147.06 V21.79 H141.62 Z M147.06,21.79 V27.23 H152.51 V21.79 H147.06 Z M152.51,21.79 V27.23 H157.96 V21.79 H152.51 Z M157.96,21.79 V27.23 H163.40 V21.79 H157.96 Z M174.30,21.79 V27.23 H179.74 V21.79 H174.30 Z M179.74,21.79 V27.23 H185.19 V21.79 H179.74 Z M185.19,21.79 V27.23 H190.64 V21.79 H185.19 Z M196.09,21.79 V27.23 H201.53 V21.79 H196.09 Z M201.53,21.79 V27.23 H206.98 V21.79 H201.53 Z M212.43,21.79 V27.23 H217.87 V21.79 H212.43 Z M223.32,21.79 V27.23 H228.77 V21.79 H223.32 Z M228.77,21.79 V27.23 H234.21 V21.79 H228.77 Z M234.21,21.79 V27.23 H239.66 V21.79 H234.21 Z M245.11,21.79 V27.23 H250.55 V21.79 H245.11 Z M5.45,27.23 V32.68 H10.89 V27.23 H5.45 Z M16.34,27.23 V32.68 H21.79 V27.23 H16.34 Z M21.79,27.23 V32.68 H27.23 V27.23 H21.79 Z M27.23,27.23 V32.68 H32.68 V27.23 H27.23 Z M38.13,27.23 V32.68 H43.57 V27.23 H38.13 Z M54.47,27.23 V32.68 H59.91 V27.23 H54.47 Z M70.81,27.23 V32.68 H76.26 V27.23 H70.81 Z M81.70,27.23 V32.68 H87.15 V27.23 H81.70 Z M92.60,27.23 V32.68 H98.04 V27.23 H92.60 Z M98.04,27.23 V32.68 H103.49 V27.23 H98.04 Z M103.49,27.23 V32.68 H108.94 V27.23 H103.49 Z M114.38,27.23 V32.68 H119.83 V27.23 H114.38 Z M119.83,27.23 V32.68 H125.28 V27.23 H119.83 Z M125.28,27.23 V32.68 H130.72 V27.23 H125.28 Z M130.72,27.23 V32.68 H136.17 V27.23 H130.72 Z M136.17,27.23 V32.68 H141.62 V27.23 H136.17 Z M147.06,27.23 V32.68 H152.51 V27.23 H147.06 Z M152.51,27.23 V32.68 H157.96 V27.23 H152.51 Z M163.40,27.23 V32.68 H168.85 V27.23 H163.40 Z M174.30,27.23 V32.68 H179.74 V27.23 H174.30 Z M185.19,27.23 V32.68 H190.64 V27.23 H185.19 Z M190.64,27.23 V32.68 H196.09 V27.23 H190.64 Z M196.09,27.23 V32.68 H201.53 V27.23 H196.09 Z M201.53,27.23 V32.68 H206.98 V27.23 H201.53 Z M212.43,27.23 V32.68 H217.87 V27.23 H212.43 Z M223.32,27.23 V32.68 H228.77 V27.23 H223.32 Z M228.77,27.23 V32.68 H234.21 V27.23 H228.77 Z M234.21,27.23 V32.68 H239.66 V27.23 H234.21 Z M245.11,27.23 V32.68 H250.55 V27.23 H245.11 Z M5.45,32.68 V38.13 H10.89 V32.68 H5.45 Z M38.13,32.68 V38.13 H43.57 V32.68 H38.13 Z M54.47,32.68 V38.13 H59.91 V32.68 H54.47 Z M65.36,32.68 V38.13 H70.81 V32.68 H65.36 Z M70.81,32.68 V38.13 H76.26 V32.68 H70.81 Z M81.70,32.68 V38.13 H87.15 V32.68 H81.70 Z M92.60,32.68 V38.13 H98.04 V32.68 H92.60 Z M98.04,32.68 V38.13 H103.49 V32.68 H98.04 Z M103.49,32.68 V38.13 H108.94 V32.68 H103.49 Z M108.94,32.68 V38.13 H114.38 V32.68 H108.94 Z M114.38,32.68 V38.13 H119.83 V32.68 H114.38 Z M136.17,32.68 V38.13 H141.62 V32.68 H136.17 Z M141.62,32.68 V38.13 H147.06 V32.68 H141.62 Z M152.51,32.68 V38.13 H157.96 V32.68 H152.51 Z M168.85,32.68 V38.13 H174.30 V32.68 H168.85 Z M179.74,32.68 V38.13 H185.19 V32.68 H179.74 Z M185.19,32.68 V38.13 H190.64 V32.68 H185.19 Z M212.43,32.68 V38.13 H217.87 V32.68 H212.43 Z M245.11,32.68 V38.13 H250.55 V32.68 H245.11 Z M5.45,38.13 V43.57 H10.89 V38.13 H5.45 Z M10.89,38.13 V43.57 H16.34 V38.13 H10.89 Z M16.34,38.13 V43.57 H21.79 V38.13 H16.34 Z M21.79,38.13 V43.57 H27.23 V38.13 H21.79 Z M27.23,38.13 V43.57 H32.68 V38.13 H27.23 Z M32.68,38.13 V43.57 H38.13 V38.13 H32.68 Z M38.13,38.13 V43.57 H43.57 V38.13 H38.13 Z M49.02,38.13 V43.57 H54.47 V38.13 H49.02 Z M59.91,38.13 V43.57 H65.36 V38.13 H59.91 Z M70.81,38.13 V43.57 H76.26 V38.13 H70.81 Z M81.70,38.13 V43.57 H87.15 V38.13 H81.70 Z M92.60,38.13 V43.57 H98.04 V38.13 H92.60 Z M103.49,38.13 V43.57 H108.94 V38.13 H103.49 Z M114.38,38.13 V43.57 H119.83 V38.13 H114.38 Z M125.28,38.13 V43.57 H130.72 V38.13 H125.28 Z M136.17,38.13 V43.57 H141.62 V38.13 H136.17 Z M147.06,38.13 V43.57 H152.51 V38.13 H147.06 Z M157.96,38.13 V43.57 H163.40 V38.13 H157.96 Z M168.85,38.13 V43.57 H174.30 V38.13 H168.85 Z M179.74,38.13 V43.57 H185.19 V38.13 H179.74 Z M190.64,38.13 V43.57 H196.09 V38.13 H190.64 Z M201.53,38.13 V43.57 H206.98 V38.13 H201.53 Z M212.43,38.13 V43.57 H217.87 V38.13 H212.43 Z M217.87,38.13 V43.57 H223.32 V38.13 H217.87 Z M223.32,38.13 V43.57 H228.77 V38.13 H223.32 Z M228.77,38.13 V43.57 H234.21 V38.13 H228.77 Z M234.21,38.13 V43.57 H239.66 V38.13 H234.21 Z M239.66,38.13 V43.57 H245.11 V38.13 H239.66 Z M245.11,38.13 V43.57 H250.55 V38.13 H245.11 Z M54.47,43.57 V49.02 H59.91 V43.57 H54.47 Z M65.36,43.57 V49.02 H70.81 V43.57 H65.36 Z M70.81,43.57 V49.02 H76.26 V43.57 H70.81 Z M108.94,43.57 V49.02 H114.38 V43.57 H108.94 Z M114.38,43.57 V49.02 H119.83 V43.57 H114.38 Z M136.17,43.57 V49.02 H141.62 V43.57 H136.17 Z M141.62,43.57 V49.02 H147.06 V43.57 H141.62 Z M152.51,43.57 V49.02 H157.96 V43.57 H152.51 Z M157.96,43.57 V49.02 H163.40 V43.57 H157.96 Z M163.40,43.57 V49.02 H168.85 V43.57 H163.40 Z M168.85,43.57 V49.02 H174.30 V43.57 H168.85 Z M185.19,43.57 V49.02 H190.64 V43.57 H185.19 Z M190.64,43.57 V49.02 H196.09 V43.57 H190.64 Z M196.09,43.57 V49.02 H201.53 V43.57 H196.09 Z M201.53,43.57 V49.02 H206.98 V43.57 H201.53 Z M10.89,49.02 V54.47 H16.34 V49.02 H10.89 Z M16.34,49.02 V54.47 H21.79 V49.02 H16.34 Z M21.79,49.02 V54.47 H27.23 V49.02 H21.79 Z M38.13,49.02 V54.47 H43.57 V49.02 H38.13 Z M43.57,49.02 V54.47 H49.02 V49.02 H43.57 Z M49.02,49.02 V54.47 H54.47 V49.02 H49.02 Z M54.47,49.02 V54.47 H59.91 V49.02 H54.47 Z M59.91,49.02 V54.47 H65.36 V49.02 H59.91 Z M65.36,49.02 V54.47 H70.81 V49.02 H65.36 Z M76.26,49.02 V54.47 H81.70 V49.02 H76.26 Z M87.15,49.02 V54.47 H92.60 V49.02 H87.15 Z M92.60,49.02 V54.47 H98.04 V49.02 H92.60 Z M98.04,49.02 V54.47 H103.49 V49.02 H98.04 Z M114.38,49.02 V54.47 H119.83 V49.02 H114.38 Z M119.83,49.02 V54.47 H125.28 V49.02 H119.83 Z M125.28,49.02 V54.47 H130.72 V49.02 H125.28 Z M130.72,49.02 V54.47 H136.17 V49.02 H130.72 Z M136.17,49.02 V54.47 H141.62 V49.02 H136.17 Z M141.62,49.02 V54.47 H147.06 V49.02 H141.62 Z M147.06,49.02 V54.47 H152.51 V49.02 H147.06 Z M157.96,49.02 V54.47 H163.40 V49.02 H157.96 Z M168.85,49.02 V54.47 H174.30 V49.02 H168.85 Z M174.30,49.02 V54.47 H179.74 V49.02 H174.30 Z M179.74,49.02 V54.47 H185.19 V49.02 H179.74 Z M206.98,49.02 V54.47 H212.43 V49.02 H206.98 Z M245.11,49.02 V54.47 H250.55 V49.02 H245.11 Z M5.45,54.47 V59.91 H10.89 V54.47 H5.45 Z M10.89,54.47 V59.91 H16.34 V54.47 H10.89 Z M59.91,54.47 V59.91 H65.36 V54.47 H59.91 Z M70.81,54.47 V59.91 H76.26 V54.47 H70.81 Z M76.26,54.47 V59.91 H81.70 V54.47 H76.26 Z M87.15,54.47 V59.91 H92.60 V54.47 H87.15 Z M103.49,54.47 V59.91 H108.94 V54.47 H103.49 Z M119.83,54.47 V59.91 H125.28 V54.47 H119.83 Z M130.72,54.47 V59.91 H136.17 V54.47 H130.72 Z M174.30,54.47 V59.91 H179.74 V54.47 H174.30 Z M190.64,54.47 V59.91 H196.09 V54.47 H190.64 Z M201.53,54.47 V59.91 H206.98 V54.47 H201.53 Z M206.98,54.47 V59.91 H212.43 V54.47 H206.98 Z M228.77,54.47 V59.91 H234.21 V54.47 H228.77 Z M10.89,59.91 V65.36 H16.34 V59.91 H10.89 Z M21.79,59.91 V65.36 H27.23 V59.91 H21.79 Z M27.23,59.91 V65.36 H32.68 V59.91 H27.23 Z M38.13,59.91 V65.36 H43.57 V59.91 H38.13 Z M59.91,59.91 V65.36 H65.36 V59.91 H59.91 Z M65.36,59.91 V65.36 H70.81 V59.91 H65.36 Z M76.26,59.91 V65.36 H81.70 V59.91 H76.26 Z M87.15,59.91 V65.36 H92.60 V59.91 H87.15 Z M92.60,59.91 V65.36 H98.04 V59.91 H92.60 Z M103.49,59.91 V65.36 H108.94 V59.91 H103.49 Z M125.28,59.91 V65.36 H130.72 V59.91 H125.28 Z M136.17,59.91 V65.36 H141.62 V59.91 H136.17 Z M152.51,59.91 V65.36 H157.96 V59.91 H152.51 Z M163.40,59.91 V65.36 H168.85 V59.91 H163.40 Z M190.64,59.91 V65.36 H196.09 V59.91 H190.64 Z M201.53,59.91 V65.36 H206.98 V59.91 H201.53 Z M206.98,59.91 V65.36 H212.43 V59.91 H206.98 Z M217.87,59.91 V65.36 H223.32 V59.91 H217.87 Z M234.21,59.91 V65.36 H239.66 V59.91 H234.21 Z M245.11,59.91 V65.36 H250.55 V59.91 H245.11 Z M5.45,65.36 V70.81 H10.89 V65.36 H5.45 Z M10.89,65.36 V70.81 H16.34 V65.36 H10.89 Z M21.79,65.36 V70.81 H27.23 V65.36 H21.79 Z M27.23,65.36 V70.81 H32.68 V65.36 H27.23 Z M43.57,65.36 V70.81 H49.02 V65.36 H43.57 Z M49.02,65.36 V70.81 H54.47 V65.36 H49.02 Z M54.47,65.36 V70.81 H59.91 V65.36 H54.47 Z M59.91,65.36 V70.81 H65.36 V65.36 H59.91 Z M65.36,65.36 V70.81 H70.81 V65.36 H65.36 Z M70.81,65.36 V70.81 H76.26 V65.36 H70.81 Z M81.70,65.36 V70.81 H87.15 V65.36 H81.70 Z M92.60,65.36 V70.81 H98.04 V65.36 H92.60 Z M114.38,65.36 V70.81 H119.83 V65.36 H114.38 Z M119.83,65.36 V70.81 H125.28 V65.36 H119.83 Z M152.51,65.36 V70.81 H157.96 V65.36 H152.51 Z M185.19,65.36 V70.81 H190.64 V65.36 H185.19 Z M190.64,65.36 V70.81 H196.09 V65.36 H190.64 Z M196.09,65.36 V70.81 H201.53 V65.36 H196.09 Z M201.53,65.36 V70.81 H206.98 V65.36 H201.53 Z M206.98,65.36 V70.81 H212.43 V65.36 H206.98 Z M212.43,65.36 V70.81 H217.87 V65.36 H212.43 Z M228.77,65.36 V70.81 H234.21 V65.36 H228.77 Z M234.21,65.36 V70.81 H239.66 V65.36 H234.21 Z M16.34,70.81 V76.26 H21.79 V70.81 H16.34 Z M21.79,70.81 V76.26 H27.23 V70.81 H21.79 Z M38.13,70.81 V76.26 H43.57 V70.81 H38.13 Z M59.91,70.81 V76.26 H65.36 V70.81 H59.91 Z M70.81,70.81 V76.26 H76.26 V70.81 H70.81 Z M87.15,70.81 V76.26 H92.60 V70.81 H87.15 Z M92.60,70.81 V76.26 H98.04 V70.81 H92.60 Z M98.04,70.81 V76.26 H103.49 V70.81 H98.04 Z M103.49,70.81 V76.26 H108.94 V70.81 H103.49 Z M108.94,70.81 V76.26 H114.38 V70.81 H108.94 Z M125.28,70.81 V76.26 H130.72 V70.81 H125.28 Z M130.72,70.81 V76.26 H136.17 V70.81 H130.72 Z M136.17,70.81 V76.26 H141.62 V70.81 H136.17 Z M141.62,70.81 V76.26 H147.06 V70.81 H141.62 Z M147.06,70.81 V76.26 H152.51 V70.81 H147.06 Z M157.96,70.81 V76.26 H163.40 V70.81 H157.96 Z M163.40,70.81 V76.26 H168.85 V70.81 H163.40 Z M168.85,70.81 V76.26 H174.30 V70.81 H168.85 Z M174.30,70.81 V76.26 H179.74 V70.81 H174.30 Z M185.19,70.81 V76.26 H190.64 V70.81 H185.19 Z M190.64,70.81 V76.26 H196.09 V70.81 H190.64 Z M201.53,70.81 V76.26 H206.98 V70.81 H201.53 Z M228.77,70.81 V76.26 H234.21 V70.81 H228.77 Z M239.66,70.81 V76.26 H245.11 V70.81 H239.66 Z M5.45,76.26 V81.70 H10.89 V76.26 H5.45 Z M10.89,76.26 V81.70 H16.34 V76.26 H10.89 Z M21.79,76.26 V81.70 H27.23 V76.26 H21.79 Z M27.23,76.26 V81.70 H32.68 V76.26 H27.23 Z M49.02,76.26 V81.70 H54.47 V76.26 H49.02 Z M54.47,76.26 V81.70 H59.91 V76.26 H54.47 Z M59.91,76.26 V81.70 H65.36 V76.26 H59.91 Z M81.70,76.26 V81.70 H87.15 V76.26 H81.70 Z M87.15,76.26 V81.70 H92.60 V76.26 H87.15 Z M103.49,76.26 V81.70 H108.94 V76.26 H103.49 Z M119.83,76.26 V81.70 H125.28 V76.26 H119.83 Z M125.28,76.26 V81.70 H130.72 V76.26 H125.28 Z M130.72,76.26 V81.70 H136.17 V76.26 H130.72 Z M136.17,76.26 V81.70 H141.62 V76.26 H136.17 Z M141.62,76.26 V81.70 H147.06 V76.26 H141.62 Z M152.51,76.26 V81.70 H157.96 V76.26 H152.51 Z M157.96,76.26 V81.70 H163.40 V76.26 H157.96 Z M163.40,76.26 V81.70 H168.85 V76.26 H163.40 Z M179.74,76.26 V81.70 H185.19 V76.26 H179.74 Z M190.64,76.26 V81.70 H196.09 V76.26 H190.64 Z M201.53,76.26 V81.70 H206.98 V76.26 H201.53 Z M212.43,76.26 V81.70 H217.87 V76.26 H212.43 Z M217.87,76.26 V81.70 H223.32 V76.26 H217.87 Z M223.32,76.26 V81.70 H228.77 V76.26 H223.32 Z M228.77,76.26 V81.70 H234.21 V76.26 H228.77 Z M234.21,76.26 V81.70 H239.66 V76.26 H234.21 Z M10.89,81.70 V87.15 H16.34 V81.70 H10.89 Z M16.34,81.70 V87.15 H21.79 V81.70 H16.34 Z M38.13,81.70 V87.15 H43.57 V81.70 H38.13 Z M49.02,81.70 V87.15 H54.47 V81.70 H49.02 Z M70.81,81.70 V87.15 H76.26 V81.70 H70.81 Z M81.70,81.70 V87.15 H87.15 V81.70 H81.70 Z M87.15,81.70 V87.15 H92.60 V81.70 H87.15 Z M98.04,81.70 V87.15 H103.49 V81.70 H98.04 Z M119.83,81.70 V87.15 H125.28 V81.70 H119.83 Z M125.28,81.70 V87.15 H130.72 V81.70 H125.28 Z M130.72,81.70 V87.15 H136.17 V81.70 H130.72 Z M136.17,81.70 V87.15 H141.62 V81.70 H136.17 Z M147.06,81.70 V87.15 H152.51 V81.70 H147.06 Z M152.51,81.70 V87.15 H157.96 V81.70 H152.51 Z M163.40,81.70 V87.15 H168.85 V81.70 H163.40 Z M190.64,81.70 V87.15 H196.09 V81.70 H190.64 Z M206.98,81.70 V87.15 H212.43 V81.70 H206.98 Z M212.43,81.70 V87.15 H217.87 V81.70 H212.43 Z M223.32,81.70 V87.15 H228.77 V81.70 H223.32 Z M245.11,81.70 V87.15 H250.55 V81.70 H245.11 Z M10.89,87.15 V92.60 H16.34 V87.15 H10.89 Z M16.34,87.15 V92.60 H21.79 V87.15 H16.34 Z M21.79,87.15 V92.60 H27.23 V87.15 H21.79 Z M49.02,87.15 V92.60 H54.47 V87.15 H49.02 Z M59.91,87.15 V92.60 H65.36 V87.15 H59.91 Z M76.26,87.15 V92.60 H81.70 V87.15 H76.26 Z M92.60,87.15 V92.60 H98.04 V87.15 H92.60 Z M98.04,87.15 V92.60 H103.49 V87.15 H98.04 Z M103.49,87.15 V92.60 H108.94 V87.15 H103.49 Z M108.94,87.15 V92.60 H114.38 V87.15 H108.94 Z M125.28,87.15 V92.60 H130.72 V87.15 H125.28 Z M130.72,87.15 V92.60 H136.17 V87.15 H130.72 Z M147.06,87.15 V92.60 H152.51 V87.15 H147.06 Z M168.85,87.15 V92.60 H174.30 V87.15 H168.85 Z M185.19,87.15 V92.60 H190.64 V87.15 H185.19 Z M190.64,87.15 V92.60 H196.09 V87.15 H190.64 Z M201.53,87.15 V92.60 H206.98 V87.15 H201.53 Z M212.43,87.15 V92.60 H217.87 V87.15 H212.43 Z M234.21,87.15 V92.60 H239.66 V87.15 H234.21 Z M10.89,92.60 V98.04 H16.34 V92.60 H10.89 Z M16.34,92.60 V98.04 H21.79 V92.60 H16.34 Z M27.23,92.60 V98.04 H32.68 V92.60 H27.23 Z M32.68,92.60 V98.04 H38.13 V92.60 H32.68 Z M38.13,92.60 V98.04 H43.57 V92.60 H38.13 Z M43.57,92.60 V98.04 H49.02 V92.60 H43.57 Z M76.26,92.60 V98.04 H81.70 V92.60 H76.26 Z M81.70,92.60 V98.04 H87.15 V92.60 H81.70 Z M92.60,92.60 V98.04 H98.04 V92.60 H92.60 Z M98.04,92.60 V98.04 H103.49 V92.60 H98.04 Z M108.94,92.60 V98.04 H114.38 V92.60 H108.94 Z M114.38,92.60 V98.04 H119.83 V92.60 H114.38 Z M130.72,92.60 V98.04 H136.17 V92.60 H130.72 Z M136.17,92.60 V98.04 H141.62 V92.60 H136.17 Z M152.51,92.60 V98.04 H157.96 V92.60 H152.51 Z M168.85,92.60 V98.04 H174.30 V92.60 H168.85 Z M174.30,92.60 V98.04 H179.74 V92.60 H174.30 Z M201.53,92.60 V98.04 H206.98 V92.60 H201.53 Z M206.98,92.60 V98.04 H212.43 V92.60 H206.98 Z M217.87,92.60 V98.04 H223.32 V92.60 H217.87 Z M223.32,92.60 V98.04 H228.77 V92.60 H223.32 Z M245.11,92.60 V98.04 H250.55 V92.60 H245.11 Z M5.45,98.04 V103.49 H10.89 V98.04 H5.45 Z M43.57,98.04 V103.49 H49.02 V98.04 H43.57 Z M54.47,98.04 V103.49 H59.91 V98.04 H54.47 Z M59.91,98.04 V103.49 H65.36 V98.04 H59.91 Z M76.26,98.04 V103.49 H81.70 V98.04 H76.26 Z M87.15,98.04 V103.49 H92.60 V98.04 H87.15 Z M108.94,98.04 V103.49 H114.38 V98.04 H108.94 Z M114.38,98.04 V103.49 H119.83 V98.04 H114.38 Z M119.83,98.04 V103.49 H125.28 V98.04 H119.83 Z M125.28,98.04 V103.49 H130.72 V98.04 H125.28 Z M147.06,98.04 V103.49 H152.51 V98.04 H147.06 Z M152.51,98.04 V103.49 H157.96 V98.04 H152.51 Z M157.96,98.04 V103.49 H163.40 V98.04 H157.96 Z M168.85,98.04 V103.49 H174.30 V98.04 H168.85 Z M174.30,98.04 V103.49 H179.74 V98.04 H174.30 Z M179.74,98.04 V103.49 H185.19 V98.04 H179.74 Z M185.19,98.04 V103.49 H190.64 V98.04 H185.19 Z M201.53,98.04 V103.49 H206.98 V98.04 H201.53 Z M206.98,98.04 V103.49 H212.43 V98.04 H206.98 Z M223.32,98.04 V103.49 H228.77 V98.04 H223.32 Z M228.77,98.04 V103.49 H234.21 V98.04 H228.77 Z M21.79,103.49 V108.94 H27.23 V103.49 H21.79 Z M32.68,103.49 V108.94 H38.13 V103.49 H32.68 Z M38.13,103.49 V108.94 H43.57 V103.49 H38.13 Z M43.57,103.49 V108.94 H49.02 V103.49 H43.57 Z M49.02,103.49 V108.94 H54.47 V103.49 H49.02 Z M54.47,103.49 V108.94 H59.91 V103.49 H54.47 Z M59.91,103.49 V108.94 H65.36 V103.49 H59.91 Z M65.36,103.49 V108.94 H70.81 V103.49 H65.36 Z M70.81,103.49 V108.94 H76.26 V103.49 H70.81 Z M87.15,103.49 V108.94 H92.60 V103.49 H87.15 Z M92.60,103.49 V108.94 H98.04 V103.49 H92.60 Z M108.94,103.49 V108.94 H114.38 V103.49 H108.94 Z M114.38,103.49 V108.94 H119.83 V103.49 H114.38 Z M119.83,103.49 V108.94 H125.28 V103.49 H119.83 Z M141.62,103.49 V108.94 H147.06 V103.49 H141.62 Z M157.96,103.49 V108.94 H163.40 V103.49 H157.96 Z M163.40,103.49 V108.94 H168.85 V103.49 H163.40 Z M201.53,103.49 V108.94 H206.98 V103.49 H201.53 Z M212.43,103.49 V108.94 H217.87 V103.49 H212.43 Z M228.77,103.49 V108.94 H234.21 V103.49 H228.77 Z M234.21,103.49 V108.94 H239.66 V103.49 H234.21 Z M239.66,103.49 V108.94 H245.11 V103.49 H239.66 Z M10.89,108.94 V114.38 H16.34 V108.94 H10.89 Z M21.79,108.94 V114.38 H27.23 V108.94 H21.79 Z M27.23,108.94 V114.38 H32.68 V108.94 H27.23 Z M43.57,108.94 V114.38 H49.02 V108.94 H43.57 Z M65.36,108.94 V114.38 H70.81 V108.94 H65.36 Z M70.81,108.94 V114.38 H76.26 V108.94 H70.81 Z M76.26,108.94 V114.38 H81.70 V108.94 H76.26 Z M87.15,108.94 V114.38 H92.60 V108.94 H87.15 Z M92.60,108.94 V114.38 H98.04 V108.94 H92.60 Z M98.04,108.94 V114.38 H103.49 V108.94 H98.04 Z M103.49,108.94 V114.38 H108.94 V108.94 H103.49 Z M108.94,108.94 V114.38 H114.38 V108.94 H108.94 Z M114.38,108.94 V114.38 H119.83 V108.94 H114.38 Z M119.83,108.94 V114.38 H125.28 V108.94 H119.83 Z M130.72,108.94 V114.38 H136.17 V108.94 H130.72 Z M136.17,108.94 V114.38 H141.62 V108.94 H136.17 Z M141.62,108.94 V114.38 H147.06 V108.94 H141.62 Z M152.51,108.94 V114.38 H157.96 V108.94 H152.51 Z M168.85,108.94 V114.38 H174.30 V108.94 H168.85 Z M185.19,108.94 V114.38 H190.64 V108.94 H185.19 Z M201.53,108.94 V114.38 H206.98 V108.94 H201.53 Z M212.43,108.94 V114.38 H217.87 V108.94 H212.43 Z M217.87,108.94 V114.38 H223.32 V108.94 H217.87 Z M239.66,108.94 V114.38 H245.11 V108.94 H239.66 Z M245.11,108.94 V114.38 H250.55 V108.94 H245.11 Z M5.45,114.38 V119.83 H10.89 V114.38 H5.45 Z M10.89,114.38 V119.83 H16.34 V114.38 H10.89 Z M16.34,114.38 V119.83 H21.79 V114.38 H16.34 Z M27.23,114.38 V119.83 H32.68 V114.38 H27.23 Z M32.68,114.38 V119.83 H38.13 V114.38 H32.68 Z M38.13,114.38 V119.83 H43.57 V114.38 H38.13 Z M43.57,114.38 V119.83 H49.02 V114.38 H43.57 Z M49.02,114.38 V119.83 H54.47 V114.38 H49.02 Z M65.36,114.38 V119.83 H70.81 V114.38 H65.36 Z M76.26,114.38 V119.83 H81.70 V114.38 H76.26 Z M87.15,114.38 V119.83 H92.60 V114.38 H87.15 Z M98.04,114.38 V119.83 H103.49 V114.38 H98.04 Z M114.38,114.38 V119.83 H119.83 V114.38 H114.38 Z M119.83,114.38 V119.83 H125.28 V114.38 H119.83 Z M125.28,114.38 V119.83 H130.72 V114.38 H125.28 Z M130.72,114.38 V119.83 H136.17 V114.38 H130.72 Z M136.17,114.38 V119.83 H141.62 V114.38 H136.17 Z M141.62,114.38 V119.83 H147.06 V114.38 H141.62 Z M152.51,114.38 V119.83 H157.96 V114.38 H152.51 Z M157.96,114.38 V119.83 H163.40 V114.38 H157.96 Z M179.74,114.38 V119.83 H185.19 V114.38 H179.74 Z M185.19,114.38 V119.83 H190.64 V114.38 H185.19 Z M196.09,114.38 V119.83 H201.53 V114.38 H196.09 Z M201.53,114.38 V119.83 H206.98 V114.38 H201.53 Z M206.98,114.38 V119.83 H212.43 V114.38 H206.98 Z M212.43,114.38 V119.83 H217.87 V114.38 H212.43 Z M217.87,114.38 V119.83 H223.32 V114.38 H217.87 Z M223.32,114.38 V119.83 H228.77 V114.38 H223.32 Z M228.77,114.38 V119.83 H234.21 V114.38 H228.77 Z M239.66,114.38 V119.83 H245.11 V114.38 H239.66 Z M27.23,119.83 V125.28 H32.68 V119.83 H27.23 Z M49.02,119.83 V125.28 H54.47 V119.83 H49.02 Z M54.47,119.83 V125.28 H59.91 V119.83 H54.47 Z M65.36,119.83 V125.28 H70.81 V119.83 H65.36 Z M70.81,119.83 V125.28 H76.26 V119.83 H70.81 Z M98.04,119.83 V125.28 H103.49 V119.83 H98.04 Z M108.94,119.83 V125.28 H114.38 V119.83 H108.94 Z M114.38,119.83 V125.28 H119.83 V119.83 H114.38 Z M136.17,119.83 V125.28 H141.62 V119.83 H136.17 Z M141.62,119.83 V125.28 H147.06 V119.83 H141.62 Z M147.06,119.83 V125.28 H152.51 V119.83 H147.06 Z M152.51,119.83 V125.28 H157.96 V119.83 H152.51 Z M185.19,119.83 V125.28 H190.64 V119.83 H185.19 Z M201.53,119.83 V125.28 H206.98 V119.83 H201.53 Z M223.32,119.83 V125.28 H228.77 V119.83 H223.32 Z M228.77,119.83 V125.28 H234.21 V119.83 H228.77 Z M234.21,119.83 V125.28 H239.66 V119.83 H234.21 Z M27.23,125.28 V130.72 H32.68 V125.28 H27.23 Z M38.13,125.28 V130.72 H43.57 V125.28 H38.13 Z M49.02,125.28 V130.72 H54.47 V125.28 H49.02 Z M54.47,125.28 V130.72 H59.91 V125.28 H54.47 Z M87.15,125.28 V130.72 H92.60 V125.28 H87.15 Z M98.04,125.28 V130.72 H103.49 V125.28 H98.04 Z M114.38,125.28 V130.72 H119.83 V125.28 H114.38 Z M125.28,125.28 V130.72 H130.72 V125.28 H125.28 Z M136.17,125.28 V130.72 H141.62 V125.28 H136.17 Z M147.06,125.28 V130.72 H152.51 V125.28 H147.06 Z M152.51,125.28 V130.72 H157.96 V125.28 H152.51 Z M163.40,125.28 V130.72 H168.85 V125.28 H163.40 Z M174.30,125.28 V130.72 H179.74 V125.28 H174.30 Z M190.64,125.28 V130.72 H196.09 V125.28 H190.64 Z M196.09,125.28 V130.72 H201.53 V125.28 H196.09 Z M201.53,125.28 V130.72 H206.98 V125.28 H201.53 Z M212.43,125.28 V130.72 H217.87 V125.28 H212.43 Z M223.32,125.28 V130.72 H228.77 V125.28 H223.32 Z M228.77,125.28 V130.72 H234.21 V125.28 H228.77 Z M234.21,125.28 V130.72 H239.66 V125.28 H234.21 Z M239.66,125.28 V130.72 H245.11 V125.28 H239.66 Z M5.45,130.72 V136.17 H10.89 V130.72 H5.45 Z M16.34,130.72 V136.17 H21.79 V130.72 H16.34 Z M27.23,130.72 V136.17 H32.68 V130.72 H27.23 Z M49.02,130.72 V136.17 H54.47 V130.72 H49.02 Z M59.91,130.72 V136.17 H65.36 V130.72 H59.91 Z M81.70,130.72 V136.17 H87.15 V130.72 H81.70 Z M87.15,130.72 V136.17 H92.60 V130.72 H87.15 Z M92.60,130.72 V136.17 H98.04 V130.72 H92.60 Z M108.94,130.72 V136.17 H114.38 V130.72 H108.94 Z M114.38,130.72 V136.17 H119.83 V130.72 H114.38 Z M136.17,130.72 V136.17 H141.62 V130.72 H136.17 Z M141.62,130.72 V136.17 H147.06 V130.72 H141.62 Z M152.51,130.72 V136.17 H157.96 V130.72 H152.51 Z M163.40,130.72 V136.17 H168.85 V130.72 H163.40 Z M179.74,130.72 V136.17 H185.19 V130.72 H179.74 Z M196.09,130.72 V136.17 H201.53 V130.72 H196.09 Z M201.53,130.72 V136.17 H206.98 V130.72 H201.53 Z M223.32,130.72 V136.17 H228.77 V130.72 H223.32 Z M228.77,130.72 V136.17 H234.21 V130.72 H228.77 Z M239.66,130.72 V136.17 H245.11 V130.72 H239.66 Z M245.11,130.72 V136.17 H250.55 V130.72 H245.11 Z M10.89,136.17 V141.62 H16.34 V136.17 H10.89 Z M16.34,136.17 V141.62 H21.79 V136.17 H16.34 Z M27.23,136.17 V141.62 H32.68 V136.17 H27.23 Z M32.68,136.17 V141.62 H38.13 V136.17 H32.68 Z M38.13,136.17 V141.62 H43.57 V136.17 H38.13 Z M43.57,136.17 V141.62 H49.02 V136.17 H43.57 Z M49.02,136.17 V141.62 H54.47 V136.17 H49.02 Z M54.47,136.17 V141.62 H59.91 V136.17 H54.47 Z M81.70,136.17 V141.62 H87.15 V136.17 H81.70 Z M87.15,136.17 V141.62 H92.60 V136.17 H87.15 Z M103.49,136.17 V141.62 H108.94 V136.17 H103.49 Z M108.94,136.17 V141.62 H114.38 V136.17 H108.94 Z M114.38,136.17 V141.62 H119.83 V136.17 H114.38 Z M119.83,136.17 V141.62 H125.28 V136.17 H119.83 Z M125.28,136.17 V141.62 H130.72 V136.17 H125.28 Z M130.72,136.17 V141.62 H136.17 V136.17 H130.72 Z M136.17,136.17 V141.62 H141.62 V136.17 H136.17 Z M141.62,136.17 V141.62 H147.06 V136.17 H141.62 Z M152.51,136.17 V141.62 H157.96 V136.17 H152.51 Z M163.40,136.17 V141.62 H168.85 V136.17 H163.40 Z M168.85,136.17 V141.62 H174.30 V136.17 H168.85 Z M174.30,136.17 V141.62 H179.74 V136.17 H174.30 Z M179.74,136.17 V141.62 H185.19 V136.17 H179.74 Z M185.19,136.17 V141.62 H190.64 V136.17 H185.19 Z M196.09,136.17 V141.62 H201.53 V136.17 H196.09 Z M201.53,136.17 V141.62 H206.98 V136.17 H201.53 Z M206.98,136.17 V141.62 H212.43 V136.17 H206.98 Z M212.43,136.17 V141.62 H217.87 V136.17 H212.43 Z M217.87,136.17 V141.62 H223.32 V136.17 H217.87 Z M223.32,136.17 V141.62 H228.77 V136.17 H223.32 Z M228.77,136.17 V141.62 H234.21 V136.17 H228.77 Z M245.11,136.17 V141.62 H250.55 V136.17 H245.11 Z M16.34,141.62 V147.06 H21.79 V141.62 H16.34 Z M27.23,141.62 V147.06 H32.68 V141.62 H27.23 Z M49.02,141.62 V147.06 H54.47 V141.62 H49.02 Z M54.47,141.62 V147.06 H59.91 V141.62 H54.47 Z M59.91,141.62 V147.06 H65.36 V141.62 H59.91 Z M76.26,141.62 V147.06 H81.70 V141.62 H76.26 Z M92.60,141.62 V147.06 H98.04 V141.62 H92.60 Z M98.04,141.62 V147.06 H103.49 V141.62 H98.04 Z M103.49,141.62 V147.06 H108.94 V141.62 H103.49 Z M108.94,141.62 V147.06 H114.38 V141.62 H108.94 Z M114.38,141.62 V147.06 H119.83 V141.62 H114.38 Z M157.96,141.62 V147.06 H163.40 V141.62 H157.96 Z M163.40,141.62 V147.06 H168.85 V141.62 H163.40 Z M174.30,141.62 V147.06 H179.74 V141.62 H174.30 Z M179.74,141.62 V147.06 H185.19 V141.62 H179.74 Z M185.19,141.62 V147.06 H190.64 V141.62 H185.19 Z M196.09,141.62 V147.06 H201.53 V141.62 H196.09 Z M201.53,141.62 V147.06 H206.98 V141.62 H201.53 Z M206.98,141.62 V147.06 H212.43 V141.62 H206.98 Z M217.87,141.62 V147.06 H223.32 V141.62 H217.87 Z M228.77,141.62 V147.06 H234.21 V141.62 H228.77 Z M234.21,141.62 V147.06 H239.66 V141.62 H234.21 Z M245.11,141.62 V147.06 H250.55 V141.62 H245.11 Z M5.45,147.06 V152.51 H10.89 V147.06 H5.45 Z M10.89,147.06 V152.51 H16.34 V147.06 H10.89 Z M21.79,147.06 V152.51 H27.23 V147.06 H21.79 Z M38.13,147.06 V152.51 H43.57 V147.06 H38.13 Z M54.47,147.06 V152.51 H59.91 V147.06 H54.47 Z M59.91,147.06 V152.51 H65.36 V147.06 H59.91 Z M70.81,147.06 V152.51 H76.26 V147.06 H70.81 Z M81.70,147.06 V152.51 H87.15 V147.06 H81.70 Z M87.15,147.06 V152.51 H92.60 V147.06 H87.15 Z M92.60,147.06 V152.51 H98.04 V147.06 H92.60 Z M119.83,147.06 V152.51 H125.28 V147.06 H119.83 Z M130.72,147.06 V152.51 H136.17 V147.06 H130.72 Z M136.17,147.06 V152.51 H141.62 V147.06 H136.17 Z M147.06,147.06 V152.51 H152.51 V147.06 H147.06 Z M157.96,147.06 V152.51 H163.40 V147.06 H157.96 Z M174.30,147.06 V152.51 H179.74 V147.06 H174.30 Z M179.74,147.06 V152.51 H185.19 V147.06 H179.74 Z M185.19,147.06 V152.51 H190.64 V147.06 H185.19 Z M190.64,147.06 V152.51 H196.09 V147.06 H190.64 Z M196.09,147.06 V152.51 H201.53 V147.06 H196.09 Z M206.98,147.06 V152.51 H212.43 V147.06 H206.98 Z M223.32,147.06 V152.51 H228.77 V147.06 H223.32 Z M245.11,147.06 V152.51 H250.55 V147.06 H245.11 Z M5.45,152.51 V157.96 H10.89 V152.51 H5.45 Z M10.89,152.51 V157.96 H16.34 V152.51 H10.89 Z M16.34,152.51 V157.96 H21.79 V152.51 H16.34 Z M21.79,152.51 V157.96 H27.23 V152.51 H21.79 Z M32.68,152.51 V157.96 H38.13 V152.51 H32.68 Z M59.91,152.51 V157.96 H65.36 V152.51 H59.91 Z M65.36,152.51 V157.96 H70.81 V152.51 H65.36 Z M76.26,152.51 V157.96 H81.70 V152.51 H76.26 Z M81.70,152.51 V157.96 H87.15 V152.51 H81.70 Z M92.60,152.51 V157.96 H98.04 V152.51 H92.60 Z M98.04,152.51 V157.96 H103.49 V152.51 H98.04 Z M103.49,152.51 V157.96 H108.94 V152.51 H103.49 Z M119.83,152.51 V157.96 H125.28 V152.51 H119.83 Z M130.72,152.51 V157.96 H136.17 V152.51 H130.72 Z M141.62,152.51 V157.96 H147.06 V152.51 H141.62 Z M174.30,152.51 V157.96 H179.74 V152.51 H174.30 Z M179.74,152.51 V157.96 H185.19 V152.51 H179.74 Z M190.64,152.51 V157.96 H196.09 V152.51 H190.64 Z M201.53,152.51 V157.96 H206.98 V152.51 H201.53 Z M206.98,152.51 V157.96 H212.43 V152.51 H206.98 Z M212.43,152.51 V157.96 H217.87 V152.51 H212.43 Z M16.34,157.96 V163.40 H21.79 V157.96 H16.34 Z M21.79,157.96 V163.40 H27.23 V157.96 H21.79 Z M32.68,157.96 V163.40 H38.13 V157.96 H32.68 Z M38.13,157.96 V163.40 H43.57 V157.96 H38.13 Z M43.57,157.96 V163.40 H49.02 V157.96 H43.57 Z M54.47,157.96 V163.40 H59.91 V157.96 H54.47 Z M70.81,157.96 V163.40 H76.26 V157.96 H70.81 Z M108.94,157.96 V163.40 H114.38 V157.96 H108.94 Z M125.28,157.96 V163.40 H130.72 V157.96 H125.28 Z M130.72,157.96 V163.40 H136.17 V157.96 H130.72 Z M136.17,157.96 V163.40 H141.62 V157.96 H136.17 Z M152.51,157.96 V163.40 H157.96 V157.96 H152.51 Z M163.40,157.96 V163.40 H168.85 V157.96 H163.40 Z M174.30,157.96 V163.40 H179.74 V157.96 H174.30 Z M196.09,157.96 V163.40 H201.53 V157.96 H196.09 Z M201.53,157.96 V163.40 H206.98 V157.96 H201.53 Z M212.43,157.96 V163.40 H217.87 V157.96 H212.43 Z M16.34,163.40 V168.85 H21.79 V163.40 H16.34 Z M27.23,163.40 V168.85 H32.68 V163.40 H27.23 Z M49.02,163.40 V168.85 H54.47 V163.40 H49.02 Z M59.91,163.40 V168.85 H65.36 V163.40 H59.91 Z M65.36,163.40 V168.85 H70.81 V163.40 H65.36 Z M76.26,163.40 V168.85 H81.70 V163.40 H76.26 Z M98.04,163.40 V168.85 H103.49 V163.40 H98.04 Z M103.49,163.40 V168.85 H108.94 V163.40 H103.49 Z M114.38,163.40 V168.85 H119.83 V163.40 H114.38 Z M119.83,163.40 V168.85 H125.28 V163.40 H119.83 Z M136.17,163.40 V168.85 H141.62 V163.40 H136.17 Z M147.06,163.40 V168.85 H152.51 V163.40 H147.06 Z M152.51,163.40 V168.85 H157.96 V163.40 H152.51 Z M163.40,163.40 V168.85 H168.85 V163.40 H163.40 Z M168.85,163.40 V168.85 H174.30 V163.40 H168.85 Z M179.74,163.40 V168.85 H185.19 V163.40 H179.74 Z M185.19,163.40 V168.85 H190.64 V163.40 H185.19 Z M206.98,163.40 V168.85 H212.43 V163.40 H206.98 Z M217.87,163.40 V168.85 H223.32 V163.40 H217.87 Z M239.66,163.40 V168.85 H245.11 V163.40 H239.66 Z M245.11,163.40 V168.85 H250.55 V163.40 H245.11 Z M5.45,168.85 V174.30 H10.89 V168.85 H5.45 Z M27.23,168.85 V174.30 H32.68 V168.85 H27.23 Z M38.13,168.85 V174.30 H43.57 V168.85 H38.13 Z M43.57,168.85 V174.30 H49.02 V168.85 H43.57 Z M49.02,168.85 V174.30 H54.47 V168.85 H49.02 Z M54.47,168.85 V174.30 H59.91 V168.85 H54.47 Z M70.81,168.85 V174.30 H76.26 V168.85 H70.81 Z M76.26,168.85 V174.30 H81.70 V168.85 H76.26 Z M81.70,168.85 V174.30 H87.15 V168.85 H81.70 Z M87.15,168.85 V174.30 H92.60 V168.85 H87.15 Z M98.04,168.85 V174.30 H103.49 V168.85 H98.04 Z M119.83,168.85 V174.30 H125.28 V168.85 H119.83 Z M130.72,168.85 V174.30 H136.17 V168.85 H130.72 Z M141.62,168.85 V174.30 H147.06 V168.85 H141.62 Z M152.51,168.85 V174.30 H157.96 V168.85 H152.51 Z M157.96,168.85 V174.30 H163.40 V168.85 H157.96 Z M163.40,168.85 V174.30 H168.85 V168.85 H163.40 Z M168.85,168.85 V174.30 H174.30 V168.85 H168.85 Z M179.74,168.85 V174.30 H185.19 V168.85 H179.74 Z M185.19,168.85 V174.30 H190.64 V168.85 H185.19 Z M206.98,168.85 V174.30 H212.43 V168.85 H206.98 Z M217.87,168.85 V174.30 H223.32 V168.85 H217.87 Z M228.77,168.85 V174.30 H234.21 V168.85 H228.77 Z M10.89,174.30 V179.74 H16.34 V174.30 H10.89 Z M32.68,174.30 V179.74 H38.13 V174.30 H32.68 Z M43.57,174.30 V179.74 H49.02 V174.30 H43.57 Z M54.47,174.30 V179.74 H59.91 V174.30 H54.47 Z M59.91,174.30 V179.74 H65.36 V174.30 H59.91 Z M76.26,174.30 V179.74 H81.70 V174.30 H76.26 Z M92.60,174.30 V179.74 H98.04 V174.30 H92.60 Z M98.04,174.30 V179.74 H103.49 V174.30 H98.04 Z M108.94,174.30 V179.74 H114.38 V174.30 H108.94 Z M119.83,174.30 V179.74 H125.28 V174.30 H119.83 Z M130.72,174.30 V179.74 H136.17 V174.30 H130.72 Z M136.17,174.30 V179.74 H141.62 V174.30 H136.17 Z M141.62,174.30 V179.74 H147.06 V174.30 H141.62 Z M147.06,174.30 V179.74 H152.51 V174.30 H147.06 Z M157.96,174.30 V179.74 H163.40 V174.30 H157.96 Z M179.74,174.30 V179.74 H185.19 V174.30 H179.74 Z M190.64,174.30 V179.74 H196.09 V174.30 H190.64 Z M196.09,174.30 V179.74 H201.53 V174.30 H196.09 Z M201.53,174.30 V179.74 H206.98 V174.30 H201.53 Z M223.32,174.30 V179.74 H228.77 V174.30 H223.32 Z M245.11,174.30 V179.74 H250.55 V174.30 H245.11 Z M10.89,179.74 V185.19 H16.34 V179.74 H10.89 Z M16.34,179.74 V185.19 H21.79 V179.74 H16.34 Z M21.79,179.74 V185.19 H27.23 V179.74 H21.79 Z M27.23,179.74 V185.19 H32.68 V179.74 H27.23 Z M38.13,179.74 V185.19 H43.57 V179.74 H38.13 Z M43.57,179.74 V185.19 H49.02 V179.74 H43.57 Z M54.47,179.74 V185.19 H59.91 V179.74 H54.47 Z M59.91,179.74 V185.19 H65.36 V179.74 H59.91 Z M65.36,179.74 V185.19 H70.81 V179.74 H65.36 Z M70.81,179.74 V185.19 H76.26 V179.74 H70.81 Z M81.70,179.74 V185.19 H87.15 V179.74 H81.70 Z M108.94,179.74 V185.19 H114.38 V179.74 H108.94 Z M119.83,179.74 V185.19 H125.28 V179.74 H119.83 Z M130.72,179.74 V185.19 H136.17 V179.74 H130.72 Z M136.17,179.74 V185.19 H141.62 V179.74 H136.17 Z M174.30,179.74 V185.19 H179.74 V179.74 H174.30 Z M190.64,179.74 V185.19 H196.09 V179.74 H190.64 Z M196.09,179.74 V185.19 H201.53 V179.74 H196.09 Z M201.53,179.74 V185.19 H206.98 V179.74 H201.53 Z M206.98,179.74 V185.19 H212.43 V179.74 H206.98 Z M228.77,179.74 V185.19 H234.21 V179.74 H228.77 Z M239.66,179.74 V185.19 H245.11 V179.74 H239.66 Z M16.34,185.19 V190.64 H21.79 V185.19 H16.34 Z M32.68,185.19 V190.64 H38.13 V185.19 H32.68 Z M43.57,185.19 V190.64 H49.02 V185.19 H43.57 Z M54.47,185.19 V190.64 H59.91 V185.19 H54.47 Z M76.26,185.19 V190.64 H81.70 V185.19 H76.26 Z M92.60,185.19 V190.64 H98.04 V185.19 H92.60 Z M98.04,185.19 V190.64 H103.49 V185.19 H98.04 Z M103.49,185.19 V190.64 H108.94 V185.19 H103.49 Z M130.72,185.19 V190.64 H136.17 V185.19 H130.72 Z M141.62,185.19 V190.64 H147.06 V185.19 H141.62 Z M163.40,185.19 V190.64 H168.85 V185.19 H163.40 Z M174.30,185.19 V190.64 H179.74 V185.19 H174.30 Z M185.19,185.19 V190.64 H190.64 V185.19 H185.19 Z M190.64,185.19 V190.64 H196.09 V185.19 H190.64 Z M201.53,185.19 V190.64 H206.98 V185.19 H201.53 Z M217.87,185.19 V190.64 H223.32 V185.19 H217.87 Z M234.21,185.19 V190.64 H239.66 V185.19 H234.21 Z M239.66,185.19 V190.64 H245.11 V185.19 H239.66 Z M27.23,190.64 V196.09 H32.68 V190.64 H27.23 Z M38.13,190.64 V196.09 H43.57 V190.64 H38.13 Z M49.02,190.64 V196.09 H54.47 V190.64 H49.02 Z M54.47,190.64 V196.09 H59.91 V190.64 H54.47 Z M59.91,190.64 V196.09 H65.36 V190.64 H59.91 Z M65.36,190.64 V196.09 H70.81 V190.64 H65.36 Z M81.70,190.64 V196.09 H87.15 V190.64 H81.70 Z M114.38,190.64 V196.09 H119.83 V190.64 H114.38 Z M119.83,190.64 V196.09 H125.28 V190.64 H119.83 Z M125.28,190.64 V196.09 H130.72 V190.64 H125.28 Z M147.06,190.64 V196.09 H152.51 V190.64 H147.06 Z M152.51,190.64 V196.09 H157.96 V190.64 H152.51 Z M157.96,190.64 V196.09 H163.40 V190.64 H157.96 Z M174.30,190.64 V196.09 H179.74 V190.64 H174.30 Z M179.74,190.64 V196.09 H185.19 V190.64 H179.74 Z M185.19,190.64 V196.09 H190.64 V190.64 H185.19 Z M190.64,190.64 V196.09 H196.09 V190.64 H190.64 Z M201.53,190.64 V196.09 H206.98 V190.64 H201.53 Z M212.43,190.64 V196.09 H217.87 V190.64 H212.43 Z M217.87,190.64 V196.09 H223.32 V190.64 H217.87 Z M223.32,190.64 V196.09 H228.77 V190.64 H223.32 Z M10.89,196.09 V201.53 H16.34 V196.09 H10.89 Z M16.34,196.09 V201.53 H21.79 V196.09 H16.34 Z M21.79,196.09 V201.53 H27.23 V196.09 H21.79 Z M27.23,196.09 V201.53 H32.68 V196.09 H27.23 Z M54.47,196.09 V201.53 H59.91 V196.09 H54.47 Z M70.81,196.09 V201.53 H76.26 V196.09 H70.81 Z M76.26,196.09 V201.53 H81.70 V196.09 H76.26 Z M81.70,196.09 V201.53 H87.15 V196.09 H81.70 Z M92.60,196.09 V201.53 H98.04 V196.09 H92.60 Z M98.04,196.09 V201.53 H103.49 V196.09 H98.04 Z M108.94,196.09 V201.53 H114.38 V196.09 H108.94 Z M114.38,196.09 V201.53 H119.83 V196.09 H114.38 Z M119.83,196.09 V201.53 H125.28 V196.09 H119.83 Z M136.17,196.09 V201.53 H141.62 V196.09 H136.17 Z M152.51,196.09 V201.53 H157.96 V196.09 H152.51 Z M163.40,196.09 V201.53 H168.85 V196.09 H163.40 Z M174.30,196.09 V201.53 H179.74 V196.09 H174.30 Z M190.64,196.09 V201.53 H196.09 V196.09 H190.64 Z M196.09,196.09 V201.53 H201.53 V196.09 H196.09 Z M201.53,196.09 V201.53 H206.98 V196.09 H201.53 Z M206.98,196.09 V201.53 H212.43 V196.09 H206.98 Z M212.43,196.09 V201.53 H217.87 V196.09 H212.43 Z M217.87,196.09 V201.53 H223.32 V196.09 H217.87 Z M223.32,196.09 V201.53 H228.77 V196.09 H223.32 Z M228.77,196.09 V201.53 H234.21 V196.09 H228.77 Z M234.21,196.09 V201.53 H239.66 V196.09 H234.21 Z M5.45,201.53 V206.98 H10.89 V201.53 H5.45 Z M21.79,201.53 V206.98 H27.23 V201.53 H21.79 Z M27.23,201.53 V206.98 H32.68 V201.53 H27.23 Z M38.13,201.53 V206.98 H43.57 V201.53 H38.13 Z M43.57,201.53 V206.98 H49.02 V201.53 H43.57 Z M54.47,201.53 V206.98 H59.91 V201.53 H54.47 Z M59.91,201.53 V206.98 H65.36 V201.53 H59.91 Z M65.36,201.53 V206.98 H70.81 V201.53 H65.36 Z M76.26,201.53 V206.98 H81.70 V201.53 H76.26 Z M81.70,201.53 V206.98 H87.15 V201.53 H81.70 Z M87.15,201.53 V206.98 H92.60 V201.53 H87.15 Z M98.04,201.53 V206.98 H103.49 V201.53 H98.04 Z M114.38,201.53 V206.98 H119.83 V201.53 H114.38 Z M119.83,201.53 V206.98 H125.28 V201.53 H119.83 Z M125.28,201.53 V206.98 H130.72 V201.53 H125.28 Z M130.72,201.53 V206.98 H136.17 V201.53 H130.72 Z M136.17,201.53 V206.98 H141.62 V201.53 H136.17 Z M141.62,201.53 V206.98 H147.06 V201.53 H141.62 Z M168.85,201.53 V206.98 H174.30 V201.53 H168.85 Z M190.64,201.53 V206.98 H196.09 V201.53 H190.64 Z M196.09,201.53 V206.98 H201.53 V201.53 H196.09 Z M201.53,201.53 V206.98 H206.98 V201.53 H201.53 Z M206.98,201.53 V206.98 H212.43 V201.53 H206.98 Z M212.43,201.53 V206.98 H217.87 V201.53 H212.43 Z M217.87,201.53 V206.98 H223.32 V201.53 H217.87 Z M223.32,201.53 V206.98 H228.77 V201.53 H223.32 Z M234.21,201.53 V206.98 H239.66 V201.53 H234.21 Z M245.11,201.53 V206.98 H250.55 V201.53 H245.11 Z M49.02,206.98 V212.43 H54.47 V206.98 H49.02 Z M59.91,206.98 V212.43 H65.36 V206.98 H59.91 Z M65.36,206.98 V212.43 H70.81 V206.98 H65.36 Z M87.15,206.98 V212.43 H92.60 V206.98 H87.15 Z M92.60,206.98 V212.43 H98.04 V206.98 H92.60 Z M98.04,206.98 V212.43 H103.49 V206.98 H98.04 Z M108.94,206.98 V212.43 H114.38 V206.98 H108.94 Z M114.38,206.98 V212.43 H119.83 V206.98 H114.38 Z M136.17,206.98 V212.43 H141.62 V206.98 H136.17 Z M141.62,206.98 V212.43 H147.06 V206.98 H141.62 Z M152.51,206.98 V212.43 H157.96 V206.98 H152.51 Z M168.85,206.98 V212.43 H174.30 V206.98 H168.85 Z M179.74,206.98 V212.43 H185.19 V206.98 H179.74 Z M185.19,206.98 V212.43 H190.64 V206.98 H185.19 Z M190.64,206.98 V212.43 H196.09 V206.98 H190.64 Z M201.53,206.98 V212.43 H206.98 V206.98 H201.53 Z M223.32,206.98 V212.43 H228.77 V206.98 H223.32 Z M245.11,206.98 V212.43 H250.55 V206.98 H245.11 Z M5.45,212.43 V217.87 H10.89 V212.43 H5.45 Z M10.89,212.43 V217.87 H16.34 V212.43 H10.89 Z M16.34,212.43 V217.87 H21.79 V212.43 H16.34 Z M21.79,212.43 V217.87 H27.23 V212.43 H21.79 Z M27.23,212.43 V217.87 H32.68 V212.43 H27.23 Z M32.68,212.43 V217.87 H38.13 V212.43 H32.68 Z M38.13,212.43 V217.87 H43.57 V212.43 H38.13 Z M49.02,212.43 V217.87 H54.47 V212.43 H49.02 Z M54.47,212.43 V217.87 H59.91 V212.43 H54.47 Z M59.91,212.43 V217.87 H65.36 V212.43 H59.91 Z M70.81,212.43 V217.87 H76.26 V212.43 H70.81 Z M81.70,212.43 V217.87 H87.15 V212.43 H81.70 Z M87.15,212.43 V217.87 H92.60 V212.43 H87.15 Z M108.94,212.43 V217.87 H114.38 V212.43 H108.94 Z M114.38,212.43 V217.87 H119.83 V212.43 H114.38 Z M125.28,212.43 V217.87 H130.72 V212.43 H125.28 Z M136.17,212.43 V217.87 H141.62 V212.43 H136.17 Z M157.96,212.43 V217.87 H163.40 V212.43 H157.96 Z M163.40,212.43 V217.87 H168.85 V212.43 H163.40 Z M168.85,212.43 V217.87 H174.30 V212.43 H168.85 Z M174.30,212.43 V217.87 H179.74 V212.43 H174.30 Z M179.74,212.43 V217.87 H185.19 V212.43 H179.74 Z M201.53,212.43 V217.87 H206.98 V212.43 H201.53 Z M212.43,212.43 V217.87 H217.87 V212.43 H212.43 Z M223.32,212.43 V217.87 H228.77 V212.43 H223.32 Z M245.11,212.43 V217.87 H250.55 V212.43 H245.11 Z M5.45,217.87 V223.32 H10.89 V217.87 H5.45 Z M38.13,217.87 V223.32 H43.57 V217.87 H38.13 Z M54.47,217.87 V223.32 H59.91 V217.87 H54.47 Z M59.91,217.87 V223.32 H65.36 V217.87 H59.91 Z M70.81,217.87 V223.32 H76.26 V217.87 H70.81 Z M81.70,217.87 V223.32 H87.15 V217.87 H81.70 Z M87.15,217.87 V223.32 H92.60 V217.87 H87.15 Z M98.04,217.87 V223.32 H103.49 V217.87 H98.04 Z M103.49,217.87 V223.32 H108.94 V217.87 H103.49 Z M114.38,217.87 V223.32 H119.83 V217.87 H114.38 Z M136.17,217.87 V223.32 H141.62 V217.87 H136.17 Z M141.62,217.87 V223.32 H147.06 V217.87 H141.62 Z M147.06,217.87 V223.32 H152.51 V217.87 H147.06 Z M152.51,217.87 V223.32 H157.96 V217.87 H152.51 Z M163.40,217.87 V223.32 H168.85 V217.87 H163.40 Z M168.85,217.87 V223.32 H174.30 V217.87 H168.85 Z M185.19,217.87 V223.32 H190.64 V217.87 H185.19 Z M196.09,217.87 V223.32 H201.53 V217.87 H196.09 Z M201.53,217.87 V223.32 H206.98 V217.87 H201.53 Z M223.32,217.87 V223.32 H228.77 V217.87 H223.32 Z M5.45,223.32 V228.77 H10.89 V223.32 H5.45 Z M16.34,223.32 V228.77 H21.79 V223.32 H16.34 Z M21.79,223.32 V228.77 H27.23 V223.32 H21.79 Z M27.23,223.32 V228.77 H32.68 V223.32 H27.23 Z M38.13,223.32 V228.77 H43.57 V223.32 H38.13 Z M65.36,223.32 V228.77 H70.81 V223.32 H65.36 Z M70.81,223.32 V228.77 H76.26 V223.32 H70.81 Z M76.26,223.32 V228.77 H81.70 V223.32 H76.26 Z M103.49,223.32 V228.77 H108.94 V223.32 H103.49 Z M108.94,223.32 V228.77 H114.38 V223.32 H108.94 Z M114.38,223.32 V228.77 H119.83 V223.32 H114.38 Z M119.83,223.32 V228.77 H125.28 V223.32 H119.83 Z M125.28,223.32 V228.77 H130.72 V223.32 H125.28 Z M130.72,223.32 V228.77 H136.17 V223.32 H130.72 Z M136.17,223.32 V228.77 H141.62 V223.32 H136.17 Z M157.96,223.32 V228.77 H163.40 V223.32 H157.96 Z M168.85,223.32 V228.77 H174.30 V223.32 H168.85 Z M185.19,223.32 V228.77 H190.64 V223.32 H185.19 Z M190.64,223.32 V228.77 H196.09 V223.32 H190.64 Z M201.53,223.32 V228.77 H206.98 V223.32 H201.53 Z M206.98,223.32 V228.77 H212.43 V223.32 H206.98 Z M212.43,223.32 V228.77 H217.87 V223.32 H212.43 Z M217.87,223.32 V228.77 H223.32 V223.32 H217.87 Z M223.32,223.32 V228.77 H228.77 V223.32 H223.32 Z M228.77,223.32 V228.77 H234.21 V223.32 H228.77 Z M234.21,223.32 V228.77 H239.66 V223.32 H234.21 Z M5.45,228.77 V234.21 H10.89 V228.77 H5.45 Z M16.34,228.77 V234.21 H21.79 V228.77 H16.34 Z M21.79,228.77 V234.21 H27.23 V228.77 H21.79 Z M27.23,228.77 V234.21 H32.68 V228.77 H27.23 Z M38.13,228.77 V234.21 H43.57 V228.77 H38.13 Z M49.02,228.77 V234.21 H54.47 V228.77 H49.02 Z M59.91,228.77 V234.21 H65.36 V228.77 H59.91 Z M65.36,228.77 V234.21 H70.81 V228.77 H65.36 Z M70.81,228.77 V234.21 H76.26 V228.77 H70.81 Z M81.70,228.77 V234.21 H87.15 V228.77 H81.70 Z M87.15,228.77 V234.21 H92.60 V228.77 H87.15 Z M92.60,228.77 V234.21 H98.04 V228.77 H92.60 Z M98.04,228.77 V234.21 H103.49 V228.77 H98.04 Z M108.94,228.77 V234.21 H114.38 V228.77 H108.94 Z M119.83,228.77 V234.21 H125.28 V228.77 H119.83 Z M130.72,228.77 V234.21 H136.17 V228.77 H130.72 Z M147.06,228.77 V234.21 H152.51 V228.77 H147.06 Z M152.51,228.77 V234.21 H157.96 V228.77 H152.51 Z M174.30,228.77 V234.21 H179.74 V228.77 H174.30 Z M179.74,228.77 V234.21 H185.19 V228.77 H179.74 Z M185.19,228.77 V234.21 H190.64 V228.77 H185.19 Z M196.09,228.77 V234.21 H201.53 V228.77 H196.09 Z M206.98,228.77 V234.21 H212.43 V228.77 H206.98 Z M217.87,228.77 V234.21 H223.32 V228.77 H217.87 Z M223.32,228.77 V234.21 H228.77 V228.77 H223.32 Z M228.77,228.77 V234.21 H234.21 V228.77 H228.77 Z M234.21,228.77 V234.21 H239.66 V228.77 H234.21 Z M239.66,228.77 V234.21 H245.11 V228.77 H239.66 Z M5.45,234.21 V239.66 H10.89 V234.21 H5.45 Z M16.34,234.21 V239.66 H21.79 V234.21 H16.34 Z M21.79,234.21 V239.66 H27.23 V234.21 H21.79 Z M27.23,234.21 V239.66 H32.68 V234.21 H27.23 Z M38.13,234.21 V239.66 H43.57 V234.21 H38.13 Z M49.02,234.21 V239.66 H54.47 V234.21 H49.02 Z M54.47,234.21 V239.66 H59.91 V234.21 H54.47 Z M65.36,234.21 V239.66 H70.81 V234.21 H65.36 Z M76.26,234.21 V239.66 H81.70 V234.21 H76.26 Z M81.70,234.21 V239.66 H87.15 V234.21 H81.70 Z M87.15,234.21 V239.66 H92.60 V234.21 H87.15 Z M108.94,234.21 V239.66 H114.38 V234.21 H108.94 Z M114.38,234.21 V239.66 H119.83 V234.21 H114.38 Z M119.83,234.21 V239.66 H125.28 V234.21 H119.83 Z M125.28,234.21 V239.66 H130.72 V234.21 H125.28 Z M130.72,234.21 V239.66 H136.17 V234.21 H130.72 Z M147.06,234.21 V239.66 H152.51 V234.21 H147.06 Z M152.51,234.21 V239.66 H157.96 V234.21 H152.51 Z M163.40,234.21 V239.66 H168.85 V234.21 H163.40 Z M174.30,234.21 V239.66 H179.74 V234.21 H174.30 Z M185.19,234.21 V239.66 H190.64 V234.21 H185.19 Z M190.64,234.21 V239.66 H196.09 V234.21 H190.64 Z M196.09,234.21 V239.66 H201.53 V234.21 H196.09 Z M201.53,234.21 V239.66 H206.98 V234.21 H201.53 Z M206.98,234.21 V239.66 H212.43 V234.21 H206.98 Z M212.43,234.21 V239.66 H217.87 V234.21 H212.43 Z M217.87,234.21 V239.66 H223.32 V234.21 H217.87 Z M234.21,234.21 V239.66 H239.66 V234.21 H234.21 Z M239.66,234.21 V239.66 H245.11 V234.21 H239.66 Z M5.45,239.66 V245.11 H10.89 V239.66 H5.45 Z M38.13,239.66 V245.11 H43.57 V239.66 H38.13 Z M49.02,239.66 V245.11 H54.47 V239.66 H49.02 Z M54.47,239.66 V245.11 H59.91 V239.66 H54.47 Z M59.91,239.66 V245.11 H65.36 V239.66 H59.91 Z M70.81,239.66 V245.11 H76.26 V239.66 H70.81 Z M81.70,239.66 V245.11 H87.15 V239.66 H81.70 Z M87.15,239.66 V245.11 H92.60 V239.66 H87.15 Z M92.60,239.66 V245.11 H98.04 V239.66 H92.60 Z M114.38,239.66 V245.11 H119.83 V239.66 H114.38 Z M119.83,239.66 V245.11 H125.28 V239.66 H119.83 Z M125.28,239.66 V245.11 H130.72 V239.66 H125.28 Z M130.72,239.66 V245.11 H136.17 V239.66 H130.72 Z M136.17,239.66 V245.11 H141.62 V239.66 H136.17 Z M147.06,239.66 V245.11 H152.51 V239.66 H147.06 Z M152.51,239.66 V245.11 H157.96 V239.66 H152.51 Z M174.30,239.66 V245.11 H179.74 V239.66 H174.30 Z M179.74,239.66 V245.11 H185.19 V239.66 H179.74 Z M185.19,239.66 V245.11 H190.64 V239.66 H185.19 Z M190.64,239.66 V245.11 H196.09 V239.66 H190.64 Z M196.09,239.66 V245.11 H201.53 V239.66 H196.09 Z M212.43,239.66 V245.11 H217.87 V239.66 H212.43 Z M217.87,239.66 V245.11 H223.32 V239.66 H217.87 Z M228.77,239.66 V245.11 H234.21 V239.66 H228.77 Z M245.11,239.66 V245.11 H250.55 V239.66 H245.11 Z M5.45,245.11 V250.55 H10.89 V245.11 H5.45 Z M10.89,245.11 V250.55 H16.34 V245.11 H10.89 Z M16.34,245.11 V250.55 H21.79 V245.11 H16.34 Z M21.79,245.11 V250.55 H27.23 V245.11 H21.79 Z M27.23,245.11 V250.55 H32.68 V245.11 H27.23 Z M32.68,245.11 V250.55 H38.13 V245.11 H32.68 Z M38.13,245.11 V250.55 H43.57 V245.11 H38.13 Z M92.60,245.11 V250.55 H98.04 V245.11 H92.60 Z M98.04,245.11 V250.55 H103.49 V245.11 H98.04 Z M103.49,245.11 V250.55 H108.94 V245.11 H103.49 Z M108.94,245.11 V250.55 H114.38 V245.11 H108.94 Z M130.72,245.11 V250.55 H136.17 V245.11 H130.72 Z M141.62,245.11 V250.55 H147.06 V245.11 H141.62 Z M152.51,245.11 V250.55 H157.96 V245.11 H152.51 Z M168.85,245.11 V250.55 H174.30 V245.11 H168.85 Z M174.30,245.11 V250.55 H179.74 V245.11 H174.30 Z M206.98,245.11 V250.55 H212.43 V245.11 H206.98 Z M217.87,245.11 V250.55 H223.32 V245.11 H217.87 Z M223.32,245.11 V250.55 H228.77 V245.11 H223.32 Z M228.77,245.11 V250.55 H234.21 V245.11 H228.77 Z M234.21,245.11 V250.55 H239.66 V245.11 H234.21 Z " /></svg>